<ttFont>
          <CharString index="0">
            -14 10 -9 14 vhcurveto
            115 hlineto
            14 9 8 15 hvcurveto
            117 vlineto
            14 -8 11 -15 vhcurveto
            -115 hlineto
            -16 -8 -10 -15 hvcurveto
            return
          </CharString>
          <CharString index="1">
            12 -134 162 0 10 134 0 67 -184 0 rlineto
            return
          </CharString>
          <CharString index="2">
            10 -134 164 0 10 134 0 67 -184 0 rlineto
            return
          </CharString>
          <CharString index="3">
            -85 39 -50 98 vhcurveto
            101 hlineto
            101 38 50 85 hvcurveto
            113 vlineto
            85 -39 50 -98 vhcurveto
            -101 hlineto
            -101 -38 -50 -85 hvcurveto
            return
          </CharString>
          <CharString index="4">
            53 vlineto
            34 17 6 22 vhcurveto
            51 hlineto
            25 12 -7 -33 hvcurveto
            -53 vlineto
            -22 -5 -18 -34 vhcurveto
            -51 hlineto
            -33 -4 18 22 hvcurveto
            return
          </CharString>
          <CharString index="5">
            131 0 447 732 -124 0 rlineto
            return
          </CharString>
          <CharString index="6">
            -85 38 -50 98 vhcurveto
            102 hlineto
            101 38 50 85 hvcurveto
            113 vlineto
            return
          </CharString>
          <CharString index="7">
            85 -39 50 -98 vhcurveto
            -102 hlineto
            -101 -37 -50 -85 hvcurveto
            return
          </CharString>
          <CharString index="8">
            53 vlineto
            34 17 6 22 vhcurveto
            50 hlineto
            25 13 -7 -33 hvcurveto
            -53 vlineto
            -22 -6 -18 -34 vhcurveto
            -50 hlineto
            -33 -4 18 22 hvcurveto
            return
          </CharString>
          <CharString index="9">
            -397 189 -139 0 vhcurveto
            171 hlineto
            0 -166 220 316 290 166 244 0 hvcurveto
            -171 hlineto
            0 -189 -168 -366 hvcurveto
            return
          </CharString>
          <CharString index="10">
            171 hlineto
            0 189 139 397 366 -189 168 0 hvcurveto
            -171 hlineto
            0 166 -244 -290 -316 -166 -220 0 hvcurveto
            return
          </CharString>
          <CharString index="11">
            -17 11 -8 14 vhcurveto
            11 -5 hlineto
            0 -10 -1 -12 -30 1 rrcurveto
            -62 vlineto
            0 155 -47 124 hvcurveto
            150 vlineto
            15 -6 12 -18 vhcurveto
            -111 hlineto
            -16 -9 -9 -18 hvcurveto
            return
          </CharString>
          <CharString index="12">
            314 154 -314 hlineto
            return
          </CharString>
          <CharString index="13">
            -14 10 -9 14 vhcurveto
            113 hlineto
            14 11 5 18 hvcurveto
            117 vlineto
            16 -7 9 -18 vhcurveto
            -113 hlineto
            -16 -8 -10 -15 hvcurveto
            return
          </CharString>
          <CharString index="14">
            -120 63 -72 130 vhcurveto
            164 hlineto
            120 66 73 119 hvcurveto
            348 vlineto
            104 -40 88 -145 vhcurveto
            -164 hlineto
            -125 -69 -72 -130 hvcurveto
            return
          </CharString>
          <CharString index="15">
            -144 0 -78 -12 -82 -18 rrcurveto
            return
          </CharString>
          <CharString index="16">
            231 hlineto
            52 42 0 -51 hvcurveto
            -9 vlineto
            0 -46 -25 0 -69 -3 rrcurveto
            -163 -10 0 -158 163 -7 rlineto
            64 -3 28 -2 0 -46 rrcurveto
            -9 vlineto
            -47 -20 -1 -78 vhcurveto
            return
          </CharString>
          <CharString index="17">
            -218 0 -1 -147 rlineto
            return
          </CharString>
          <CharString index="18">
            88 -31 113 3 114 0 rrcurveto
            122 74 67 121 hvcurveto
            29 vlineto
            0 76 -21 58 -63 20 61 22 23 51 0 73 rrcurveto
            39 vlineto
            0 119 -79 64 -110 2 rrcurveto
            return
          </CharString>
          <CharString index="19">
            -117 2 -123 1 -88 -31 rrcurveto
            return
          </CharString>
          <CharString index="20">
            34 -87 325 0 0 -135 194 0 0 135 60 29 0 149 -60 0 0 212 -167 0 -27 -78 0 -134 -97 0 157 417 -208 0 rlineto
            return
          </CharString>
          <CharString index="21">
            134 -23 56 -1 124 0 rrcurveto
            98 105 53 137 hvcurveto
            94 vlineto
            0 106 -52 80 -116 10 -13 1 -37 1 -26 -2 -13 -1 -26 -3 -26 -16 rrcurveto
            4 102 274 0 0 174 -463 0 -22 -465 186 0 rlineto
            31 12 14 32 vhcurveto
            44 hlineto
            38 10 -20 -33 hvcurveto
            -31 vlineto
            -20 3 -33 -62 vhcurveto
            return
          </CharString>
          <CharString index="22">
            -315 77 -70 122 vhcurveto
            138 hlineto
            116 75 49 130 hvcurveto
            91 vlineto
            109 -35 80 -146 vhcurveto
            -84 0 -32 -2 -37 -19 rrcurveto
            73 0 54 91 vhcurveto
            219 148 hlineto
            -93 20 -139 17 -100 -16 -89 -14 -83 -70 0 -265 rrcurveto
            return
          </CharString>
          <CharString index="23">
            102 hlineto
            37 1 -12 -43 hvcurveto
            -20 vlineto
            -37 -10 -9 -33 vhcurveto
            -17 hlineto
            -65 -15 15 106 hvcurveto
            return
          </CharString>
          <CharString index="24">
            291 0 -198 -558 206 0 229 654 -47 78 -481 0 rlineto
            return
          </CharString>
          <CharString index="25">
            -64 6 -115 190 vhcurveto
            155 hlineto
            97 86 22 163 hvcurveto
            76 vlineto
            0 43 -6 86 -69 13 65 9 10 80 0 27 rrcurveto
            44 vlineto
            128 -64 46 -118 vhcurveto
            -156 hlineto
            -103 -93 -33 -140 hvcurveto
            -65 vlineto
            0 -61 0 -52 74 -37 -56 -9 -18 -58 0 -50 rrcurveto
            return
          </CharString>
          <CharString index="26">
            40 vlineto
            27 5 20 42 vhcurveto
            54 hlineto
            39 6 -21 -26 hvcurveto
            -40 vlineto
            -28 -3 -18 -44 vhcurveto
            -52 hlineto
            -35 -12 11 35 hvcurveto
            return
          </CharString>
          <CharString index="27">
            30 vlineto
            46 17 3 30 vhcurveto
            52 hlineto
            24 23 -1 -48 hvcurveto
            -30 vlineto
            -30 -3 -14 -44 vhcurveto
            -52 hlineto
            -34 -13 5 39 hvcurveto
            return
          </CharString>
          <CharString index="28">
            -109 35 -80 146 vhcurveto
            84 0 32 2 37 19 rrcurveto
            -73 0 -54 -91 vhcurveto
            -219 -148 hlineto
            93 -20 139 -17 100 16 89 14 83 70 0 265 rrcurveto
            315 -77 70 -122 vhcurveto
            -138 hlineto
            -116 -75 -49 -130 hvcurveto
            return
          </CharString>
          <CharString index="29">
            20 vlineto
            37 10 9 33 vhcurveto
            17 hlineto
            65 15 -15 -106 hvcurveto
            -102 hlineto
            -37 -1 12 43 hvcurveto
            return
          </CharString>
          <CharString index="30">
            427 154 -427 hlineto
            return
          </CharString>
          <CharString index="31">
            -181 116 -57 122 vhcurveto
            329 hlineto
            147 90 70 188 hvcurveto
            412 vlineto
            204 -132 59 -115 vhcurveto
            -86 hlineto
            return
          </CharString>
          <CharString index="32">
            -126 1 -144 -18 -48 -10 rrcurveto
            -117 vlineto
            return
          </CharString>
          <CharString index="33">
            199 0 42 128 197 0 43 -128 199 0 -222 732 -229 0 rlineto
            return
          </CharString>
          <CharString index="34">
            61 196 53 -196 rlineto
            return
          </CharString>
          <CharString index="35">
            323 hlineto
            154 79 60 164 hvcurveto
            0 76 -50 68 -75 12 rrcurveto
            return
          </CharString>
          <CharString index="36">
            72 6 35 84 0 62 rrcurveto
            124 -64 76 -156 vhcurveto
            -318 hlineto
            return
          </CharString>
          <CharString index="37">
            0 -246 68 -125 185 -3 148 -3 54 9 62 26 rrcurveto
            151 vlineto
            0 -98 -9 -105 -101 -19 34 164 204 35 -4 84 vhcurveto
            103 0 100 -17 1 0 rrcurveto
            151 vlineto
            -86 32 -34 8 -144 0 -199 0 -54 -138 0 -234 rrcurveto
            return
          </CharString>
          <CharString index="38">
            343 hlineto
            167 82 107 256 207 -50 162 -199 hvcurveto
            -343 hlineto
            return
          </CharString>
          <CharString index="39">
            404 129 vlineto
            47 28 -23 -181 -141 -18 -59 -57 hvcurveto
            return
          </CharString>
          <CharString index="40">
            0 0 214 3 103 14 rrcurveto
            162 vlineto
            return
          </CharString>
          <CharString index="41">
            -257 hlineto
            -29 -33 -1 53 hvcurveto
            0 44 rlineto
            return
          </CharString>
          <CharString index="42">
            269 9 0 161 rlineto
            return
          </CharString>
          <CharString index="43">
            -269 11 0 44 rlineto
            27 0 29 52 vhcurveto
            return
          </CharString>
          <CharString index="44">
            267 163 hlineto
            return
          </CharString>
          <CharString index="45">
            0 -206 31 -182 207 13 80 5 16 12 28 37 rrcurveto
            55 -49 137 0 0 436 rlineto
            -24 2 -23 1 -21 0 -66 0 -64 -1 -45 -24 rrcurveto
            -120 49 -75 vlineto
            0 -10 -46 -62 -88 -6 31 164 163 16 45 93 vhcurveto
            127 0 111 -22 6 0 rrcurveto
            149 vlineto
            -135 37 -10 0 -159 0 -199 0 -44 -147 0 -223 rrcurveto
            return
          </CharString>
          <CharString index="46">
            194 267 170 -267 194 732 -194 -291 -170 291 -194 hlineto
            return
          </CharString>
          <CharString index="47">
            194 732 -194 hlineto
            return
          </CharString>
          <CharString index="48">
            52 -34 143 -7 53 34 50 32 4 68 0 47 rrcurveto
            567 -194 -456 vlineto
            -77 -3 -20 -105 vhcurveto
            return
          </CharString>
          <CharString index="49">
            185 280 39 hlineto
            149 -280 223 0 -201 364 201 368 -223 0 -149 -288 -40 0 0 288 -184 0 rlineto
            return
          </CharString>
          <CharString index="50">
            -113 75 -43 91 vhcurveto
            296 174 -206 hlineto
            -29 -33 -1 53 hvcurveto
            506 -194 vlineto
            return
          </CharString>
          <CharString index="51">
            191 0 46 399 64 -399 222 0 61 399 50 -399 191 0 -79 732 -270 0 -66 -411 -62 411 -270 0 rlineto
            return
          </CharString>
          <CharString index="52">
            195 364 hlineto
            210 -364 194 0 0 732 -194 0 0 -374 -209 374 -196 0 rlineto
            return
          </CharString>
          <CharString index="53">
            -333 123 -32 180 180 123 42 323 343 -130 33 -173 -168 -135 -33 -343 vhcurveto
            return
          </CharString>
          <CharString index="54">
            179 21 23 88 91 18 -32 -170 -155 -23 -36 -86 -98 -11 38 153 vhcurveto
            return
          </CharString>
          <CharString index="55">
            194 268 hlineto
            5 -3 87 -14 40 -3 92 -7 134 19 0 235 rrcurveto
            212 -124 25 -102 vhcurveto
            -326 hlineto
            return
          </CharString>
          <CharString index="56">
            155 112 vlineto
            35 16 -25 -50 -51 -13 -29 -38 hvcurveto
            return
          </CharString>
          <CharString index="57">
            1 -151 135 -42 124 18 rrcurveto
            140 vlineto
            -60 -12 -92 -14 -6 61 rrcurveto
            return
          </CharString>
          <CharString index="58">
            194 273 hlineto
            60 -14 94 -259 221 0 -126 277 rlineto
            51 20 57 26 0 174 rrcurveto
            182 -94 53 -130 vhcurveto
            -327 hlineto
            return
          </CharString>
          <CharString index="59">
            148 107 vlineto
            44 10 -26 -44 -52 -3 -26 -51 hvcurveto
            return
          </CharString>
          <CharString index="60">
            184 -558 194 558 190 174 -568 hlineto
            return
          </CharString>
          <CharString index="61">
            -333 155 8 136 121 165 2 323 vhcurveto
            412 -195 -412 vlineto
            -90 -2 -61 -89 -95 -2 57 94 vhcurveto
            412 -194 vlineto
            return
          </CharString>
          <CharString index="62">
            207 -732 234 0 59 239 67 -239 234 0 179 732 -204 0 -91 -494 -102 342 37 152 -204 0 -91 -494 -121 494 rlineto
            return
          </CharString>
          <CharString index="63">
            215 -532 0 -200 194 0 0 200 231 532 -211 0 -113 -324 -105 324 rlineto
            return
          </CharString>
          <CharString index="64">
            513 174 -256 hlineto
            256 384 0 174 -513 0 0 -174 286 0 -286 -384 rlineto
            return
          </CharString>
          <CharString index="65">
            112 0 50 51 49 -51 111 0 -91 140 -131 0 rlineto
            return
          </CharString>
          <CharString index="66">
            113 -143 109 0 -77 143 rlineto
            return
          </CharString>
          <CharString index="67">
            0 -56 38 -88 126 -5 73 -3 30 42 9 21 rrcurveto
            38 -54 156 0 0 357 rlineto
            149 -84 35 -140 vhcurveto
            -99 0 -60 -7 -69 -33 rrcurveto
            -113 vlineto
            0 171 11 25 40 22 1 -53 vhcurveto
            1 -1 -1 -6 0 0 rrcurveto
            -1 -102 1 0 -139 -35 -81 -75 vhcurveto
            return
          </CharString>
          <CharString index="68">
            6 vlineto
            0 16 -2 26 32 3 rrcurveto
            52 5 0 -60 rlineto
            0 1 -33 -41 -19 -23 -4 41 vhcurveto
            return
          </CharString>
          <CharString index="69">
            166 0 29 49 rlineto
            39 -33 33 -22 59 0 rrcurveto
            119 53 76 193 189 -28 87 -144 hvcurveto
            -45 0 -51 -11 -36 -19 rrcurveto
            276 -194 vlineto
            return
          </CharString>
          <CharString index="70">
            212 vlineto
            10 11 30 4 25 0 rrcurveto
            28 16 -14 -113 -109 -15 -13 -29 hvcurveto
            -31 0 -24 5 -10 17 rrcurveto
            return
          </CharString>
          <CharString index="71">
            -208 76 -63 99 vhcurveto
            83 1 107 -16 75 53 rrcurveto
            114 vlineto
            0 -64 -8 -92 -72 -18 3 122 130 22 -2 68 89 60 -6 0 vhcurveto
            114 vlineto
            -102 41 -104 -5 -52 0 rrcurveto
            -102 -73 -62 -208 hvcurveto
            return
          </CharString>
          <CharString index="72">
            -201 53 -68 119 vhcurveto
            59 0 33 22 39 33 rrcurveto
            29 -49 166 0 0 785 -194 0 0 -276 rlineto
            -36 19 -51 11 -45 0 rrcurveto
            -144 -28 -79 -197 hvcurveto
            return
          </CharString>
          <CharString index="73">
            113 16 14 28 vhcurveto
            25 0 30 -4 10 -11 rrcurveto
            -212 vlineto
            -10 -17 -24 -5 -31 0 rrcurveto
            -29 -15 13 109 hvcurveto
            return
          </CharString>
          <CharString index="74">
            -184 40 -89 135 vhcurveto
            83 0 137 -4 70 32 rrcurveto
            126 vlineto
            -75 -11 -3 0 -72 0 rrcurveto
            -74 -47 -15 72 hvcurveto
            124 hlineto
            96 61 33 109 176 -66 22 -177 -172 -60 -46 -221 hvcurveto
            return
          </CharString>
          <CharString index="75">
            -2 76 12 7 42 0 rrcurveto
            34 1 -15 -36 -19 -12 -13 -17 hvcurveto
            return
          </CharString>
          <CharString index="76">
            72 -397 194 397 98 134 -98 39 hlineto
            0 62 -4 21 50 -1 rrcurveto
            0 72 -1 1 vhcurveto
            111 vlineto
            -39 20 -41 4 -49 0 rrcurveto
            -120 -64 -35 -121 hvcurveto
            0 -99 -72 -17 rlineto
            return
          </CharString>
          <CharString index="77">
            156 39 75 90 hvcurveto
            0 56 -3 16 -8 23 rrcurveto
            41 18 0 106 -332 0 rlineto
            -130 -63 -62 -127 hvcurveto
            0 -53 15 -67 44 -28 rrcurveto
            -45 -18 -19 -37 0 -49 rrcurveto
            return
          </CharString>
          <CharString index="78">
            194 359 hlineto
            12 27 24 10 37 0 rrcurveto
            22 11 -10 -42 hvcurveto
            -344 194 340 vlineto
            112 -16 88 -138 vhcurveto
            -81 0 -36 -32 -30 -29 rrcurveto
            303 -193 vlineto
            return
          </CharString>
          <CharString index="79">
            -14 10 -9 14 vhcurveto
            150 hlineto
            14 8 8 15 hvcurveto
            117 vlineto
            14 -7 11 -15 vhcurveto
            -150 hlineto
            -16 -8 -10 -15 hvcurveto
            return
          </CharString>
          <CharString index="80">
            194 531 -194 hlineto
            return
          </CharString>
          <CharString index="81">
            148 hlineto
            45 78 2 102 -1 86 rrcurveto
            535 -194 vlineto
            return
          </CharString>
          <CharString index="82">
            194 228 20 hlineto
            119 -228 227 0 -169 295 169 236 -238 0 -108 -169 -20 0 0 420 -194 0 rlineto
            return
          </CharString>
          <CharString index="83">
            -141 47 -48 95 vhcurveto
            138 113 hlineto
            -7 -42 21 0 hvcurveto
            -22 12 -15 14 0 69 rrcurveto
            554 -194 vlineto
            return
          </CharString>
          <CharString index="84">
            194 359 hlineto
            12 27 24 10 37 0 rrcurveto
            22 11 -10 -42 hvcurveto
            -344 194 340 vlineto
            0 9 -1 9 0 8 14 22 29 8 33 0 rrcurveto
            22 11 -10 -42 hvcurveto
            -344 194 340 vlineto
            112 -16 88 -138 vhcurveto
            -77 0 -51 -33 -44 -28 -21 38 -39 23 -70 0 -81 0 -29 -28 -36 -33 rrcurveto
            return
          </CharString>
          <CharString index="85">
            -32 52 -162 0 rlineto
            return
          </CharString>
          <CharString index="86">
            194 359 hlineto
            12 27 24 10 37 0 rrcurveto
            22 11 -10 -42 hvcurveto
            -344 194 340 vlineto
            112 -16 88 -138 vhcurveto
            -81 0 -32 -30 -33 -31 rrcurveto
            return
          </CharString>
          <CharString index="87">
            -190 62 -73 187 191 58 66 197 211 -63 67 -186 -184 -65 -61 -217 vhcurveto
            return
          </CharString>
          <CharString index="88">
            114 -4 20 59 56 -1 -19 -115 -111 0 -8 -55 -51 -4 14 105 vhcurveto
            return
          </CharString>
          <CharString index="89">
            194 292 hlineto
            36 -19 51 -11 45 0 rrcurveto
            144 28 108 168 190 -53 79 -119 hvcurveto
            -59 0 -33 -22 -39 -33 rrcurveto
            -29 49 -166 0 rlineto
            return
          </CharString>
          <CharString index="90">
            212 vlineto
            10 17 24 5 31 0 rrcurveto
            29 15 -13 -109 -113 -16 -14 -28 hvcurveto
            -25 0 -30 4 -10 11 rrcurveto
            return
          </CharString>
          <CharString index="91">
            194 285 hlineto
            60 43 0 40 vhcurveto
            79 186 hlineto
            -16 5 -13 0 -18 0 -53 0 -45 -36 -17 -36 rrcurveto
            -22 67 -172 0 rlineto
            return
          </CharString>
          <CharString index="92">
            -103 64 -49 94 vhcurveto
            96 hlineto
            16 2 -6 -12 hvcurveto
            -5 vlineto
            -10 -1 -7 -17 vhcurveto
            -232 -114 hlineto
            36 -41 135 4 143 0 rrcurveto
            64 66 39 109 hvcurveto
            59 vlineto
            79 -37 65 -113 vhcurveto
            -100 hlineto
            -12 -10 0 16 hvcurveto
            6 vlineto
            18 9 0 13 vhcurveto
            224 114 hlineto
            -32 39 -127 -3 -143 0 rrcurveto
            -103 -35 -70 -82 hvcurveto
            return
          </CharString>
          <CharString index="93">
            75 -208 hlineto
            -141 49 -50 80 vhcurveto
            150 113 hlineto
            -7 -42 21 0 hvcurveto
            -22 12 -14 14 0 71 rrcurveto
            168 89 134 -89 148 -166 vlineto
            -28 -148 -75 -38 rlineto
            return
          </CharString>
          <CharString index="94">
            -112 16 -88 138 vhcurveto
            81 0 19 32 46 29 rrcurveto
            return
          </CharString>
          <CharString index="95">
            32 -52 162 0 0 531 -194 0 0 -359 rlineto
            return
          </CharString>
          <CharString index="96">
            -12 -27 -24 -10 -37 0 rrcurveto
            -22 -11 10 42 hvcurveto
            344 -194 vlineto
            return
          </CharString>
          <CharString index="97">
            146 -531 224 0 38 137 48 -137 224 0 146 531 -207 0 -58 -322 -65 201 23 121 -188 0 -60 -322 -65 322 rlineto
            return
          </CharString>
          <CharString index="98">
            83 -375 rlineto
            20 -90 52 -66 117 0 rrcurveto
            -59 -270 144 0 71 102 143 699 -197 0 -69 -375 rlineto
            -16 1 -21 7 -6 31 rrcurveto
            -61 336 rlineto
            return
          </CharString>
          <CharString index="99">
            212 0 -197 -224 0 -152 441 0 rlineto
            0 0 1 153 -1 1 rrcurveto
            -181 0 181 222 0 154 -456 0 rlineto
            return
          </CharString>
          <CharString index="100">
            31 24 23 11 39 0 rrcurveto
            return
          </CharString>
          <CharString index="101">
            39 0 34 -35 43 0 51 0 39 39 22 33 rrcurveto
            -26 74 rlineto
            -22 -23 -31 -19 -40 2 rrcurveto
            return
          </CharString>
          <CharString index="102">
            -40 0 -22 35 -44 0 rrcurveto
            -56 0 -42 -38 -25 -36 rrcurveto
            return
          </CharString>
          <CharString index="103">
            -36 30 -30 36 36 29 30 36 36 -29 29 -36 -36 -30 -29 -36 vhcurveto
            return
          </CharString>
          <CharString index="104">
            -221 84 -147 193 vhcurveto
            200 hlineto
            151 103 109 259 215 -51 149 -203 hvcurveto
            -200 hlineto
            -229 -48 -169 -195 hvcurveto
            return
          </CharString>
          <CharString index="105">
            215 74 45 89 vhcurveto
            200 hlineto
            131 9 -140 -120 -204 -60 -60 -90 hvcurveto
            -190 hlineto
            -114 -49 105 159 hvcurveto
            return
          </CharString>
          <CharString index="106">
            211 -208 93 98 -111 110 110 108 -97 95 rlineto
            return
          </CharString>
          <CharString index="107">
            292 93 -292 hlineto
            return
          </CharString>
          <CharString index="108">
            -57 46 -45 56 56 45 45 57 57 -45 46 -56 -56 -46 -46 -57 vhcurveto
            return
          </CharString>
          <CharString index="109">
            109 0 113 143 -145 0 rlineto
            return
          </CharString>
          <CharString index="110">
            -79 61 vlineto
            92 29 44 102 hvcurveto
            -117 hlineto
            0 -38 0 -2 -28 -12 rrcurveto
            return
          </CharString>
          <CharString index="111">
            79 13 0 -365 146 0 0 487 -144 0 -81 -55 rlineto
            return
          </CharString>
          <CharString index="112">
            -126 45 -49 137 140 43 44 131 140 -47 45 -136 -135 -47 -41 -144 vhcurveto
            return
          </CharString>
          <CharString index="113">
            62 0 14 36 37 0 -11 -65 -63 -3 -5 -34 -32 -4 8 60 vhcurveto
            return
          </CharString>
          <CharString index="114">
            93 -98 211 208 -206 203 -97 -95 110 -108 rlineto
            return
          </CharString>
          <CharString index="115">
            131 0 466 770 -131 0 rlineto
            return
          </CharString>
          <CharString index="116">
            23 -66 222 0 0 -78 146 0 0 78 40 22 0 112 -40 0 0 138 -125 0 -21 -51 0 -87 -60 0 105 273 -149 0 rlineto
            return
          </CharString>
          <CharString index="117">
            152 hlineto
            56 23 -3 -25 hvcurveto
            0 -47 -172 -127 -55 -34 rrcurveto
            -127 373 131 -157 vlineto
            47 36 110 86 0 88 0 89 -51 64 -111 0 rrcurveto
            return
          </CharString>
          <CharString index="118">
            -102 0 -55 -9 -58 -13 rrcurveto
            return
          </CharString>
          <CharString index="119">
            158 hlineto
            36 29 0 -24 hvcurveto
            -5 vlineto
            0 -22 -17 0 -48 -1 rrcurveto
            return
          </CharString>
          <CharString index="120">
            -112 -8 0 -118 rlineto
            return
          </CharString>
          <CharString index="121">
            112 -5 rlineto
            44 -1 19 -2 0 -21 rrcurveto
            -4 vlineto
            -22 -14 0 -53 vhcurveto
            return
          </CharString>
          <CharString index="122">
            -149 0 -1 -110 rlineto
            return
          </CharString>
          <CharString index="123">
            63 -23 80 2 81 0 rrcurveto
            87 52 45 80 hvcurveto
            19 vlineto
            0 51 -16 39 -47 13 46 15 17 33 0 49 rrcurveto
            26 vlineto
            0 79 -56 44 -78 1 rrcurveto
            return
          </CharString>
          <CharString index="124">
            115 -5 81 12 86 23 rrcurveto
            145 vlineto
            return
          </CharString>
          <CharString index="125">
            19 15 15 19 19 14 -15 -19 -19 -14 -14 -19 -19 -15 14 19 vhcurveto
            return
          </CharString>
          <CharString index="126">
            -249 11 0 44 rlineto
            27 0 29 52 vhcurveto
            return
          </CharString>
          <CharString index="127">
            0 -153 131.299804688 -13 64.7001953125 2 rrcurveto
            return
          </CharString>
          <CharString index="128">
            -117 16 -210 0 0 0 rrcurveto
            -70.7001953125 -115.299804688 -19.2265625 -150.7734375 hvcurveto
            return
          </CharString>
          <CharString index="129">
            65 -336 343 hlineto
            167 82 107 256 207 -50 162 -199 hvcurveto
            -343 -322 -65 hlineto
            return
          </CharString>
          <CharString index="130">
            172 89 74 -89 158 129 vlineto
            47 28 -23 -181 -141 -18 -59 -57 hvcurveto
            return
          </CharString>
          <CharString index="131">
            -14 10 -9 14 vhcurveto
            93 hlineto
            14 11 5 18 hvcurveto
            77 vlineto
            16 -7 9 -18 vhcurveto
            -93 hlineto
            -16 -8 -10 -15 hvcurveto
            return
          </CharString>
          <CharString index="132">
            -20 13 -12 20 vhcurveto
            144 hlineto
            20 15 8 24 hvcurveto
            150 vlineto
            22 -10 13 -25 vhcurveto
            -144 hlineto
            -22 -11 -14 -21 hvcurveto
            return
          </CharString>
          <CharString index="133">
            -15 6 -12 18 vhcurveto
            111 hlineto
            16 9 9 18 hvcurveto
            114 vlineto
            17 -11 8 -14 vhcurveto
            -11 15 hlineto
            10 1 21 30 vhcurveto
            72 vlineto
            0 -155 35 -132 hvcurveto
            return
          </CharString>
          <CharString index="134">
            -17 11 -8 14 vhcurveto
            return
          </CharString>
          <CharString index="135">
            11 -15 hlineto
            -10 -1 -21 -30 vhcurveto
            -72 vlineto
            0 155 -35 132 hvcurveto
            return
          </CharString>
          <CharString index="136">
            160 vlineto
            15 -6 12 -18 vhcurveto
            -111 hlineto
            -16 -9 -9 -18 hvcurveto
            return
          </CharString>
          <CharString index="137">
            -80 45 -48 95 vhcurveto
            120 hlineto
            87 48 49 79 hvcurveto
            231 vlineto
            69 -30 59 -105 vhcurveto
            -119 hlineto
            -91 -50 -48 -86 hvcurveto
            return
          </CharString>
          <CharString index="138">
            156 vlineto
            8 -6 26 39 vhcurveto
            38 hlineto
            18 14 -7 -27 hvcurveto
            -157 vlineto
            -32 -15 -2 -22 vhcurveto
            -28 hlineto
            -14 -24 2 33 hvcurveto
            return
          </CharString>
          <CharString index="139">
            68 hlineto
            25 0 -6 -21 hvcurveto
            -10 vlineto
            -18 -7 -4 -22 vhcurveto
            -11 hlineto
            -43 -10 7 52 hvcurveto
            return
          </CharString>
          <CharString index="140">
            217 0 -153 -356 158 0 184 428 -36 59 -370 0 rlineto
            return
          </CharString>
          <CharString index="141">
            21 vlineto
            14 3 10 28 vhcurveto
            36 hlineto
            26 4 -10 -14 hvcurveto
            -21 vlineto
            -14 -2 -10 -29 vhcurveto
            -35 hlineto
            -23 -8 6 18 hvcurveto
            return
          </CharString>
          <CharString index="142">
            15 vlineto
            23 11 1 20 vhcurveto
            35 hlineto
            16 15 0 -24 hvcurveto
            -15 vlineto
            -15 -2 -7 -29 vhcurveto
            -35 hlineto
            -23 -8 3 19 hvcurveto
            return
          </CharString>
          <CharString index="143">
            -76 27 -56 110 vhcurveto
            56 0 21 2 25 14 rrcurveto
            -42 0 -31 -65 vhcurveto
            -156 -112 hlineto
            68 -13 101 -13 73 12 65 10 60 47 0 182 rrcurveto
            216 -56 48 -89 vhcurveto
            -100 hlineto
            -85 -55 -34 -91 hvcurveto
            return
          </CharString>
          <CharString index="144">
            10 vlineto
            20 7 5 22 vhcurveto
            11 hlineto
            43 10 -8 -57 hvcurveto
            -67 hlineto
            -25 -1 7 23 hvcurveto
            return
          </CharString>
          <CharString index="145">
            158 hlineto
            36 29 0 -24 hvcurveto
            -4 vlineto
            0 -22 -17 0 -48 -1 rrcurveto
            return
          </CharString>
          <CharString index="146">
            63 -23 80 2 81 0 rrcurveto
            87 52 45 80 hvcurveto
            19 vlineto
            0 51 -16 39 -47 13 46 15 17 33 0 49 rrcurveto
            26 vlineto
            0 80 -56 43 -78 1 rrcurveto
            return
          </CharString>
          <CharString index="147">
            -210 56 -46 89 vhcurveto
            101 hlineto
            85 54 33 89 hvcurveto
            62 vlineto
            74 -26 55 -110 vhcurveto
            -57 0 -21 -2 -25 -14 rrcurveto
            38 0 29 65 vhcurveto
            156 111 hlineto
            -68 13 -101 13 -73 -12 -65 -9 -60 -47 0 -177 rrcurveto
            return
          </CharString>
          <CharString index="148">
            473 155 -473 hlineto
            return
          </CharString>
          <CharString index="149">
            696 155 -696 hlineto
            return
          </CharString>
          <CharString index="150">
            -68 45 -46 69 71 45 46 68 vhcurveto
            -67 hlineto
            -28 -11 -19 -38 -32 -15 17 30 vhcurveto
            return
          </CharString>
          <CharString index="151">
            -136 -78 119 -147 99 34 rrcurveto
            90 vlineto
            -36 -6 -54 54 77 53 rrcurveto
            return
          </CharString>
          <CharString index="152">
            91 -140 131 0 100 140 -112 0 -50 -51 -49 51 rlineto
            return
          </CharString>
          <CharString index="153">
            -14 10 -9 14 vhcurveto
            90 hlineto
            14 9 8 15 hvcurveto
            94 vlineto
            14 -8 11 -15 vhcurveto
            -90 hlineto
            -16 -8 -10 -15 hvcurveto
            return
          </CharString>
          <CharString index="154">
            11 -134 93 0 10 134 0 67 -114 0 rlineto
            return
          </CharString>
          <CharString index="155">
            -47 8 -165 190 vhcurveto
            90 hlineto
            44 9 -15 -29 hvcurveto
            -16 vlineto
            -30 -16 -11 -43 vhcurveto
            -93 0 -126 7 -40 4 rrcurveto
            -151 vlineto
            100 -34 22 0 187 0 rrcurveto
            99 104 38 186 hvcurveto
            33 vlineto
            80 -35 132 -152 vhcurveto
            -94 hlineto
            -54 -6 17 31 hvcurveto
            11 vlineto
            42 20 2 54 vhcurveto
            66 0 110 -3 64 -7 rrcurveto
            151 vlineto
            -74 27 -88.234375 15.2353515625 -147.765625 -9.2353515625 -112 -7 -86 -60 0 -131 rrcurveto
            return
          </CharString>
          <CharString index="156">
            113 16 14 28 vhcurveto
            25 0 31 -4 10 -11 rrcurveto
            -212 vlineto
            -10 -17 -25 -5 -31 0 rrcurveto
            -29 -15 13 109 hvcurveto
            return
          </CharString>
          <CharString index="157">
            404 hlineto
            61 42 -42 -77 hvcurveto
            -412 vlineto
            -68 -21 -45 -82 vhcurveto
            -319 hlineto
            -40 -54 23 90 hvcurveto
            238 vlineto
            80 46 10 48 vhcurveto
            178 hlineto
            31 13 -5 -33 hvcurveto
            1 -1 -1 -15 0 0 rrcurveto
            -1 -66 1 -37 -100 -59 -45 -98 vhcurveto
            -33 vlineto
            -68 34 -79 94 vhcurveto
            91 0 43 63 2 0 rrcurveto
            24 -54 118 0 0 342 rlineto
            158 -97 12 -96 vhcurveto
            -173 hlineto
            -176 -62 -98 -126 hvcurveto
            return
          </CharString>
          <CharString index="158">
            -1 1 0 10 1 1 0 24 9 3 21 2 rrcurveto
            78 6 0 -43 rlineto
            -13 -30 -31 -4 -29 0 -27 0 -8 9 0 21 rrcurveto
            return
          </CharString>
          <CharString index="159">
            -192 50 -86 153 vhcurveto
            45 0 30 10 22 28 rrcurveto
            -68 vlineto
            -64 -32 -31 -53 vhcurveto
            -198 -129 hlineto
            228 -24 rlineto
            173 -18 76 120 0 146 rrcurveto
            531 vlineto
            -54 22 -131 14 -106 0 rrcurveto
            -125 -78 -70 -189 hvcurveto
            return
          </CharString>
          <CharString index="160">
            60 1 58 58 vhcurveto
            47 -244 hlineto
            -12 -15 -17 -4 -20 0 rrcurveto
            -52 -5 33 112 hvcurveto
            return
          </CharString>
          <CharString index="161">
            -11 7 -6 11 vhcurveto
            113 hlineto
            11 6 6 11 hvcurveto
            88 vlineto
            11 -6 8 -11 vhcurveto
            -113 hlineto
            -12 -6 -8 -11 hvcurveto
            return
          </CharString>
          <CharString index="162">
            60 0 44 -38 45 0 62 0 45 36 35 39 rrcurveto
            -27 79 rlineto
            -40 -27 -26 -12 -47 0 rrcurveto
            return
          </CharString>
          <CharString index="163">
            0 -70 35 -38 28 -12 rrcurveto
            -52 -35 0 -53 rlineto
            -106 76 -48 94 vhcurveto
            150 hlineto
            131 49 64 90 hvcurveto
            53 vlineto
            127 -73 46 -107 vhcurveto
            -122 hlineto
            -22.0908203125 -17.9091796875 0 21 21 24 -3 16 hvcurveto
            96 hlineto
            return
          </CharString>
          <CharString index="164">
            25.068359375 -0.759765625 13.931640625 -15.240234375 0 -16 rrcurveto
            -23 vlineto
            -18 3 -18 -43 vhcurveto
            -28 hlineto
            -35 -9 5 36 hvcurveto
            return
          </CharString>
          <CharString index="165">
            27 3 18 36 vhcurveto
            24 hlineto
            25 19 -1.9541015625 -43.0458984375 -49 -12 -2 -31 hvcurveto
            -22 hlineto
            -27 -15 2 49 hvcurveto
            return
          </CharString>
          <CharString index="166">
            -15.2998046875 9.8994140625 -7.2001953125 12.6005859375 vhcurveto
            9.8994140625 -4.5 hlineto
            0 -9 -0.8994140625 -10.7998046875 -27 0.8994140625 rrcurveto
            -55.7998046875 vlineto
            0 139.5 -42.2998046875 111.599609375 hvcurveto
            135 vlineto
            13.5 -5.400390625 10.80078125 -16.2001953125 vhcurveto
            -99.8994140625 hlineto
            -14.400390625 -8.099609375 -8.1005859375 -16.2001953125 hvcurveto
            return
          </CharString>
          <CharString index="167">
            1.52587890625e-05 -13.5 5.39999389648 -10.800994873 16.1999969482 0 rrcurveto
            99.8999938965 hlineto
            14.4000091553 8.10000610352 8.1009979248 16.1999969482 hvcurveto
            102.598999023 vlineto
            1.52587890625e-05 15.3000030518 -9.90000915527 7.19999694824 -12.5999908447 0 rrcurveto
            -9.89999389648 4.5 hlineto
            0 9 0.900009155273 10.8000030518 27 -0.899002075195 rrcurveto
            55.8000030518 vlineto
            1.52587890625e-05 -1.52587890625e-05 -139.5 42.2989959717 0 -111.598999023 rrcurveto
            return
          </CharString>
          <CharString index="168">
            131 0 252 570 -125 0 rlineto
            return
          </CharString>
          <CharString index="169">
            -85 40 -50 98 vhcurveto
            100 hlineto
            101 38 50 85 hvcurveto
            113 vlineto
            return
          </CharString>
          <CharString index="170">
            85 -39 50 -98 vhcurveto
            -100 hlineto
            -101 -39 -50 -85 hvcurveto
            return
          </CharString>
          <CharString index="171">
            53 vlineto
            34 17 6 22 vhcurveto
            52 hlineto
            25 11 -7 -33 hvcurveto
            -53 vlineto
            -22 -4 -18 -34 vhcurveto
            -52 hlineto
            -33 -4 18 22 hvcurveto
            return
          </CharString>
          <CharString index="172">
            201 0 24 87 133 0 22 -87 201 0 -164 570 -244 0 rlineto
            return
          </CharString>
          <CharString index="173">
            31 113 28 -113 rlineto
            return
          </CharString>
          <CharString index="174">
            274 hlineto
            126 81 25 137 hvcurveto
            0 83 -46 40 -49 6 rrcurveto
            49 43 40 87 121 -80 32 -124 hvcurveto
            -274 hlineto
            return
          </CharString>
          <CharString index="175">
            78 60 vlineto
            20 10 -10 -28 -36 -14 -4 -16 hvcurveto
            return
          </CharString>
          <CharString index="176">
            60 60 vlineto
            25 5 -12 -17 -21 -7 -10 -23 hvcurveto
            return
          </CharString>
          <CharString index="177">
            -176 26 -123 208 vhcurveto
            116 0 38 -1 72 37 rrcurveto
            127 vlineto
            0 -82 -19 -84 vhcurveto
            -115 2 15 71 0 82 0 98 -2 41 102 0 65 0 86 -17 15 -3 rrcurveto
            129 vlineto
            -74 32 -50 3 -102 0 rrcurveto
            -184 -50 -99 -184 hvcurveto
            return
          </CharString>
          <CharString index="178">
            287 hlineto
            94 125 -10 293 hvcurveto
            0 156 -35 131 -184 2 rrcurveto
            -287 hlineto
            return
          </CharString>
          <CharString index="179">
            244 65 vlineto
            36 17 -31 -94 -62 -3 -57 -50 hvcurveto
            return
          </CharString>
          <CharString index="180">
            0 -87 49 -36 75 -2 rrcurveto
            return
          </CharString>
          <CharString index="181">
            0 0 203 -8 114 26 rrcurveto
            146 vlineto
            return
          </CharString>
          <CharString index="182">
            -211 hlineto
            -21 -15 3 29 hvcurveto
            0 12 rlineto
            return
          </CharString>
          <CharString index="183">
            206 7 0 141 rlineto
            return
          </CharString>
          <CharString index="184">
            -206 8 0 13 rlineto
            24 2 9 30 vhcurveto
            return
          </CharString>
          <CharString index="185">
            215 146 hlineto
            return
          </CharString>
          <CharString index="186">
            -93 17 -204 0 0 0 -79 -2 -65 -31 0 -97 rrcurveto
            return
          </CharString>
          <CharString index="187">
            -206 8 0 33 rlineto
            24 2 9 30 vhcurveto
            return
          </CharString>
          <CharString index="188">
            -93 17 -204 0 0 0 -84 -2 -60 -31 0 -97 rrcurveto
            return
          </CharString>
          <CharString index="189">
            -50 -14 -243 197 vhcurveto
            79 0 24 15 21 36 rrcurveto
            return
          </CharString>
          <CharString index="190">
            45 -44 146 0 0 343 rlineto
            -24 2 -22 1 -21 0 -81 0 -44 -4 -40 -11 rrcurveto
            -99 38 -24 vlineto
            return
          </CharString>
          <CharString index="191">
            -28 -20 -14 -31 vhcurveto
            -72 1 13 67 0 54 0 146 21 1 78 0 56 0 44 -1 91 -12 rrcurveto
            132 vlineto
            -67 26 -125 5 -99 -6 rrcurveto
            -150 -9 -43 -100 0 -184 rrcurveto
            return
          </CharString>
          <CharString index="192">
            194 189 111 -189 194 571 -194 -208 -111 208 -194 hlineto
            return
          </CharString>
          <CharString index="193">
            194 570 -194 hlineto
            return
          </CharString>
          <CharString index="194">
            49 -29 100 -10 74 33 56 25 7 79 0 46 rrcurveto
            405 -194 -325 vlineto
            -43 3 -27 -95 vhcurveto
            return
          </CharString>
          <CharString index="195">
            184 203 41 hlineto
            95 -203 213 0 -136 281 136 290 -213 0 -93 -214 -43 0 0 214 -184 0 rlineto
            return
          </CharString>
          <CharString index="196">
            -104 67 -42 79 vhcurveto
            296 174 -170 hlineto
            -47 -31 -1 68 hvcurveto
            329 -194 vlineto
            return
          </CharString>
          <CharString index="197">
            197 0 26 291 42 -291 205 0 39 293 30 -293 191 0 -52 571 -255 0 -57 -312 -58 312 -255 0 rlineto
            return
          </CharString>
          <CharString index="198">
            194 225 hlineto
            139 -225 190 0 0 571 -193 0 0 -220 -139 220 -191 0 rlineto
            return
          </CharString>
          <CharString index="199">
            -249 103 -36 161 168 97 47 245 256 -102 32 -163 -166 -98 -51 -244 vhcurveto
            return
          </CharString>
          <CharString index="200">
            101 13 15 57 65 6 -15 -99 -94 -8 -24 -63 -67 -3 24 92 vhcurveto
            return
          </CharString>
          <CharString index="201">
            194 186 hlineto
            4 -7 70 -7 33 1 65 2 107 16 0 186 rrcurveto
            154 -75 38 -117 vhcurveto
            -281 hlineto
            return
          </CharString>
          <CharString index="202">
            108 53 vlineto
            31 1 -22 -34 -38 -9 -14 -23 hvcurveto
            return
          </CharString>
          <CharString index="203">
            194 186 hlineto
            38 -4 65 -182 204 0 -92 197 rlineto
            36 22 28 42 0 116 rrcurveto
            154 -85 38 -117 vhcurveto
            -271 hlineto
            return
          </CharString>
          <CharString index="204">
            -96 33 -70 125 vhcurveto
            100 hlineto
            16 10 -3 -17 hvcurveto
            -14 vlineto
            0 -1 -20 -25 -104 -132 7 0 vhcurveto
            -135 vlineto
            42 -28 219 2 45 0 rrcurveto
            92 58 41 127 hvcurveto
            30 vlineto
            90 -22 84 -128 vhcurveto
            -110 hlineto
            -19 -5 8 14 hvcurveto
            12 vlineto
            14 8 10 16 114 119 -9 0 vhcurveto
            137 vlineto
            -89 22 -142 3 -52 0 rrcurveto
            -136 -32 -83 -89 hvcurveto
            return
          </CharString>
          <CharString index="205">
            146 -396 194 396 146 174 -486 hlineto
            return
          </CharString>
          <CharString index="206">
            -1 -239 124 -26 136 0 rrcurveto
            121 133 32 233 hvcurveto
            310 -195 -310 vlineto
            -76 -19 -15 -40 -36 -28 11 80 vhcurveto
            310 -195 vlineto
            return
          </CharString>
          <CharString index="207">
            143 -570 244 0 23 99 23 -99 244 0 134 570 -201 0 -56 -344 -64 212 31 132 -201 0 -56 -344 -63 344 rlineto
            return
          </CharString>
          <CharString index="208">
            192 -370 0 -201 194 0 0 201 190 370 -211 0 -75 -162 -79 162 rlineto
            return
          </CharString>
          <CharString index="209">
            466 174 -204 hlineto
            204 222 0 174 -466 0 0 -174 218 0 -218 -222 rlineto
            return
          </CharString>
          <CharString index="210">
            55 -253 287 hlineto
            94 125 -10 293 hvcurveto
            0 156 -35 131 -184 2 rrcurveto
            -287 -245 -55 hlineto
            return
          </CharString>
          <CharString index="211">
            89 65 74 -65 81 65 vlineto
            36 17 -31 -94 -62 -3 -57 -50 hvcurveto
            return
          </CharString>
          <CharString index="212">
            10 -15 hlineto
            -10 0 -21 -30 vhcurveto
            -72 vlineto
            0 154 -35 132 hvcurveto
            return
          </CharString>
          <CharString index="213">
            160 vlineto
            15 -6 12 -18 vhcurveto
            -110 hlineto
            -16 -10 -9 -18 hvcurveto
            return
          </CharString>
          <CharString index="214">
            12 -15 hlineto
            -10 -2 -21 -30 vhcurveto
            -72 vlineto
            0 156 -35 132 hvcurveto
            return
          </CharString>
          <CharString index="215">
            160 vlineto
            15 -6 12 -18 vhcurveto
            -112 hlineto
            -16 -8 -9 -18 hvcurveto
            return
          </CharString>
          <CharString index="216">
            195 562 hlineto
            0 17 23 6 2 -16 rrcurveto
            43 -416 rlineto
            23 -226 379 26 0 212 rrcurveto
            567 -194 -547 vlineto
            0 -15 -22 -8 -2 20 rrcurveto
            -43 411 rlineto
            -21 201 -383 2 0 -227 rrcurveto
            return
          </CharString>
          <CharString index="217">
            193 0 14 496 rlineto
            1 17 25 7 0 -17 rrcurveto
            4 -230 rlineto
            11 -163 341 8 12 152 rrcurveto
            3 222 rlineto
            0 16 25 7 1 -17 rrcurveto
            19 -498 196 0 -35 612 rlineto
            -10 169 -369 1 0 -200 rrcurveto
            -242 vlineto
            0 -16 -31 -4 0 20 rrcurveto
            238 vlineto
            0 204 -362 0 -9 -182 rrcurveto
            return
          </CharString>
          <CharString index="218">
            194 359 hlineto
            16 25 31 2 24 0 rrcurveto
            33 2 -16 -40 hvcurveto
            -330 194 338 vlineto
            21 vlineto
            16 25 31 2 24 0 rrcurveto
            33 2 -16 -40 hvcurveto
            -330 194 370 vlineto
            96 -48 74 -106 vhcurveto
            -69 0 -68 -12 -55 -28 -25 25 -66 15 -47 0 -166 0 -54 -9 -90 -68 rrcurveto
            return
          </CharString>
          <CharString index="219">
            194 359 hlineto
            16 25 31 2 24 0 rrcurveto
            33 2 -16 -40 hvcurveto
            -330 194 370 vlineto
            96 -68 74 -106 vhcurveto
            -166 0 -64 -9 -90 -68 rrcurveto
            return
          </CharString>
          <CharString index="220">
            194 369 hlineto
            35 17 73 0 57 -13 rrcurveto
            165 vlineto
            -163 14 -129 -10 -67 -69 rrcurveto
            return
          </CharString>
          <CharString index="221">
            -113 70 -38 107 vhcurveto
            144 hlineto
            106 49 51 125 hvcurveto
            86 vlineto
            160 -23 115 -173 vhcurveto
            -122 0 -36 4 -111 -43 rrcurveto
            -111 vlineto
            84 11 39 1 43 0 rrcurveto
            89 16 -2 -70 hvcurveto
            -105 hlineto
            -170 -7 -75 -77 hvcurveto
            return
          </CharString>
          <CharString index="222">
            4 vlineto
            0 25 3 12 30 2 rrcurveto
            55 4 0 -50 rlineto
            -32 -14 -2 -19 vhcurveto
            -21 hlineto
            -28 -6 6 31 hvcurveto
            return
          </CharString>
          <CharString index="223">
            -96 52 -74 142 vhcurveto
            166 0 70 16 64 61 rrcurveto
            463 -194 -359 vlineto
            -16 -25 -31 -2 -24 0 rrcurveto
            -33 -2 16 40 hvcurveto
            330 -194 vlineto
            return
          </CharString>
          <CharString index="224">
            56 -40 142 4 93 0 rrcurveto
            125 78 69 200 192 -50 86 -153 hvcurveto
            -45 0 -30 -10 -22 -29 rrcurveto
            281 -194 vlineto
            return
          </CharString>
          <CharString index="225">
            254 vlineto
            12 15 17 4 20 0 rrcurveto
            52 5 -33 -112 -60 -1 -68 -58 hvcurveto
            return
          </CharString>
          <CharString index="226">
            -200 78 -69 125 vhcurveto
            93 0 142 -4 56 40 rrcurveto
            754 -194 -282 vlineto
            -22 29 -30 10 -45 0 rrcurveto
            -153 -50 -86 -192 hvcurveto
            return
          </CharString>
          <CharString index="227">
            112 5 33 52 vhcurveto
            20 0 17 -4 12 -15 rrcurveto
            -254 -47 vlineto
            -58 -1 68 60 hvcurveto
            return
          </CharString>
          <CharString index="228">
            194 397 97 134 -97 39 hlineto
            74 2 10 45 vhcurveto
            0 92 -1 1 vhcurveto
            109 vlineto
            -48 20 -48 4 -64 0 rrcurveto
            -154 -20 -122 -54 hvcurveto
            return
          </CharString>
          <CharString index="229">
            194 299 hlineto
            22 -29 30 -10 45 0 rrcurveto
            153 50 86 192 200 -78 69 -125 hvcurveto
            -106 0 -131 -14 -54 -22 rrcurveto
            return
          </CharString>
          <CharString index="230">
            254 47 vlineto
            58 1 -68 -60 -112 -5 -33 -52 hvcurveto
            -20 0 -17 4 -12 15 rrcurveto
            return
          </CharString>
          <CharString index="231">
            -151 55 -40 74 vhcurveto
            return
          </CharString>
          <CharString index="232">
            150 113 hlineto
            -7 -42 21 0 hvcurveto
            return
          </CharString>
          <CharString index="233">
            -22 12 -14 14 0 71 rrcurveto
            168 vlineto
            return
          </CharString>
          <CharString index="234">
            -85 148 -194 hlineto
            return
          </CharString>
        <CharString name=".notdef">
          157 0 13 505 13 hstem
          56 14 530 14 vstem
          600 506 rmoveto
          0 -481 -252 241 rlineto
          -265 -253 rmoveto
          254 243 253 -243 rlineto
          -520 9 rmoveto
          0 485 256 -241 rlineto
          265 252 rmoveto
          -254 -242 -257 242 rlineto
          -24 -518 rmoveto
          558 531 -558 hlineto
          endchar
        </CharString>
        <CharString name="A">
          198 21 -21 128 165 439 -20 hstem
          25 hmoveto
          -74 callsubr
          56 -439 rmoveto
          -73 callsubr
          endchar
        </CharString>
        <CharString name="AE">
          468 -3 179 -162 162 96 181 -172 161 111 179 -179 163 hstemhm
          hintmask 10000000
          17 hmoveto
          215 0 84 167 147 0 0 -46 rlineto
          0 -113 126 -15 70 4 rrcurveto
          hintmask 01000000
          0 0 194 3 103 14 rrcurveto
          162 vlineto
          hintmask 10100000
          -237 hlineto
          -29 -33 -1 53 hvcurveto
          0 44 rlineto
          hintmask 00010000
          249 9 0 161 rlineto
          hintmask 00101000
          19 callsubr
          hintmask 00000100
          247 163 hlineto
          hintmask 10001000
          -117 16 -190 0 0 0 -139 7 -141 -22 -81 -165 rrcurveto
          106 -221 rmoveto
          69 151 0 -151 rlineto
          endchar
        </CharString>
        <CharString name="Aacute">
          198 0 21 107 165 419 20 65 143 hstem
          314 222 vstem
          314 797 rmoveto
          2 callsubr
          -366 -940 rmoveto
          -74 callsubr
          56 -439 rmoveto
          -73 callsubr
          endchar
        </CharString>
        <CharString name="Abreve">
          198 0 21 107 165 419 20 65 67 hstem
          253.5 67 96 67 vstem
          253.5 911 rmoveto
          43 callsubr
          -295.5 -911 rmoveto
          -74 callsubr
          56 -439 rmoveto
          -73 callsubr
          endchar
        </CharString>
        <CharString name="Acircumflex">
          198 0 21 107 165 419 20 65 140 hstem
          207.5 322 vstem
          207.5 797 rmoveto
          -42 callsubr
          0 vmoveto
          131 hmoveto
          -413.5 -937 rmoveto
          -74 callsubr
          56 -439 rmoveto
          -73 callsubr
          endchar
        </CharString>
        <CharString name="Adieresis">
          198 0 21 107 165 419 20 65 131 hstem
          175.5 131 124 131 vstem
          175.5 863 rmoveto
          -4 callsubr
          255 hmoveto
          -4 callsubr
          -405.5 -863 rmoveto
          -74 callsubr
          56 -439 rmoveto
          -73 callsubr
          endchar
        </CharString>
        <CharString name="Agrave">
          198 0 21 107 165 419 20 65 143 hstem
          201 222 vstem
          201 940 rmoveto
          -41 callsubr
          -321 -940 rmoveto
          -74 callsubr
          56 -439 rmoveto
          -73 callsubr
          endchar
        </CharString>
        <CharString name="Amacron">
          198 0 21 107 165 419 20 65 93 hstem
          222.5 292 vstem
          222.5 797 rmoveto
          0 callsubr
          -197.5 -890 rmoveto
          -74 callsubr
          56 -439 rmoveto
          -73 callsubr
          endchar
        </CharString>
        <CharString name="Aogonek">
          198 -18.466003418 20 -1.53399658203 21 107 165 419 20 hstemhm
          hintmask 00000000
          575 1.5341796875 rmoveto
          44 callsubr
          hintmask 01110000
          -619 -1.5341796875 rmoveto
          -74 callsubr
          56 -439 rmoveto
          -73 callsubr
          endchar
        </CharString>
        <CharString name="Aring">
          198 0 21 107 165 419 20 -1.83299255371 69 67 69 hstemhm
          267 68 67 68 hintmask 00011110
          267 832.166992188 rmoveto
          1 callsubr
          68 hmoveto
          18 callsubr
          hintmask 11100000
          -310 -832.166992188 rmoveto
          -74 callsubr
          56 -439 rmoveto
          -73 callsubr
          endchar
        </CharString>
        <CharString name="Atilde">
          198 0 21 107 165 419 20 65 106 -71 106 hstemhm
          hintmask 00010000
          194.5 864 rmoveto
          27 -67 rlineto
          hintmask 00001000
          -7 callsubr
          hintmask 00010000
          -6 callsubr
          hintmask 00001000
          -5 callsubr
          hintmask 11100000
          -169.5 -864 rmoveto
          -74 callsubr
          56 -439 rmoveto
          -73 callsubr
          endchar
        </CharString>
        <CharString name="B">
          98 0 164 142 154 108 164 hstemhm
          45 194 154 190 -176 194 hintmask 11110100
          45 hmoveto
          -72 callsubr
          hintmask 11111000
          -71 callsubr
          194 -568 rmoveto
          142 119 vlineto
          hintmask 11110100
          39 10 -35 -37 -44 -11 -26 -38 hvcurveto
          -119 296 rmoveto
          108 109 vlineto
          hintmask 11111000
          22 23 -13 -44 -28 -15 -23 -30 hvcurveto
          endchar
        </CharString>
        <CharString name="C">
          54 -6 174 398 174 hstem
          31 194 vstem
          31 368 rmoveto
          -70 callsubr
          endchar
        </CharString>
        <CharString name="Cacute">
          54 -6 174 398 174 60 143 hstem
          31 194 54.5 222 vstem
          279.5 800 rmoveto
          2 callsubr
          -325.5 -575 rmoveto
          -70 callsubr
          endchar
        </CharString>
        <CharString name="Ccaron">
          54 -6 174 398 174 60 140 hstemhm
          31 194 -44 322 hintmask 00101000
          181 940 rmoveto
          45 callsubr
          -20 -140 rmoveto
          131 hmoveto
          hintmask 11010000
          -372 -432 rmoveto
          -70 callsubr
          endchar
        </CharString>
        <CharString name="Ccedilla">
          54 -182 146 30 174 398 174 hstemhm
          31 194 -38 182 hintmask 01110000
          31 368 rmoveto
          -70 callsubr
          hintmask 10001000
          156 -471 rmoveto
          3 callsubr
          endchar
        </CharString>
        <CharString name="Ccircumflex">
          54 -6 174 398 174 60 140 hstemhm
          31 194 -54 322 hintmask 00101000
          171 800 rmoveto
          -42 callsubr
          0 vmoveto
          131 hmoveto
          hintmask 11010000
          -371 -572 rmoveto
          -70 callsubr
          endchar
        </CharString>
        <CharString name="Cdotaccent">
          54 -6 174 398 174 60 142 hstem
          31 194 31 137 vstem
          256 823 rmoveto
          46 callsubr
          -225 -549 rmoveto
          -70 callsubr
          endchar
        </CharString>
        <CharString name="D">
          154 0 164 404 164 hstem
          45 194 204 194 vstem
          45 hmoveto
          -69 callsubr
          194 -568 rmoveto
          -68 callsubr
          endchar
        </CharString>
        <CharString name="Dcaron">
          154 0 164 404 164 65 140 hstemhm
          45 194 -82 322 -36 194 hintmask 00101000
          157 937 rmoveto
          45 callsubr
          -20 -140 rmoveto
          131 hmoveto
          hintmask 11010100
          -334 -797 rmoveto
          -69 callsubr
          194 -568 rmoveto
          -68 callsubr
          endchar
        </CharString>
        <CharString name="Dcroat">
          154 0 164 172 74 158 164 hstem
          45 194 204 194 vstem
          -20 336 rmoveto
          22 callsubr
          259 -246 rmoveto
          23 callsubr
          endchar
        </CharString>
        <CharString name="E">
          54 -3 179 -162 162 96 181 -172 161 111 179 -179 163 hstemhm
          40 194 hintmask 10000010
          40 161 rmoveto
          0 -153 131.300003052 -13 64.6999969482 2 rrcurveto
          hintmask 01000010
          -67 callsubr
          hintmask 10100010
          -66 callsubr
          hintmask 00010010
          -65 callsubr
          hintmask 00101010
          -64 callsubr
          hintmask 00000110
          -63 callsubr
          hintmask 10001010
          -117 16 -210 0 0 0 rrcurveto
          -70.6999969482 -115.300003052 -19.2270050049 -150.772994995 hvcurveto
          endchar
        </CharString>
        <CharString name="Eacute">
          54 -3 179 -162 162 96 181 -172 161 111 163 -163 179 65 143 hstemhm
          40 194 32 222 hintmask 0000001010000000
          266 797 rmoveto
          2 callsubr
          hintmask 1000000100000000
          -303 -779 rmoveto
          20 callsubr
          hintmask 0100000100000000
          -67 callsubr
          hintmask 1010000100000000
          -66 callsubr
          hintmask 0001000100000000
          -65 callsubr
          hintmask 0010010100000000
          -64 callsubr
          hintmask 0000100100000000
          -63 callsubr
          hintmask 1000010100000000
          21 callsubr
          endchar
        </CharString>
        <CharString name="Ecaron">
          54 -3 179 -162 162 96 181 -172 161 111 163 -163 179 65 140 hstemhm
          40 194 -72 322 hintmask 0000001010000000
          162 937 rmoveto
          45 callsubr
          -20 -140 rmoveto
          131 hmoveto
          hintmask 1000000100000000
          -344 -636 rmoveto
          20 callsubr
          hintmask 0100000100000000
          -67 callsubr
          hintmask 1010000100000000
          -66 callsubr
          hintmask 0001000100000000
          -65 callsubr
          hintmask 0010010100000000
          -64 callsubr
          hintmask 0000100100000000
          -63 callsubr
          hintmask 1000010100000000
          21 callsubr
          endchar
        </CharString>
        <CharString name="Ecircumflex">
          54 -3 179 -162 162 96 181 -172 161 111 163 -163 179 65 140 hstemhm
          40 194 -76 322 hintmask 0000001010000000
          158 797 rmoveto
          -42 callsubr
          0 vmoveto
          131 hmoveto
          hintmask 1000000100000000
          -349 -776 rmoveto
          20 callsubr
          hintmask 0100000100000000
          -67 callsubr
          hintmask 1010000100000000
          -66 callsubr
          hintmask 0001000100000000
          -65 callsubr
          hintmask 0010010100000000
          -64 callsubr
          hintmask 0000100100000000
          -63 callsubr
          hintmask 1000010100000000
          21 callsubr
          endchar
        </CharString>
        <CharString name="Edieresis">
          54 -3 179 -162 162 96 181 -172 161 111 163 -163 179 65 131 hstemhm
          40 194 -118 131 124 131 hintmask 0000001011000000
          116 863 rmoveto
          -4 callsubr
          255 hmoveto
          -4 callsubr
          hintmask 1000000100000000
          -331 -702 rmoveto
          20 callsubr
          hintmask 0100000100000000
          -67 callsubr
          hintmask 1010000100000000
          -66 callsubr
          hintmask 0001000100000000
          -65 callsubr
          hintmask 0010010100000000
          -64 callsubr
          hintmask 0000100100000000
          -63 callsubr
          hintmask 1000010100000000
          21 callsubr
          endchar
        </CharString>
        <CharString name="Edotaccent">
          54 -3 179 -162 162 96 181 -172 161 111 163 -163 179 65 142 hstemhm
          40 194 26 137 hintmask 0000001010000000
          260 820 rmoveto
          46 callsubr
          hintmask 1000000100000000
          -220 -753 rmoveto
          20 callsubr
          hintmask 0100000100000000
          -67 callsubr
          hintmask 1010000100000000
          -66 callsubr
          hintmask 0001000100000000
          -65 callsubr
          hintmask 0010010100000000
          -64 callsubr
          hintmask 0000100100000000
          -63 callsubr
          hintmask 1000010100000000
          21 callsubr
          endchar
        </CharString>
        <CharString name="Egrave">
          54 -3 179 -162 162 96 181 -172 161 111 163 -163 179 66 143 hstemhm
          40 194 -79 222 hintmask 0000001010000000
          155 941 rmoveto
          -41 callsubr
          hintmask 1000000100000000
          -260 -780 rmoveto
          20 callsubr
          hintmask 0100000100000000
          -67 callsubr
          hintmask 1010000100000000
          -66 callsubr
          hintmask 0001000100000000
          -65 callsubr
          hintmask 0010010100000000
          -64 callsubr
          hintmask 0000100100000000
          -63 callsubr
          hintmask 1000010100000000
          21 callsubr
          endchar
        </CharString>
        <CharString name="Emacron">
          54 -3 179 -162 162 96 181 -172 161 111 163 -163 179 65 93 hstemhm
          40 194 -74 292 hintmask 0000001010000000
          160 797 rmoveto
          0 callsubr
          hintmask 1000000100000000
          -120 -729 rmoveto
          20 callsubr
          hintmask 0100000100000000
          -67 callsubr
          hintmask 1010000100000000
          -66 callsubr
          hintmask 0001000100000000
          -65 callsubr
          hintmask 0010010100000000
          -64 callsubr
          hintmask 0000100100000000
          -63 callsubr
          hintmask 1000010100000000
          21 callsubr
          endchar
        </CharString>
        <CharString name="Eng">
          164 -257 137 141 -21 732 -20 hstem
          45 195 210 194 vstem
          45 hmoveto
          195 364 hlineto
          210 -364 0 -60 rlineto
          0 -58 -39 -1 -51 -1 rrcurveto
          -137 vlineto
          120 -13 164 13 0 193 rrcurveto
          0 64 0 732 -194 0 0 -374 -209 374 -196 0 rlineto
          endchar
        </CharString>
        <CharString name="Eogonek">
          54 -5.20710754395 20 -17.7928924561 179 -162 162 96 181 -172 161 111 163 -163 179 hstemhm
          40 194 hintmask 10000000
          484 14.79296875 rmoveto
          44 callsubr
          hintmask 01000001
          -513 146.20703125 rmoveto
          20 callsubr
          hintmask 00100001
          -67 callsubr
          hintmask 01010001
          -66 callsubr
          hintmask 00001001
          -65 callsubr
          hintmask 00010011
          -64 callsubr
          hintmask 00000101
          -63 callsubr
          hintmask 01000011
          21 callsubr
          endchar
        </CharString>
        <CharString name="Eth">
          154 0 164 172 74 158 164 hstem
          45 194 204 194 vstem
          -20 336 rmoveto
          22 callsubr
          259 -246 rmoveto
          23 callsubr
          endchar
        </CharString>
        <CharString name="Euro">
          110 -6 154 90 101 -94 87 48 100 -92 83 105 164 hstemhm
          79 194 hintmask 10100110
          11 245 rmoveto
          hintmask 11000110
          68 -7 rlineto
          -226 177 -18 77 vhcurveto
          123 0 88 6 68 39 rrcurveto
          136 vlineto
          0 -133 -27 -86 -58 -62 -1 91 vhcurveto
          hintmask 10100110
          -3 2 237 5 0 0 rrcurveto
          0 87 rlineto
          hintmask 11010110
          -234 7 0 41 234 7 0 86 -234 7 rlineto
          67 -1 29 121 82 133 -15 0 vhcurveto
          139 vlineto
          -86 32 -137 8 -52 0 rrcurveto
          -244 -10 -188 -72 hvcurveto
          hintmask 10001110
          -68 -9 0 -83 rlineto
          hintmask 11010110
          68 -8 0 -41 rlineto
          hintmask 10100110
          -68 -7 rlineto
          endchar
        </CharString>
        <CharString name="Euro.smcp">
          9 -5 157 42 77 30 74 48 154 hstem
          9 194 rmoveto
          48 -6 rlineto
          -176 116 -17 97 vhcurveto
          65 0 123 5 46 23 rrcurveto
          142 vlineto
          0 -112 -13 -72 -30 -38 -5 41 vhcurveto
          -2 2 167 4 0 0 rrcurveto
          0 77 -165 5 0 19 165 5 0 76 -165 6 rlineto
          43 28 -2 40 64 117 -11 0 vhcurveto
          142 vlineto
          -88 16 -102 7 -41 0 rrcurveto
          -202 -11 -139 -56 hvcurveto
          -48 -7 0 -74 48 -6 0 -19 -48 -5 rlineto
          endchar
        </CharString>
        <CharString name="F">
          54 21 -21 272 181 -172 161 111 179 -179 163 hstemhm
          40 194 hintmask 11000100
          40 hmoveto
          194 272 hlineto
          hintmask 10100100
          -65 callsubr
          hintmask 11010100
          -64 callsubr
          hintmask 10001100
          -63 callsubr
          hintmask 11010100
          -117 16 -210 0 0 0 -84.6999969482 1 -101.300003052 -38 0 -137 rrcurveto
          endchar
        </CharString>
        <CharString name="G">
          102 21 -21 576 164 hstem
          31 194 166 194 vstem
          31 370 rmoveto
          -62 callsubr
          endchar
        </CharString>
        <CharString name="Gbreve">
          102 0 21 555 164 60 67 hstemhm
          31 194 -21 67 96 67 -43 194 hintmask 00101100
          204 914 rmoveto
          43 callsubr
          hintmask 11010010
          -240 -544 rmoveto
          -62 callsubr
          endchar
        </CharString>
        <CharString name="Gcircumflex">
          102 0 21 555 164 60 140 hstemhm
          31 194 -54 322 -102 194 hintmask 00101000
          171 800 rmoveto
          -42 callsubr
          0 vmoveto
          131 hmoveto
          hintmask 11010100
          -371 -570 rmoveto
          -62 callsubr
          endchar
        </CharString>
        <CharString name="Gcommaaccent">
          102 -307.199996948 55.8000030518 251.399993896 21 555 164 hstem
          31 194 9.19999694824 144 12.8000030518 194 vstem
          hintmask 00000000
          234.200195312 -205.5 rmoveto
          59 callsubr
          -203.200195312 472.900390625 rmoveto
          -62 callsubr
          endchar
        </CharString>
        <CharString name="Gdotaccent">
          102 0 21 555 164 60 142 hstemhm
          31 194 31 137 -2 194 hintmask 00101000
          256 823 rmoveto
          46 callsubr
          hintmask 11010100
          -225 -547 rmoveto
          -62 callsubr
          endchar
        </CharString>
        <CharString name="H">
          123 21 -21 267 174 291 -20 hstem
          45 194 170 194 vstem
          45 hmoveto
          -61 callsubr
          endchar
        </CharString>
        <CharString name="Hbar">
          197 21 -21 267 174 75 74 142 -20 hstem
          76 194 170 194 vstem
          11 516 rmoveto
          65 -516 194 267 170 -267 194 516 65 74 -65 142 -194 -142 -170 hlineto
          142 -194 -142 -65 vlineto
          259 -149 rmoveto
          75 170 -75 vlineto
          endchar
        </CharString>
        <CharString name="Hcircumflex">
          123 0 21 246 174 271 20 65 140 hstemhm
          45 194 -76 322 -76 194 hintmask 00010100
          163 797 rmoveto
          -42 callsubr
          0 vmoveto
          131 hmoveto
          hintmask 11101010
          -349 -937 rmoveto
          -61 callsubr
          endchar
        </CharString>
        <CharString name="I">
          -241 21 -21 732 -20 hstem
          45 194 vstem
          45 hmoveto
          -60 callsubr
          endchar
        </CharString>
        <CharString name="Iacute">
          -241 0 21 691 20 65 143 hstemhm
          45 194 -151.5 222 hintmask 00101000
          87.5 797 rmoveto
          2 callsubr
          hintmask 11010000
          -119.5 -940 rmoveto
          -60 callsubr
          endchar
        </CharString>
        <CharString name="Icircumflex">
          -241 0 21 691 20 65 140 hstemhm
          -19 322 -258 194 hintmask 00110000
          -19 797 rmoveto
          -42 callsubr
          0 vmoveto
          131 hmoveto
          hintmask 11001000
          -167 -937 rmoveto
          -60 callsubr
          endchar
        </CharString>
        <CharString name="Idieresis">
          -241 0 21 691 20 65 131 hstemhm
          -51 131 -35 194 -35 131 hintmask 00110100
          -51 863 rmoveto
          -4 callsubr
          255 hmoveto
          -4 callsubr
          hintmask 11001000
          -159 -863 rmoveto
          -60 callsubr
          endchar
        </CharString>
        <CharString name="Idotaccent">
          -241 0 21 691 20 65 142 hstemhm
          45 194 -165.5 137 hintmask 00101000
          73.5 820 rmoveto
          46 callsubr
          hintmask 11010000
          -28.5 -914 rmoveto
          -60 callsubr
          endchar
        </CharString>
        <CharString name="Idotaccent.smcp">
          -262 21 -21 631 142 hstemhm
          29 194 -164 137 hintmask 11100000
          29 hmoveto
          86 callsubr
          hintmask 01010000
          30 84 rmoveto
          46 callsubr
          endchar
        </CharString>
        <CharString name="Igrave">
          -241 0 21 691 20 65 143 hstemhm
          -25.5 222 -151.5 194 hintmask 00110000
          -25.5 940 rmoveto
          -41 callsubr
          hintmask 11001000
          -74.5 -940 rmoveto
          -60 callsubr
          endchar
        </CharString>
        <CharString name="Imacron">
          -241 0 21 691 20 65 93 hstemhm
          -4 292 -243 194 hintmask 00110000
          -4 797 rmoveto
          0 callsubr
          hintmask 11001000
          49 -890 rmoveto
          -60 callsubr
          endchar
        </CharString>
        <CharString name="Iogonek">
          -241 -19.466003418 20 -0.533996582031 21 691 20 hstemhm
          45 194 hintmask 00000000
          117.5 0.5341796875 rmoveto
          44 callsubr
          hintmask 01110000
          -141.5 -0.5341796875 rmoveto
          -60 callsubr
          endchar
        </CharString>
        <CharString name="Itilde">
          -241 0 21 691 20 65 106 -71 106 hstemhm
          45 194 hintmask 00100000
          -32 864 rmoveto
          27 -67 rlineto
          hintmask 00010000
          -7 callsubr
          hintmask 00100000
          -6 callsubr
          hintmask 00010000
          -5 callsubr
          hintmask 11001000
          77 -864 rmoveto
          -60 callsubr
          endchar
        </CharString>
        <CharString name="J">
          -158 732 -20 hstem
          128 194 vstem
          20 25 rmoveto
          -59 callsubr
          endchar
        </CharString>
        <CharString name="Jcircumflex">
          -158 712 20 65 140 hstemhm
          64 322 -258 194 hintmask 01100000
          64 797 rmoveto
          -42 callsubr
          0 vmoveto
          131 hmoveto
          hintmask 10010000
          -275 -912 rmoveto
          -59 callsubr
          endchar
        </CharString>
        <CharString name="K">
          147 21 -21 732 -20 hstem
          45 184 vstem
          45 hmoveto
          -58 callsubr
          endchar
        </CharString>
        <CharString name="Kcommaaccent">
          147 -302.199996948 55.8000030518 246.399993896 21 691 20 hstem
          45 184 16.1999969482 144 vstem
          hintmask 00000000
          245.200195312 -200.5 rmoveto
          59 callsubr
          -200.200195312 97.900390625 rmoveto
          -58 callsubr
          endchar
        </CharString>
        <CharString name="L">
          13 0 174 558 -20 hstem
          45 194 vstem
          45 156 rmoveto
          -57 callsubr
          endchar
        </CharString>
        <CharString name="Lacute">
          13 0 174 538 20 65 143 hstemhm
          45 194 -151.5 222 hintmask 00101000
          87.5 797 rmoveto
          2 callsubr
          hintmask 11010000
          -119.5 -784 rmoveto
          -57 callsubr
          endchar
        </CharString>
        <CharString name="Lcaron">
          13 0 174 558 -20 hstem
          45 194 50 114 vstem
          45 156 rmoveto
          -57 callsubr
          244 -27 rmoveto
          47 callsubr
          endchar
        </CharString>
        <CharString name="Lcommaaccent">
          13 -297.199996948 55.8000030518 241.399993896 174 538 20 hstemhm
          45 194 -29.8000030518 144 hintmask 00001000
          209.200195312 -195.5 rmoveto
          59 callsubr
          hintmask 01110000
          -164.200195312 248.900390625 rmoveto
          -57 callsubr
          endchar
        </CharString>
        <CharString name="Lslash">
          69 0 174 558 -20 hstem
          102 194 vstem
          28 293 rmoveto
          74 31 0 -168 rlineto
          -113 75 -43 91 vhcurveto
          296 174 -206 hlineto
          -29 -33 -1 53 hvcurveto
          0 181 90 38 0 81 -90 -38 0 244 -194 0 0 -327 -74 -31 rlineto
          endchar
        </CharString>
        <CharString name="M">
          373 21 -21 732 -20 hstem
          31 hmoveto
          -56 callsubr
          endchar
        </CharString>
        <CharString name="M.salt">
          393 21 -21 hstem
          31 193 44 163 31 170 48 196 vstem
          31 hmoveto
          110 callsubr
          endchar
        </CharString>
        <CharString name="N">
          164 21 -21 732 -20 hstem
          45 195 210 194 vstem
          45 hmoveto
          -55 callsubr
          endchar
        </CharString>
        <CharString name="N.salt">
          230 21 -21 732 -20 hstem
          45 195 276 194 vstem
          45 hmoveto
          109 callsubr
          endchar
        </CharString>
        <CharString name="Nacute">
          164 0 21 691 20 65 143 hstemhm
          45 195 50 222 -62 194 hintmask 00101000
          290 797 rmoveto
          2 callsubr
          hintmask 11010100
          -322 -940 rmoveto
          -55 callsubr
          endchar
        </CharString>
        <CharString name="Nacute.salt">
          230 0 21 691 20 69 143 hstemhm
          45 195 59 222 -5 194 hintmask 00101000
          299 801 rmoveto
          2 callsubr
          hintmask 11010100
          -331 -944 rmoveto
          109 callsubr
          endchar
        </CharString>
        <CharString name="Ncaron">
          164 0 21 691 20 65 140 hstemhm
          45 195 -56.5 322 -55.5 194 hintmask 00101000
          183.5 937 rmoveto
          45 callsubr
          -20 -140 rmoveto
          131 hmoveto
          hintmask 11010100
          -360.5 -797 rmoveto
          -55 callsubr
          endchar
        </CharString>
        <CharString name="Ncaron.salt">
          230 0 21 691 20 69 140 hstemhm
          45 195 -9 322 -37 194 hintmask 00101000
          231 941 rmoveto
          45 callsubr
          -20 -140 rmoveto
          131 hmoveto
          hintmask 11010100
          -408 -801 rmoveto
          109 callsubr
          endchar
        </CharString>
        <CharString name="Ncommaaccent">
          164 -302.199996948 55.8000030518 246.399993896 21 691 20 hstem
          45 195 26.1999969482 144 39.8000030518 194 vstem
          hintmask 00000000
          266.200195312 -200.5 rmoveto
          59 callsubr
          -221.200195312 97.900390625 rmoveto
          -55 callsubr
          endchar
        </CharString>
        <CharString name="Ncommaaccent.salt">
          230 -307.199996948 55.8000030518 251.399993896 21 691 20 hstem
          45 195 60.1999969482 144 71.8000030518 194 vstem
          hintmask 00000000
          300.200195312 -205.5 rmoveto
          59 callsubr
          -255.200195312 102.900390625 rmoveto
          109 callsubr
          endchar
        </CharString>
        <CharString name="Ntilde">
          164 0 21 691 20 65 106 -71 106 hstemhm
          45 195 210 194 hintmask 00100000
          170.5 864 rmoveto
          27 -67 rlineto
          hintmask 00010000
          -7 callsubr
          hintmask 00100000
          -6 callsubr
          hintmask 00010000
          -5 callsubr
          hintmask 11001100
          -125.5 -864 rmoveto
          -55 callsubr
          endchar
        </CharString>
        <CharString name="Ntilde.salt">
          230 0 21 691 20 69 106 -71 106 hstemhm
          45 195 276 194 hintmask 00100000
          213 868 rmoveto
          27 -67 rlineto
          hintmask 00010000
          -7 callsubr
          hintmask 00100000
          -6 callsubr
          hintmask 00010000
          -5 callsubr
          hintmask 11001100
          -168 -868 rmoveto
          109 callsubr
          endchar
        </CharString>
        <CharString name="O">
          154 -4 174 393 174 hstem
          37 194 218 194 vstem
          37 361 rmoveto
          -54 callsubr
          194 hmoveto
          -53 callsubr
          endchar
        </CharString>
        <CharString name="OE">
          458 -4 174 -156 162 96 181 -172 161 111 179 -179 163 -153 174 hstemhm
          37 194 217 194 hintmask 1000001110000000
          231 361 rmoveto
          179 21 23 88 91 17 -32 -170 -155 -22 -36 -86 vhcurveto
          -98 -11 38 153 hvcurveto
          -194 hmoveto
          -333 123 -32 180 vhcurveto
          65 0 56 5 47 22 43 -27 57 -1 36 2 rrcurveto
          hintmask 0110000110000000
          0 0 194 3 103 14 rrcurveto
          162 -237 vlineto
          -29 -33 -1 53 hvcurveto
          0 44 rlineto
          hintmask 0001000110000000
          249 9 0 161 rlineto
          hintmask 0010100110000000
          19 callsubr
          hintmask 0000010110000000
          247 163 hlineto
          hintmask 0000100110000000
          -117 16 -190 0 0 0 -42 2 -44 -6 -34 -21 rrcurveto
          hintmask 1000001110000000
          -49 25 -59 5 -66 0 rrcurveto
          -168 -135 -33 -343 hvcurveto
          endchar
        </CharString>
        <CharString name="Oacute">
          154 -4 174 393 174 60 143 hstemhm
          37 194 54.5 222 -58.5 194 hintmask 00101000
          285.5 797 rmoveto
          2 callsubr
          hintmask 11010100
          -325.5 -579 rmoveto
          -54 callsubr
          194 hmoveto
          -53 callsubr
          endchar
        </CharString>
        <CharString name="Ocircumflex">
          154 -4 174 393 174 60 140 hstemhm
          37 194 -52 322 -52 194 hintmask 00101000
          179 797 rmoveto
          -42 callsubr
          0 vmoveto
          131 hmoveto
          hintmask 11010100
          -373 -576 rmoveto
          -54 callsubr
          194 hmoveto
          -53 callsubr
          endchar
        </CharString>
        <CharString name="Odieresis">
          154 -4 174 393 174 60 131 hstemhm
          37 194 -84 131 124 131 -84 194 hintmask 00101100
          147 863 rmoveto
          -4 callsubr
          255 hmoveto
          -4 callsubr
          hintmask 11010010
          -365 -502 rmoveto
          -54 callsubr
          194 hmoveto
          -53 callsubr
          endchar
        </CharString>
        <CharString name="Ograve">
          154 -4 174 393 174 60 143 hstemhm
          37 194 -58.5 222 54.5 194 hintmask 00101000
          172.5 940 rmoveto
          -41 callsubr
          hintmask 11010100
          -280.5 -579 rmoveto
          -54 callsubr
          194 hmoveto
          -53 callsubr
          endchar
        </CharString>
        <CharString name="Ohungarumlaut">
          154 -4 174 393 174 60 143 hstem
          37 194 218 194 vstem
          199 797 rmoveto
          2 callsubr
          96 -143 rmoveto
          2 callsubr
          -412 -579 rmoveto
          -54 callsubr
          194 hmoveto
          -53 callsubr
          endchar
        </CharString>
        <CharString name="Omacron">
          154 -4 174 393 174 60 93 hstemhm
          37 194 -37 292 -37 194 hintmask 00101000
          194 797 rmoveto
          0 callsubr
          hintmask 11010100
          -157 -529 rmoveto
          -54 callsubr
          194 hmoveto
          -53 callsubr
          endchar
        </CharString>
        <CharString name="Omega">
          238 0 157 408 174 hstem
          36 194 286 194 vstem
          36 398 rmoveto
          0 -112 35 -74 64 -44 rrcurveto
          -93 -10 0 -158 260 0 0 168 rlineto
          -62 62 -10 63 0 87 rrcurveto
          70 16 115 130 120 20 -115 -65 vhcurveto
          0 -89 -13 -72 -56 -56 rrcurveto
          -168 268 157 vlineto
          -88 10 rlineto
          48 59 35 50 0 117 rrcurveto
          182 -86 164 -248 -262 -78 -187 -154 vhcurveto
          endchar
        </CharString>
        <CharString name="Oslash">
          169 -4 174 393 174 hstem
          46 194 218 194 vstem
          46 361 rmoveto
          0 -130 19 -84 33 -54 rrcurveto
          -67 -93 86 0 29 40 rlineto
          52 -38 70 -6 81 0 180 0 123 42 0 323 0 148 -25 90 -41 55 rrcurveto
          56 78 -86 0 -22 -31 rlineto
          -50 30 -64 6 -71 0 -168 0 -135 -33 0 -343 rrcurveto
          194 hmoveto
          179 21 23 88 vhcurveto
          33 0 24 -4 16 -14 rrcurveto
          -181 -252 rlineto
          -1 20 0 22 0 26 rrcurveto
          22 -159 rmoveto
          191 267 rlineto
          4 -28 1 -35 0 -45 0 -155 -23 -36 -86 0 -45 0 -26 8 -16 24 rrcurveto
          endchar
        </CharString>
        <CharString name="Otilde">
          154 -4 174 393 174 60 106 -71 106 hstemhm
          37 194 218 194 hintmask 00100000
          166 864 rmoveto
          27 -67 rlineto
          hintmask 00010000
          -7 callsubr
          hintmask 00100000
          -6 callsubr
          hintmask 00010000
          -5 callsubr
          hintmask 11001100
          -129 -503 rmoveto
          -54 callsubr
          194 hmoveto
          -53 callsubr
          endchar
        </CharString>
        <CharString name="P">
          107 21 -21 567 165 hstem
          44 194 163 195 vstem
          44 hmoveto
          -52 callsubr
          194 -320 rmoveto
          -51 callsubr
          endchar
        </CharString>
        <CharString name="Q">
          154 -208 140 64 174 393 174 hstem
          37 194 218 194 vstem
          37 361 rmoveto
          -333 123 -32 180 vhcurveto
          180 2 123 40 0 323 rrcurveto
          343 -130 33 -173 -168 -135 -33 -343 vhcurveto
          194 hmoveto
          -53 callsubr
          55 -394 rmoveto
          -50 callsubr
          endchar
        </CharString>
        <CharString name="R">
          106 21 -21 567 165 hstem
          44 194 162 195 vstem
          44 hmoveto
          -49 callsubr
          195 -313 rmoveto
          -48 callsubr
          endchar
        </CharString>
        <CharString name="Racute">
          106 0 21 546 165 65 143 hstemhm
          44 194 23 222 -83 195 hintmask 00101000
          261 797 rmoveto
          2 callsubr
          hintmask 11010100
          -294 -940 rmoveto
          -49 callsubr
          195 -313 rmoveto
          -48 callsubr
          endchar
        </CharString>
        <CharString name="Rcaron">
          106 0 21 546 165 65 140 hstemhm
          44 194 -79 322 -81 195 hintmask 00101000
          159 937 rmoveto
          45 callsubr
          -20 -140 rmoveto
          131 hmoveto
          hintmask 11010100
          -337 -797 rmoveto
          -49 callsubr
          195 -313 rmoveto
          -48 callsubr
          endchar
        </CharString>
        <CharString name="Rcommaaccent">
          106 -295.199996948 55.8000030518 239.399993896 21 546 165 hstemhm
          44 194 -11.8000030518 144 29.8000030518 195 hintmask 00001000
          226.200195312 -193.5 rmoveto
          59 callsubr
          hintmask 01110100
          -182.200195312 90.900390625 rmoveto
          -49 callsubr
          195 -313 rmoveto
          -48 callsubr
          endchar
        </CharString>
        <CharString name="S">
          83 -8 174 101 194 hstem
          37 479 rmoveto
          -47 8 -165 190 vhcurveto
          90 hlineto
          44 9 -15 -29 hvcurveto
          -16 vlineto
          -30 -16 -11 -43 vhcurveto
          -93 0 -126 7 -40 4 rrcurveto
          -151 vlineto
          100 -34 22 0 187 0 rrcurveto
          99 104 38 186 hvcurveto
          33 vlineto
          80 -35 132 -152 vhcurveto
          -94 hlineto
          -54 -6 17 31 hvcurveto
          11 vlineto
          42 20 2 54 vhcurveto
          66 0 110 -3 64 -7 rrcurveto
          151 vlineto
          -74 27 -88.2339935303 15.2350006104 -147.76600647 -9.23500061035 -112 -7 -86 -60 0 -131 rrcurveto
          endchar
        </CharString>
        <CharString name="Sacute">
          83 -8 174 101 194 337.848999023 143 hstem
          252.011001587 222 vstem
          252.010742188 798.848632812 rmoveto
          2 callsubr
          -292.010742188 -462.848632812 rmoveto
          48 callsubr
          endchar
        </CharString>
        <CharString name="Scaron">
          83 -8 174 101 194 337.848999023 140 hstem
          152.511001587 322 vstem
          152.510742188 938.848632812 rmoveto
          45 callsubr
          -20 -140 rmoveto
          131 hmoveto
          -337.510742188 -319.848632812 rmoveto
          48 callsubr
          endchar
        </CharString>
        <CharString name="Scedilla">
          83 -189 146 35 174 101 194 hstem
          196 182 vstem
          196 -110 rmoveto
          3 callsubr
          -196 574 rmoveto
          48 callsubr
          endchar
        </CharString>
        <CharString name="Scircumflex">
          83 -8 174 101 194 337.848999023 140 hstem
          145.511001587 322 vstem
          145.510742188 798.848632812 rmoveto
          -42 callsubr
          0 vmoveto
          131 hmoveto
          -339.510742188 -459.848632812 rmoveto
          48 callsubr
          endchar
        </CharString>
        <CharString name="T">
          94 21 -21 558 174 hstem
          204 194 vstem
          20 558 rmoveto
          -47 callsubr
          endchar
        </CharString>
        <CharString name="Tbar">
          77 21 -21 350 74 134 174 hstem
          195 194 vstem
          11 558 rmoveto
          184 -134 -80 -74 80 -350 194 350 80 74 -80 134 190 174 -568 hlineto
          endchar
        </CharString>
        <CharString name="Tcaron">
          94 0 21 537 174 65 140 hstemhm
          143 322 -261 194 hintmask 00110000
          143 937 rmoveto
          45 callsubr
          -20 -140 rmoveto
          131 hmoveto
          hintmask 11001000
          -345 -239 rmoveto
          -47 callsubr
          endchar
        </CharString>
        <CharString name="Tcommaaccent">
          94 -195 146 49 21 537 174 hstemhm
          181 182 -159 194 hintmask 01101000
          20 558 rmoveto
          -47 callsubr
          hintmask 10010000
          161 -848 rmoveto
          3 callsubr
          endchar
        </CharString>
        <CharString name="Thorn">
          25 21 -21 149 164 111 164 hstem
          34 194 88 195 vstem
          34 hmoveto
          194 168 hlineto
          43 -21 18 0 46 2 74 3 102 19 0 204 rrcurveto
          179 -97 34 -79 vhcurveto
          -107 141 -194 hlineto
          194 -416 rmoveto
          111 27 vlineto
          40 21 -1 -51 -55 -9 -4 -52 hvcurveto
          endchar
        </CharString>
        <CharString name="U">
          142 -5 174 563 -20 hstem
          45 194 188 195 vstem
          45 320 rmoveto
          -46 callsubr
          endchar
        </CharString>
        <CharString name="Uacute">
          142 -5 174 543 20 65 143 hstemhm
          45 194 40 222 -74 195 hintmask 00101000
          279 797 rmoveto
          2 callsubr
          hintmask 11010100
          -311 -620 rmoveto
          -46 callsubr
          endchar
        </CharString>
        <CharString name="Ubreve">
          142 -5 174 543 20 65 67 hstemhm
          45 194 -20.5 67 96 67 -21.5 195 hintmask 00101100
          218.5 911 rmoveto
          43 callsubr
          hintmask 11010010
          -240.5 -591 rmoveto
          -46 callsubr
          endchar
        </CharString>
        <CharString name="Ucircumflex">
          142 -5 174 543 20 65 140 hstemhm
          45 194 -66.5 322 -67.5 195 hintmask 00101000
          172.5 797 rmoveto
          -42 callsubr
          0 vmoveto
          131 hmoveto
          hintmask 11010100
          -358.5 -617 rmoveto
          -46 callsubr
          endchar
        </CharString>
        <CharString name="Udieresis">
          142 -5 174 543 20 65 131 hstemhm
          45 194 -98.5 131 124 131 -99.5 195 hintmask 00101100
          140.5 863 rmoveto
          -4 callsubr
          255 hmoveto
          -4 callsubr
          hintmask 11010010
          -350.5 -543 rmoveto
          -46 callsubr
          endchar
        </CharString>
        <CharString name="Ugrave">
          142 -5 174 543 20 65 143 hstemhm
          45 194 -73 222 39 195 hintmask 00101000
          166 940 rmoveto
          -41 callsubr
          hintmask 11010100
          -266 -620 rmoveto
          -46 callsubr
          endchar
        </CharString>
        <CharString name="Uhungarumlaut">
          142 -5 174 543 20 65 143 hstem
          45 194 188 195 vstem
          192.5 797 rmoveto
          2 callsubr
          96 -143 rmoveto
          2 callsubr
          -397.5 -620 rmoveto
          -46 callsubr
          endchar
        </CharString>
        <CharString name="Umacron">
          142 -5 174 543 20 65 93 hstemhm
          45 194 -51.5 292 -52.5 195 hintmask 00101000
          187.5 797 rmoveto
          0 callsubr
          hintmask 11010100
          -142.5 -570 rmoveto
          -46 callsubr
          endchar
        </CharString>
        <CharString name="Uogonek">
          142 -20 20 -5 174 543 20 hstemhm
          45 194 188 195 hintmask 10000000
          304 hmoveto
          44 callsubr
          hintmask 01111000
          -328 320 rmoveto
          -46 callsubr
          endchar
        </CharString>
        <CharString name="Uring">
          142 -5 174 543 20 65 69 67 69 hstemhm
          45 194 -7 68 67 68 -8 195 hintmask 00110110
          232 899 rmoveto
          1 callsubr
          68 hmoveto
          18 callsubr
          hintmask 11001001
          -255 -579 rmoveto
          -46 callsubr
          endchar
        </CharString>
        <CharString name="Utilde">
          142 -5 174 543 20 65 106 -71 106 hstemhm
          45 194 188 195 hintmask 00100000
          159.5 864 rmoveto
          27 -67 rlineto
          hintmask 00010000
          -7 callsubr
          hintmask 00100000
          -6 callsubr
          hintmask 00010000
          -5 callsubr
          hintmask 11001100
          -114.5 -544 rmoveto
          -46 callsubr
          endchar
        </CharString>
        <CharString name="V">
          186 21 -21 732 -20 hstem
          25 732 rmoveto
          207 -732 234 0 219 732 -204 0 -131 -494 -121 494 rlineto
          endchar
        </CharString>
        <CharString name="W">
          505 21 -21 732 -20 hstem
          25 732 rmoveto
          -45 callsubr
          endchar
        </CharString>
        <CharString name="Wacute">
          505 0 21 691 20 65 143 hstem
          460.5 222 vstem
          460.5 797 rmoveto
          2 callsubr
          -512.5 -208 rmoveto
          -45 callsubr
          endchar
        </CharString>
        <CharString name="Wcircumflex">
          505 0 21 691 20 65 140 hstem
          362 322 vstem
          362 797 rmoveto
          -42 callsubr
          0 vmoveto
          131 hmoveto
          -568 -205 rmoveto
          -45 callsubr
          endchar
        </CharString>
        <CharString name="Wdieresis">
          505 0 21 691 20 65 131 hstem
          315 131 124 131 vstem
          315 863 rmoveto
          -4 callsubr
          255 hmoveto
          -4 callsubr
          -545 -131 rmoveto
          -45 callsubr
          endchar
        </CharString>
        <CharString name="Wgrave">
          505 0 21 691 20 65 143 hstem
          347.5 222 vstem
          347.5 940 rmoveto
          -41 callsubr
          -467.5 -208 rmoveto
          -45 callsubr
          endchar
        </CharString>
        <CharString name="X">
          166 21 -21 732 -20 hstem
          25 732 rmoveto
          222 -369 -219 -363 215 0 102 196 100 -196 215 0 -218 363 223 369 -215 0 -105 -203 -105 203 rlineto
          endchar
        </CharString>
        <CharString name="X.salt">
          180 21 -21 732 -20 hstem
          11 hmoveto
          210 0 110 261 rlineto
          0 0 2 222 -2 4 rrcurveto
          -120 245 -200 0 118 -275 rlineto
          30 -70 6 -19 -26 -63 rrcurveto
          222 -44 rmoveto
          111 -261 210 0 -128 305 rlineto
          -26 63 6 19 30 70 rrcurveto
          118 275 -200 0 -121 -245 rlineto
          -1 -2 1 -224 0 0 rrcurveto
          endchar
        </CharString>
        <CharString name="Y">
          166 21 -21 732 -20 hstem
          240 194 vstem
          25 732 rmoveto
          -44 callsubr
          endchar
        </CharString>
        <CharString name="Yacute">
          166 0 21 691 20 65 143 hstemhm
          240 194 -143.5 222 hintmask 00101000
          290.5 797 rmoveto
          2 callsubr
          hintmask 11010000
          -342.5 -208 rmoveto
          -44 callsubr
          endchar
        </CharString>
        <CharString name="Ycircumflex">
          166 0 21 691 20 65 140 hstemhm
          184 322 -266 194 hintmask 00110000
          184 797 rmoveto
          -42 callsubr
          0 vmoveto
          131 hmoveto
          hintmask 11001000
          -390 -205 rmoveto
          -44 callsubr
          endchar
        </CharString>
        <CharString name="Ydieresis">
          166 0 21 691 20 65 131 hstemhm
          152 131 -43 194 -27 131 hintmask 00110100
          152 863 rmoveto
          -4 callsubr
          255 hmoveto
          -4 callsubr
          hintmask 11001000
          -382 -131 rmoveto
          -44 callsubr
          endchar
        </CharString>
        <CharString name="Ygrave">
          166 0 21 691 20 65 143 hstemhm
          177.5 222 -159.5 194 hintmask 00110000
          177.5 940 rmoveto
          -41 callsubr
          hintmask 11001000
          -297.5 -208 rmoveto
          -44 callsubr
          endchar
        </CharString>
        <CharString name="Z">
          39 0 174 384 174 hstem
          20 hmoveto
          -43 callsubr
          endchar
        </CharString>
        <CharString name="Zacute">
          39 0 174 384 174 65 143 hstem
          222 222 vstem
          222 797 rmoveto
          2 callsubr
          -279 -940 rmoveto
          -43 callsubr
          endchar
        </CharString>
        <CharString name="Zcaron">
          39 0 174 384 174 65 140 hstem
          115.5 322 vstem
          115.5 937 rmoveto
          45 callsubr
          -20 -140 rmoveto
          131 hmoveto
          -317.5 -797 rmoveto
          -43 callsubr
          endchar
        </CharString>
        <CharString name="Zdotaccent">
          39 0 174 384 174 65 142 hstem
          208 137 vstem
          208 820 rmoveto
          46 callsubr
          -188 -914 rmoveto
          -43 callsubr
          endchar
        </CharString>
        <CharString name="a">
          6 21 -21 399 142 hstem
          298 194 vstem
          22 143 rmoveto
          -40 callsubr
          194 -9 rmoveto
          -39 callsubr
          endchar
        </CharString>
        <CharString name="a.salt">
          19 0 134 265 138 hstem
          310 194 vstem
          28 151 rmoveto
          114 callsubr
          194 -4 rmoveto
          115 callsubr
          endchar
        </CharString>
        <CharString name="a.smcp">
          107 21 -21 hstem
          20 hmoveto
          65 callsubr
          90 -339 rmoveto
          66 callsubr
          endchar
        </CharString>
        <CharString name="a.superior">
          -139 374 96 161 107 hstem
          206 146 vstem
          17 469 rmoveto
          0 -36 26 -56 87 -3 49 -2 21 31 6 16 rrcurveto
          30 -41 116 0 0 238 rlineto
          99 -62 23 -105 vhcurveto
          -67 0 -42 -5 -47 -25 rrcurveto
          -86 vlineto
          0 93 9 41 28 15 2 -35 vhcurveto
          1 -1 -1 -3 0 0 rrcurveto
          -1 -69 1 0 -96 -24 -51 -48 vhcurveto
          134 -3 rmoveto
          4 vlineto
          0 10 -2 15 21 2 rrcurveto
          36 3 0 -36 rlineto
          0 2 -20 -30 -13 -14 0 22 vhcurveto
          endchar
        </CharString>
        <CharString name="aacute">
          6 0 21 378 142 60 143 hstemhm
          213.5 222 -137.5 194 hintmask 00110000
          213.5 601 rmoveto
          2 callsubr
          hintmask 11001000
          -268.5 -601 rmoveto
          -40 callsubr
          194 -9 rmoveto
          -39 callsubr
          endchar
        </CharString>
        <CharString name="aacute.salt">
          19 0 134 265 138 60.0980072021 143 hstemhm
          227.658004761 222 -139.658004761 194 hintmask 00010000
          227.658203125 597.098632812 rmoveto
          2 callsubr
          hintmask 11001000
          -276.658203125 -589.098632812 rmoveto
          114 callsubr
          194 -4 rmoveto
          115 callsubr
          endchar
        </CharString>
        <CharString name="aacute.smcp">
          107 0 21 609 143 hstem
          260.5 222 vstem
          260.5 630 rmoveto
          2 callsubr
          -317.5 -773 rmoveto
          65 callsubr
          90 -339 rmoveto
          66 callsubr
          endchar
        </CharString>
        <CharString name="abreve">
          6 0 21 378 142 60 67 hstemhm
          153 67 78 194 -176 67 hintmask 00110100
          153 715 rmoveto
          43 callsubr
          hintmask 11001000
          -198 -572 rmoveto
          -40 callsubr
          194 -9 rmoveto
          -39 callsubr
          endchar
        </CharString>
        <CharString name="abreve.salt">
          19 0 134 265 138 60.0980072021 67 hstemhm
          167.158004761 67 75.8419952393 194 -173.841995239 67 hintmask 00010100
          167.158203125 711.098632812 rmoveto
          43 callsubr
          hintmask 11001000
          -206.158203125 -560.098632812 rmoveto
          114 callsubr
          194 -4 rmoveto
          115 callsubr
          endchar
        </CharString>
        <CharString name="abreve.smcp">
          107 0 21 609 67 hstem
          200 67 96 67 vstem
          200 744 rmoveto
          43 callsubr
          -247 -744 rmoveto
          65 callsubr
          90 -339 rmoveto
          66 callsubr
          endchar
        </CharString>
        <CharString name="acircumflex">
          6 0 21 378 142 60 140 hstemhm
          107 322 -131 194 hintmask 00110000
          107 601 rmoveto
          -42 callsubr
          0 vmoveto
          131 hmoveto
          hintmask 11001000
          -316 -598 rmoveto
          -40 callsubr
          194 -9 rmoveto
          -39 callsubr
          endchar
        </CharString>
        <CharString name="acircumflex.salt">
          19 0 134 265 138 60.0980072021 140 hstemhm
          121.158004761 322 -133.158004761 194 hintmask 00000000
          121.157226562 597.098632812 rmoveto
          -42 callsubr
          0 vmoveto
          131 hmoveto
          hintmask 11001000
          -324.157226562 -586.098632812 rmoveto
          114 callsubr
          194 -4 rmoveto
          115 callsubr
          endchar
        </CharString>
        <CharString name="acircumflex.smcp">
          107 0 21 609 140 hstem
          154 322 vstem
          154 630 rmoveto
          -42 callsubr
          0 vmoveto
          131 hmoveto
          -365 -770 rmoveto
          65 callsubr
          90 -339 rmoveto
          66 callsubr
          endchar
        </CharString>
        <CharString name="acute">
          -269 531 143 hstem
          11 222 vstem
          11 531 rmoveto
          2 callsubr
          endchar
        </CharString>
        <CharString name="acute.smcp">
          -269 531 143 hstem
          11 222 vstem
          11 531 rmoveto
          2 callsubr
          endchar
        </CharString>
        <CharString name="adieresis">
          6 0 21 378 142 60 131 hstemhm
          75 131 92 194 -162 131 hintmask 00110100
          75 667 rmoveto
          -4 callsubr
          255 hmoveto
          -4 callsubr
          hintmask 11001000
          -308 -524 rmoveto
          -40 callsubr
          194 -9 rmoveto
          -39 callsubr
          endchar
        </CharString>
        <CharString name="adieresis.salt">
          19 0 134 265 138 60.0980072021 131 hstemhm
          89.1575927734 131 89.8424072266 194 -159.841995239 131 hintmask 00010000
          89.1572265625 663.098632812 rmoveto
          -4 callsubr
          255 hmoveto
          -4 callsubr
          hintmask 11001000
          -316.157226562 -512.098632812 rmoveto
          114 callsubr
          194 -4 rmoveto
          115 callsubr
          endchar
        </CharString>
        <CharString name="adieresis.smcp">
          107 0 21 609 131 hstem
          122 131 124 131 vstem
          122 696 rmoveto
          -4 callsubr
          255 hmoveto
          -4 callsubr
          -357 -696 rmoveto
          65 callsubr
          90 -339 rmoveto
          66 callsubr
          endchar
        </CharString>
        <CharString name="ae">
          307 -5 143 79 113 69 142 hstem
          298 219 87 194 vstem
          22 143 rmoveto
          0 -56 38 -88 126 -5 64 -2 92 30 18 41 27 -45 43 -23 68 0 83 0 137 -4 70 32 rrcurveto
          126 vlineto
          -75 -11 -3 0 -72 0 rrcurveto
          -74 -47 7 72 hvcurveto
          123 hlineto
          96 62 23 109 158 -67 28 -177 hvcurveto
          -52 0 -40 -4 -44 -20 -31 20 -63 8 -56 2 -99 0 -60 -7 -69 -33 rrcurveto
          -114 vlineto
          0 156 12 40 40 22 1 -53 vhcurveto
          1 -1 -1 -16 0 0 rrcurveto
          -1 -102 1 0 -139 -35 -81 -75 vhcurveto
          194 -4 rmoveto
          1 vlineto
          0 16 -2 26 32 3 rrcurveto
          52 5 0 -50 rlineto
          0 1 -33 -41 -19 -23 -9 41 vhcurveto
          301 160 rmoveto
          -2 76 11 -5 42 0 rrcurveto
          34 2 -3 -36 -19 -13 -13 -17 hvcurveto
          endchar
        </CharString>
        <CharString name="ae.smcp">
          312 -3 164 -146 146 44 156 -149 141 54 163 -163 146 hstemhm
          hintmask 10000000
          13 hmoveto
          208 0 45 118 95 0 0 -7 rlineto
          0 -91 68 -24 56 1 rrcurveto
          hintmask 01000000
          74 callsubr
          hintmask 10100000
          75 callsubr
          hintmask 00010000
          76 callsubr
          hintmask 00101000
          77 callsubr
          hintmask 00000100
          78 callsubr
          hintmask 10001000
          -93 17 -204 0 0 0 -94 -1 -176 13 -52 -137 rrcurveto
          131 -203 rmoveto
          47 124 0 -124 rlineto
          endchar
        </CharString>
        <CharString name="afii61289">
          11 1 113 hstem
          74 194 vstem
          17 258 rmoveto
          23 -93 rlineto
          11 6 13 7 10 7 rrcurveto
          -8 vlineto
          -135 65 -41 97 vhcurveto
          208 113 hlineto
          -7 -53 11 0 hvcurveto
          -113 18 -3 53 0 54 rrcurveto
          4 vlineto
          72 40 150 112 0 142 rrcurveto
          144 -98 47 -85 -157 -76 -65 -122 vhcurveto
          -238 vlineto
          -19 -20 -19 -19 -19 -17 rrcurveto
          251 178 rmoveto
          123 vlineto
          0 57 72 -20 -11 -46 -8 -32 -13 -36 -40 -46 rrcurveto
          endchar
        </CharString>
        <CharString name="afii61352">
          630 21 -21 381 132 87 134 hstem
          40 195 277 194 272 142 vstem
          40 hmoveto
          195 562 hlineto
          0 17 23 6 2 -16 rrcurveto
          44 -416 rlineto
          23 -226 379 26 0 212 rrcurveto
          366 vlineto
          69 33 0 89 57 53 -1 0 vhcurveto
          41 -1 -6 -40 -40 -2 0 -24 hvcurveto
          -14 hlineto
          -24 -2 4 58 hvcurveto
          -142 hlineto
          0 -176 45 -13 117 -5 rrcurveto
          26 hlineto
          121 5 41 41 0 126 rrcurveto
          139 -40 42 -102 vhcurveto
          -298 hlineto
          -93 -75 -44 -125 hvcurveto
          -380 vlineto
          0 -15 -22 -8 -2 20 rrcurveto
          -43 411 rlineto
          -21 201 -384 2 0 -227 rrcurveto
          endchar
        </CharString>
        <CharString name="agrave">
          6 0 21 378 142 60 143 hstemhm
          100.5 222 -24.5 194 hintmask 00110000
          100.5 744 rmoveto
          -41 callsubr
          hintmask 11001000
          -223.5 -601 rmoveto
          -40 callsubr
          194 -9 rmoveto
          -39 callsubr
          endchar
        </CharString>
        <CharString name="agrave.salt">
          19 0 134 265 138 60.0980072021 143 hstemhm
          114.658004761 222 -26.6580047607 194 hintmask 00010000
          114.658203125 740.098632812 rmoveto
          -41 callsubr
          hintmask 11001000
          -231.658203125 -589.098632812 rmoveto
          114 callsubr
          194 -4 rmoveto
          115 callsubr
          endchar
        </CharString>
        <CharString name="agrave.smcp">
          107 0 21 609 143 hstem
          147.5 222 vstem
          147.5 773 rmoveto
          -41 callsubr
          -272.5 -773 rmoveto
          65 callsubr
          90 -339 rmoveto
          66 callsubr
          endchar
        </CharString>
        <CharString name="amacron">
          6 0 21 378 142 60 93 hstemhm
          122 292 -116 194 hintmask 00110000
          122 601 rmoveto
          0 callsubr
          hintmask 11001000
          -100 -551 rmoveto
          -40 callsubr
          194 -9 rmoveto
          -39 callsubr
          endchar
        </CharString>
        <CharString name="amacron.salt">
          19 0 134 265 138 60.0980072021 93 hstemhm
          136.158004761 292 -118.158004761 194 hintmask 00000000
          136.158203125 597.098632812 rmoveto
          0 callsubr
          hintmask 11001000
          -108.158203125 -539.098632812 rmoveto
          114 callsubr
          194 -4 rmoveto
          115 callsubr
          endchar
        </CharString>
        <CharString name="amacron.smcp">
          107 0 21 609 93 hstem
          169 292 vstem
          169 630 rmoveto
          0 callsubr
          -149 -723 rmoveto
          65 callsubr
          90 -339 rmoveto
          66 callsubr
          endchar
        </CharString>
        <CharString name="ampersand">
          202 21 -21 566 144 hstem
          55 82 rmoveto
          77 -117 164 19 58 49 rrcurveto
          60 51 61 -84 228 0 -153 199 35 43 67 108 -70 88 -128 -110 -114 160 rlineto
          -34 48 -14 30 68 0 rrcurveto
          133 144 hlineto
          -72 17 -92 25 -122 -22 -87 -15 -79 -121 79 -107 rrcurveto
          42 -65 -56 -50 rlineto
          -85 -76 -34 -111 68 -103 rrcurveto
          157 112 rmoveto
          -12 15 -8 22 32 30 rrcurveto
          30 29 56 -73 -26 -27 rlineto
          -33 -34 -23 19 -16 19 rrcurveto
          endchar
        </CharString>
        <CharString name="ampersand.salt">
          494 -2 151 361 151 hstem
          25 194 287 194 27 194 vstem
          25 347 rmoveto
          -149 101 -29 130 vhcurveto
          0 -117 113 -53 105 -1 rrcurveto
          164 hlineto
          153 130 47 199 hvcurveto
          0 267 75 19 0 129 -75 0 0 107 -176 0 -18 -105 -421 0 rlineto
          -189 -2 -92 -41 0 -188 rrcurveto
          194 -74 rmoveto
          74 vlineto
          54 0 26 97 vhcurveto
          411 -263 hlineto
          -58 -6 -40 -83 vhcurveto
          -159 hlineto
          -27 -2 15 12 hvcurveto
          40 hlineto
          106 104 -5 133 130 -92 38 -115 hvcurveto
          -29 hlineto
          -126 -82 -40 -124 hvcurveto
          -31 -6 13 35 hvcurveto
          231 -50 rmoveto
          36 8 0 16 vhcurveto
          14 hlineto
          9 9 -2 -14 -16 -6 -4 -12 hvcurveto
          endchar
        </CharString>
        <CharString name="ampersand.smcp">
          105 21 -21 415 133 hstem
          52 70 rmoveto
          74 -111 153 34 45 39 rrcurveto
          32 28 47 -60 202 0 -127 169 27 26 65 91 -74 84 -109 -80 -71 101 rlineto
          -12 16 8 8 24 0 rrcurveto
          80 133 hlineto
          -35 14 -126 22 -74 -13 -65 -11 -56 -94 59 -80 rrcurveto
          20 -28 -42 -37 rlineto
          -71 -64 -41 -87 67 -100 rrcurveto
          137 96 rmoveto
          -11 15 7 13 13 10 rrcurveto
          31 25 29 -41 -30 -25 rlineto
          -17 -13 -10 0 -12 16 rrcurveto
          endchar
        </CharString>
        <CharString name="aogonek">
          6 -19.6184997559 20 -0.381500244141 21 378 142 hstemhm
          298 194 hintmask 00000000
          384 0.3818359375 rmoveto
          44 callsubr
          hintmask 01110000
          -431 142.618164062 rmoveto
          -40 callsubr
          194 -9 rmoveto
          -39 callsubr
          endchar
        </CharString>
        <CharString name="aogonek.salt">
          19 -4.46600341797 20 -15.533996582 134 265 138 hstemhm
          310 194 hintmask 00000000
          360 15.5341796875 rmoveto
          44 callsubr
          hintmask 01110000
          -401 135.465820312 rmoveto
          114 callsubr
          194 -4 rmoveto
          115 callsubr
          endchar
        </CharString>
        <CharString name="aogonek.smcp">
          107 -18.466003418 20 -1.53399658203 21 hstemhm
          hintmask 00000000
          470 1.5341796875 rmoveto
          44 callsubr
          hintmask 01000000
          -519 -1.5341796875 rmoveto
          65 callsubr
          90 -339 rmoveto
          66 callsubr
          endchar
        </CharString>
        <CharString name="approxequal">
          -21 187 115 -77 114 32 115 -77 114 hstemhm
          hintmask 10000000
          28 268 rmoveto
          21 -81 rlineto
          hintmask 01000000
          48 15 25 23 51 0 rrcurveto
          hintmask 10000000
          55 callsubr
          hintmask 01000000
          -60 0 -29 37 -60 0 rrcurveto
          -64 0 -50 -39 -33 -32 rrcurveto
          184 vmoveto
          hintmask 00100000
          21 -81 rlineto
          hintmask 00010000
          48 15 25 23 51 0 rrcurveto
          hintmask 00100000
          55 callsubr
          hintmask 00010000
          -60 0 -29 37 -60 0 -64 0 -50 -39 -33 -32 rrcurveto
          endchar
        </CharString>
        <CharString name="aring">
          6 0 21 378 142 60 69 67 69 hstemhm
          168.5 68 61.5 194 -188.5 68 hintmask 00111010
          168.5 703 rmoveto
          1 callsubr
          68 hmoveto
          18 callsubr
          hintmask 11000100
          -214.5 -560 rmoveto
          -40 callsubr
          194 -9 rmoveto
          -39 callsubr
          endchar
        </CharString>
        <CharString name="aring.salt">
          19 0 134 265 138 60.0980072021 69 67 69 hstemhm
          180.658004761 68 61.3419952393 194 -188.341995239 68 hintmask 00001010
          180.658203125 699.098632812 rmoveto
          1 callsubr
          68 hmoveto
          18 callsubr
          hintmask 11000100
          -220.658203125 -548.098632812 rmoveto
          114 callsubr
          194 -4 rmoveto
          115 callsubr
          endchar
        </CharString>
        <CharString name="aring.smcp">
          107 0 21 548 69 67 69 hstem
          213.5 68 67 68 vstem
          213.5 671 rmoveto
          1 callsubr
          68 hmoveto
          18 callsubr
          -261.5 -671 rmoveto
          65 callsubr
          90 -339 rmoveto
          66 callsubr
          endchar
        </CharString>
        <CharString name="asciicircum">
          -135 531 140 hstem
          28 322 vstem
          28 531 rmoveto
          -42 callsubr
          0 vmoveto
          131 hmoveto
          endchar
        </CharString>
        <CharString name="asciitilde">
          -109 531 106 -71 106 hstemhm
          hintmask 10000000
          28 598 rmoveto
          27 -67 rlineto
          hintmask 01000000
          -7 callsubr
          hintmask 10000000
          -6 callsubr
          hintmask 01000000
          -5 callsubr
          endchar
        </CharString>
        <CharString name="asterisk">
          -95 566 70 hstem
          28 144 vstem
          28 566 rmoveto
          144 -5 -5 94 -139 -19 rlineto
          48 -218 rmoveto
          67 -21 49 135 -91 24 rlineto
          56 166 rmoveto
          40 -138 88 34 -61 126 rlineto
          -48 -285 rmoveto
          123 -66 42 56 -114 89 rlineto
          3 33 rmoveto
          59 -73 101 97 -41 57 rlineto
          endchar
        </CharString>
        <CharString name="asterisk.smcp">
          -96 393 70 hstem
          28 144 vstem
          28 393 rmoveto
          144 -5 -5 94 -139 -19 rlineto
          48 -218 rmoveto
          67 -21 49 135 -91 24 rlineto
          56 166 rmoveto
          40 -138 88 34 -61 126 rlineto
          -48 -285 rmoveto
          123 -66 42 56 -114 89 rlineto
          3 33 rmoveto
          59 -73 101 97 -41 57 rlineto
          endchar
        </CharString>
        <CharString name="at">
          375 -218 145 64 144 -114 -21 368 144 59 144 -144 117 hstemhm
          37 144 316 144 56 144 hintmask 1001101110000000
          37 20 rmoveto
          -76 callsubr
          hintmask 1001011110000000
          -75 callsubr
          hintmask 1101101110000000
          404 hlineto
          61 42 -42 -77 hvcurveto
          -412 vlineto
          -68 -21 -45 -82 vhcurveto
          -319 hlineto
          -40 -54 23 90 hvcurveto
          238 vlineto
          80 46 10 48 vhcurveto
          178 hlineto
          31 13 -5 -33 hvcurveto
          1 -1 -1 -15 0 0 rrcurveto
          -1 -66 1 -37 -100 -59 -45 -98 vhcurveto
          -33 vlineto
          -68 34 -79 94 vhcurveto
          91 0 43 63 2 0 rrcurveto
          hintmask 1011101110000000
          24 -54 118 0 0 342 rlineto
          158 -97 12 -96 vhcurveto
          -173 hlineto
          -176 -62 -98 -126 hvcurveto
          352 -123 rmoveto
          -1 1 0 10 1 1 0 24 9 3 21 2 rrcurveto
          78 6 0 -43 rlineto
          hintmask 1101001110000000
          -13 -30 -31 -4 -29 0 -27 0 -8 9 0 21 rrcurveto
          endchar
        </CharString>
        <CharString name="at.alt">
          375 -94 145 64 144 233 144 59 144 -144 117 hstemhm
          37 144 316 144 56 144 hintmask 11110111
          37 412 rmoveto
          -268 vlineto
          -181 116 -57 122 vhcurveto
          329 hlineto
          147 90 70 188 hvcurveto
          412 vlineto
          204 -132 59 -115 vhcurveto
          -86 hlineto
          hintmask 11101111
          -75 callsubr
          hintmask 11110111
          50 callsubr
          352 -123 rmoveto
          51 callsubr
          endchar
        </CharString>
        <CharString name="at.smcp">
          375 -178 145 64 144 233 144 59 144 -144 117 hstemhm
          37 144 316 144 56 144 hintmask 11110111
          37 60 rmoveto
          -76 callsubr
          hintmask 11101111
          -75 callsubr
          hintmask 11110111
          50 callsubr
          352 -123 rmoveto
          51 callsubr
          endchar
        </CharString>
        <CharString name="atilde">
          6 0 21 378 142 60 106 -71 106 hstemhm
          298 194 hintmask 00100000
          94 668 rmoveto
          27 -67 rlineto
          hintmask 00010000
          -7 callsubr
          hintmask 00100000
          -6 callsubr
          hintmask 00010000
          -5 callsubr
          hintmask 11001000
          -72 -525 rmoveto
          -40 callsubr
          194 -9 rmoveto
          -39 callsubr
          endchar
        </CharString>
        <CharString name="atilde.salt">
          19 0 134 265 138 60.0980072021 106 -71 106 hstemhm
          310 194 hintmask 00000000
          108.157226562 664.098632812 rmoveto
          27 -67 rlineto
          31 24 23 11 39 0 rrcurveto
          39 0 34 -35 43 0 51 0 39 39 22 33 rrcurveto
          -26 74 rlineto
          -22 -23 -31 -19 -40 2 rrcurveto
          -40 0 -22 35 -44 0 rrcurveto
          -56 0 -42 -38 -25 -36 rrcurveto
          hintmask 11001000
          -80.1572265625 -513.098632812 rmoveto
          114 callsubr
          194 -4 rmoveto
          115 callsubr
          endchar
        </CharString>
        <CharString name="atilde.smcp">
          107 0 21 609 106 -71 106 hstemhm
          hintmask 01000000
          141 697 rmoveto
          27 -67 rlineto
          hintmask 00100000
          -7 callsubr
          hintmask 01000000
          -6 callsubr
          hintmask 00100000
          -5 callsubr
          hintmask 10000000
          -121 -697 rmoveto
          65 callsubr
          90 -339 rmoveto
          66 callsubr
          endchar
        </CharString>
        <CharString name="b">
          46 -6 157 249 139 246 -20 hstem
          34 194 110 194 vstem
          34 hmoveto
          -38 callsubr
          195 -612 rmoveto
          -37 callsubr
          endchar
        </CharString>
        <CharString name="b.salt">
          -8 134 273 140 hstem
          34 194 106 194 vstem
          34 28 rmoveto
          117 callsubr
          194 -655 rmoveto
          118 callsubr
          endchar
        </CharString>
        <CharString name="b.smcp">
          37 0 155 78 124 60 154 hstem
          45 194 90 197 vstem
          45 hmoveto
          67 callsubr
          194 -416 rmoveto
          68 callsubr
          -60 202 rmoveto
          69 callsubr
          endchar
        </CharString>
        <CharString name="b.superior">
          -107 374 118 149 105 hstem
          21 146 73 146 vstem
          21 378 rmoveto
          125 0 22 37 rlineto
          28 -25 24 -16 42 0 rrcurveto
          85 39 52 132 129 -20 59 -104 hvcurveto
          -32 0 -37 -9 -26 -14 rrcurveto
          178 -146 vlineto
          147 -396 rmoveto
          125 vlineto
          7 8 18 3 16 0 rrcurveto
          20 11 -8 -68 -65 -10 -8 -19 hvcurveto
          -21 0 -15 3 -7 10 rrcurveto
          endchar
        </CharString>
        <CharString name="backslash">
          -11 11 770 rmoveto
          281 -842 199 0 -281 842 rlineto
          endchar
        </CharString>
        <CharString name="bar">
          -263 48 154 vstem
          48 -72 rmoveto
          154 842 -154 hlineto
          endchar
        </CharString>
        <CharString name="braceleft">
          -191 70 194 vstem
          11 265 rmoveto
          40 3 19 -22 0 -34 rrcurveto
          -250 vlineto
          -124 65 -48 176 vhcurveto
          144 vlineto
          -46 -1 33 65 hvcurveto
          199 vlineto
          0 57 -39 33 -65 13 65 5 40 27 0 74 rrcurveto
          136 vlineto
          91 4 21 42 vhcurveto
          154 vlineto
          -164 -76 -66 -120 hvcurveto
          -201 vlineto
          0 -38 -27 -12 -33 -3 rrcurveto
          endchar
        </CharString>
        <CharString name="braceright">
          -191 58 194 vstem
          11 -66 rmoveto
          -144 vlineto
          176 65 48 124 hvcurveto
          250 vlineto
          0 34 19 22 40 -3 rrcurveto
          137 vlineto
          -33 3 -27 12 0 38 rrcurveto
          201 vlineto
          120 -76 66 -164 vhcurveto
          -154 vlineto
          42 4 -21 -91 hvcurveto
          -136 vlineto
          0 -74 40 -27 65 -5 -65 -13 -39 -33 0 -57 rrcurveto
          -199 vlineto
          -65 -1 -33 -46 vhcurveto
          endchar
        </CharString>
        <CharString name="bracketleft">
          -169 -210 154 744 154 hstem
          48 194 vstem
          48 12 rmoveto
          -98 27 -124 169 vhcurveto
          90 154 -30 hlineto
          -38 -24 18 60 hvcurveto
          588 vlineto
          60 24 18 38 vhcurveto
          30 154 -90 hlineto
          -139 -57 -70 -132 hvcurveto
          endchar
        </CharString>
        <CharString name="bracketright">
          -169 -210 154 744 154 hstem
          103 194 vstem
          11 -56 rmoveto
          -154 90 vlineto
          169 27 124 98 hvcurveto
          628 vlineto
          132 -57 70 -139 vhcurveto
          -90 -154 30 hlineto
          38 24 -18 -60 hvcurveto
          -588 vlineto
          -60 -24 -18 -38 vhcurveto
          endchar
        </CharString>
        <CharString name="breve">
          -228 530 67 hstem
          28 67 96 67 vstem
          28 644 rmoveto
          43 callsubr
          endchar
        </CharString>
        <CharString name="brokenbar">
          -263 48 154 vstem
          48 -72 rmoveto
          154 328 -154 hlineto
          173 vmoveto
          154 341 -154 hlineto
          endchar
        </CharString>
        <CharString name="bullet">
          -206 274 217 hstem
          48 212 vstem
          48 306 rmoveto
          25 callsubr
          endchar
        </CharString>
        <CharString name="bullet.smcp">
          -206 214 217 hstem
          48 212 vstem
          48 246 rmoveto
          25 callsubr
          endchar
        </CharString>
        <CharString name="c">
          -23 -5 144 253 144 hstem
          28 194 vstem
          28 266 rmoveto
          -36 callsubr
          endchar
        </CharString>
        <CharString name="c.smcp">
          -3 -4 144 294 144 hstem
          31 194 vstem
          31 295 rmoveto
          70 callsubr
          endchar
        </CharString>
        <CharString name="c.superior">
          -167 375 108 144 108 hstem
          17 146 vstem
          17 555 rmoveto
          -138 53 -42 70 vhcurveto
          58 1 76 -12 53 40 rrcurveto
          83 vlineto
          0 -43 -4 -61 -48 -12 11 60 78 15 -5 45 59 40 -4 0 vhcurveto
          85 vlineto
          -72 31 -73 -4 -37 0 rrcurveto
          -72 -51 -42 -138 hvcurveto
          endchar
        </CharString>
        <CharString name="c_h">
          553 -7 144 -116 -21 392 144 246 -20 hstemhm
          22 194 329 193 107 194 hintmask 10111110
          22 266 rmoveto
          -233 127 -40 99 194 297 -51 297 vhcurveto
          120 vlineto
          12 27 24 10 37 0 rrcurveto
          22 11 -10 -42 hvcurveto
          hintmask 01111110
          -344 194 340 vlineto
          112 -16 88 -138 vhcurveto
          -81 0 -39 -32 -27 -29 rrcurveto
          303 -193 -524 vlineto
          hintmask 10111110
          -111 -38 -10 -189 -72 -30 10 115 132 22 -2 68 89 61 -6 0 vhcurveto
          114 vlineto
          -102 41 -104 -5 -52 0 rrcurveto
          -102 -74 -62 -208 hvcurveto
          endchar
        </CharString>
        <CharString name="c_k">
          596 -7 144 -116 -21 395 144 -7 -20 270 -20 hstemhm
          22 194 314 194 hintmask 10001110
          22 269 rmoveto
          -236 92 -40 184 vhcurveto
          78 0 78 22 76 36 rrcurveto
          hintmask 01011110
          -51 194 173 vlineto
          13 10 12 10 12 10 rrcurveto
          113 -203 224 0 -196 327 rlineto
          55 59 77 78 64 67 rrcurveto
          -248 1 rlineto
          0 0 -51 -58 -75 -71 rrcurveto
          379 -194 -542 vlineto
          hintmask 10101110
          -82 -59 -84 -44 -66 0 rrcurveto
          -93 11 39 91 130 22 -2 68 89 61 -6 0 hvcurveto
          114 vlineto
          -102 41 -104 -5 -52 0 rrcurveto
          -102 -74 -62 -208 hvcurveto
          endchar
        </CharString>
        <CharString name="c_t">
          341 -7 144 -139 113 286 134 hstemhm
          22 194 345 194 hintmask 10111000
          22 261 rmoveto
          -233 76 -35 102 vhcurveto
          130 0 59 7 77 31 rrcurveto
          114 vlineto
          0 -64 -8 -92 -72 -22 -8 128 152 42 -13 60 vhcurveto
          243 1 0 -208 rlineto
          hintmask 01111000
          -141 49 -50 80 vhcurveto
          150 113 hlineto
          -7 -42 21 0 hvcurveto
          -22 12 -14 14 0 71 rrcurveto
          168 89 134 -89 148 -166 vlineto
          -28 -148 -353 2 rlineto
          -102 -84 -40 -232 hvcurveto
          endchar
        </CharString>
        <CharString name="cacute">
          -23 -5 144 253 144 60.1920013428 143 hstem
          28 194 2.67900085449 222 vstem
          224.678710938 596.192382812 rmoveto
          2 callsubr
          -273.678710938 -473.192382812 rmoveto
          -36 callsubr
          endchar
        </CharString>
        <CharString name="cacute.smcp">
          -3 -4 144 294 144 65 143 hstemhm
          31 194 -14.5 222 hintmask 00101000
          210.5 643 rmoveto
          2 callsubr
          hintmask 11010000
          -256.5 -491 rmoveto
          70 callsubr
          endchar
        </CharString>
        <CharString name="caron">
          -135 531 140 hstem
          28 322 vstem
          28 671 rmoveto
          45 callsubr
          -20 -140 rmoveto
          131 hmoveto
          endchar
        </CharString>
        <CharString name="caron.smcp">
          -135 531 140 hstem
          28 322 vstem
          28 671 rmoveto
          45 callsubr
          -20 -140 rmoveto
          131 hmoveto
          endchar
        </CharString>
        <CharString name="ccaron">
          -23 -5 144 253 144 60.1920013428 140 hstemhm
          28 194 -109.820999146 322 hintmask 00000000
          112.178710938 736.192382812 rmoveto
          45 callsubr
          -20 -140 rmoveto
          131 hmoveto
          hintmask 11010000
          -306.178710938 -330.192382812 rmoveto
          -36 callsubr
          endchar
        </CharString>
        <CharString name="ccaron.smcp">
          -3 -4 144 294 144 65 140 hstemhm
          31 194 -93 322 hintmask 00101000
          132 783 rmoveto
          45 callsubr
          -20 -140 rmoveto
          131 hmoveto
          hintmask 11010000
          -323 -348 rmoveto
          70 callsubr
          endchar
        </CharString>
        <CharString name="ccedilla">
          -23 -5 144 253 144 hstem
          28 194 vstem
          28 266 rmoveto
          -36 callsubr
          116 -371 rmoveto
          3 callsubr
          endchar
        </CharString>
        <CharString name="ccedilla.smcp">
          -3 -177 146 27 144 294 144 hstemhm
          31 194 -57 182 hintmask 10001000
          168 -98 rmoveto
          3 callsubr
          hintmask 01110000
          -174 378 rmoveto
          70 callsubr
          endchar
        </CharString>
        <CharString name="ccircumflex">
          -23 -5 144 253 144 60 140 hstemhm
          28 194 -124 322 hintmask 00101000
          98 596 rmoveto
          -42 callsubr
          0 vmoveto
          131 hmoveto
          hintmask 11010000
          -301 -470 rmoveto
          -36 callsubr
          endchar
        </CharString>
        <CharString name="ccircumflex.smcp">
          -3 -4 144 294 144 65 140 hstemhm
          31 194 -105 322 hintmask 00101000
          120 643 rmoveto
          -42 callsubr
          0 vmoveto
          131 hmoveto
          hintmask 11010000
          -320 -488 rmoveto
          70 callsubr
          endchar
        </CharString>
        <CharString name="cdotaccent">
          -23 -5 144 253 144 60 142 hstemhm
          28 194 -14 137 hintmask 00101000
          208 619 rmoveto
          46 callsubr
          hintmask 11010000
          -180 -447 rmoveto
          -36 callsubr
          endchar
        </CharString>
        <CharString name="cdotaccent.smcp">
          -3 -4 144 294 144 65 142 hstemhm
          31 194 -1 137 hintmask 00101000
          224 666 rmoveto
          46 callsubr
          hintmask 11010000
          -193 -465 rmoveto
          70 callsubr
          endchar
        </CharString>
        <CharString name="cedilla">
          -275 -183 146 hstem
          28 182 vstem
          28 -104 rmoveto
          3 callsubr
          endchar
        </CharString>
        <CharString name="cent">
          -28 -6 145 253 142 hstemhm
          22 194 -18 108 hintmask 11100000
          22 266 rmoveto
          0 -205 75 -64 97 -2 rrcurveto
          -90 108 89 vlineto
          57 0 57 7 46 32 rrcurveto
          114 vlineto
          hintmask 11010000
          0 -64 -8 -92 vhcurveto
          hintmask 11100000
          -72 -18 3 122 hvcurveto
          hintmask 11010000
          130 22 -2 68 89 61 -6 0 vhcurveto
          114 vlineto
          -52 21 -52 9 -46 4 rrcurveto
          100 -108 -98 vlineto
          -102 -74 -62 -208 hvcurveto
          endchar
        </CharString>
        <CharString name="circumflex">
          -135 531 140 hstem
          28 322 vstem
          28 531 rmoveto
          -42 callsubr
          0 vmoveto
          131 hmoveto
          endchar
        </CharString>
        <CharString name="circumflex.smcp">
          -135 531 140 hstem
          28 322 vstem
          28 531 rmoveto
          -42 callsubr
          0 vmoveto
          131 hmoveto
          endchar
        </CharString>
        <CharString name="colon">
          -256 0 165 201 165 hstem
          48 162 vstem
          48 23 rmoveto
          -94 callsubr
          249 vmoveto
          -94 callsubr
          endchar
        </CharString>
        <CharString name="comma">
          -258 -88 62 hstem
          48 160 vstem
          48 25 rmoveto
          -96 callsubr
          endchar
        </CharString>
        <CharString name="copyright">
          279 0 104 43 104 228 104 45 104 hstem
          31 114 72 114 317 114 vstem
          31 368 rmoveto
          -3 callsubr
          114 hmoveto
          -2 callsubr
          72 -3 rmoveto
          -177 74 -41 79 vhcurveto
          67 0 66 0 52 28 rrcurveto
          92 vlineto
          -40 -8 -49 -8 -58 0 rrcurveto
          -53 -24 27 84 95 16 22 54 hvcurveto
          33 0 52 -3 63 -9 rrcurveto
          92 vlineto
          -58 22 -89 2 -41 0 rrcurveto
          -90 -54 -57 -161 hvcurveto
          endchar
        </CharString>
        <CharString name="currency">
          -76 151 95 127 95 hstem
          63 95 126 95 vstem
          29 429 rmoveto
          51 -48 rlineto
          -11 -21 -6 -25 0 -26 0 -28 8 -25 12 -23 rrcurveto
          -50 -51 59 -56 46 49 rlineto
          24 -15 29 -9 30 0 23 0 22 5 20 9 rrcurveto
          56 -53 52 61 -45 43 rlineto
          19 26 11 32 0 35 0 28 -7 27 -13 23 rrcurveto
          50 52 -61 53 -45 -48 rlineto
          -24 15 -28 9 -30 0 -32 0 -31 -10 -25 -17 rrcurveto
          -49 47 rlineto
          74 -179 rmoveto
          35 28 29 35 35 28 -29 -35 -35 -28 -28 -35 -35 -28 28 35 vhcurveto
          endchar
        </CharString>
        <CharString name="d">
          46 -6 157 249 139 246 -20 hstem
          28 194 110 194 vstem
          28 263 rmoveto
          -35 callsubr
          194 10 rmoveto
          -34 callsubr
          endchar
        </CharString>
        <CharString name="d.salt">
          -8 134 273 140 hstem
          28 194 106 194 vstem
          28 261 rmoveto
          119 callsubr
          194 -7 rmoveto
          120 callsubr
          endchar
        </CharString>
        <CharString name="d.smcp">
          68 0 164 244 164 hstem
          45 194 118 194 vstem
          45 hmoveto
          71 callsubr
          194 -408 rmoveto
          72 callsubr
          endchar
        </CharString>
        <CharString name="d.superior">
          -108 374 118 149 105 hstem
          17 146 73 146 vstem
          17 558 rmoveto
          -137 39 -47 85 vhcurveto
          42 0 24 16 28 25 rrcurveto
          22 -37 125 0 0 523 -146 0 0 -178 rlineto
          -26 14 -37 9 -32 0 rrcurveto
          -104 -20 -54 -134 hvcurveto
          146 7 rmoveto
          68 10 8 19 vhcurveto
          17 0 19 -3 7 -8 rrcurveto
          -125 vlineto
          -7 -10 -15 -3 -21 0 rrcurveto
          -19 -10 8 65 hvcurveto
          endchar
        </CharString>
        <CharString name="dagger">
          -27 424 149 hstemhm
          144 199 -187 173 hintmask 11000000
          11 424 rmoveto
          133 -15 rlineto
          hintmask 10100000
          12 -481 173 0 rlineto
          hintmask 11000000
          14 481 132 15 0 149 -132 15 -13 182 -173 0 -13 -182 -133 -15 rlineto
          endchar
        </CharString>
        <CharString name="daggerdbl">
          -16 124 149 151 149 hstemhm
          147 193 -184 173 hintmask 11010000
          11 124 rmoveto
          141 -19 4 -177 173 0 5 179 141 17 0 149 rlineto
          hintmask 11100000
          -135 18 3 118 132 15 0 149 -132 15 -13 182 -173 0 -13 -182 -133 -15 0 -149 133 -15 3 -117 -136 -19 rlineto
          endchar
        </CharString>
        <CharString name="dcaron">
          139 -6 157 249 139 246 -20 hstem
          28 194 110 194 54 114 vstem
          28 263 rmoveto
          -201 53 -68 119 vhcurveto
          59 0 34 22 39 33 rrcurveto
          28 -49 166 0 0 785 -194 0 0 -276 rlineto
          -36 19 -51 11 -45 0 rrcurveto
          -144 -28 -79 -197 hvcurveto
          194 10 rmoveto
          49 callsubr
          358 509 rmoveto
          0 -67 10 -134 94 0 10 134 0 67 rlineto
          endchar
        </CharString>
        <CharString name="dcaron.salt">
          163 -8 134 273 140 hstem
          28 194 106 194 41 114 vstem
          28 261 rmoveto
          119 callsubr
          194 -7 rmoveto
          120 callsubr
          341 461 rmoveto
          47 callsubr
          endchar
        </CharString>
        <CharString name="dcaron.smcp">
          69 0 164 244 164 59 140 hstemhm
          55 194 -110 322 -94 194 hintmask 00101000
          139 771 rmoveto
          45 callsubr
          -20 -140 rmoveto
          131 hmoveto
          hintmask 11010100
          -306 -631 rmoveto
          71 callsubr
          194 -408 rmoveto
          72 callsubr
          endchar
        </CharString>
        <CharString name="dcroat">
          59 -6 157 249 139 57 74 115 -20 hstem
          22 194 110 194 vstem
          22 263 rmoveto
          -201 53 -68 119 vhcurveto
          59 0 34 22 39 33 rrcurveto
          28 -49 166 0 0 596 60 0 0 74 -60 0 0 115 -194 0 0 -115 -94 0 0 -74 94 0 0 -87 rlineto
          -36 19 -51 11 -45 0 rrcurveto
          -144 -28 -79 -197 hvcurveto
          194 10 rmoveto
          49 callsubr
          endchar
        </CharString>
        <CharString name="dcroat.salt">
          60 -8 134 273 140 67 74 102 -20 hstem
          28 194 106 194 vstem
          28 261 rmoveto
          -200 78 -69 125 vhcurveto
          93 0 142 -4 56 40 rrcurveto
          578 52 74 -52 102 -194 -102 -81 -74 81 -106 vlineto
          -22 29 -30 10 -45 0 rrcurveto
          -153 -50 -86 -192 hvcurveto
          194 -7 rmoveto
          120 callsubr
          endchar
        </CharString>
        <CharString name="dcroat.smcp">
          93 0 164 89 74 81 164 hstem
          66 194 118 194 vstem
          11 253 rmoveto
          103 callsubr
          249 -163 rmoveto
          104 callsubr
          endchar
        </CharString>
        <CharString name="degree">
          -254 530 67 71 67 hstem
          28 66 71 66 vstem
          28 632 rmoveto
          1 callsubr
          66 hmoveto
          20 16 16 20 20 15 -16 -20 -20 -15 -15 -20 -20 -16 15 20 vhcurveto
          endchar
        </CharString>
        <CharString name="degree.smcp">
          -254 365 69 67 69 hstem
          28 68 67 68 vstem
          28 467 rmoveto
          1 callsubr
          68 hmoveto
          18 callsubr
          endchar
        </CharString>
        <CharString name="dieresis">
          -71 516 131 hstem
          28 131 124 131 vstem
          28 582 rmoveto
          -4 callsubr
          255 hmoveto
          -4 callsubr
          endchar
        </CharString>
        <CharString name="dieresis.smcp">
          -71 516 131 hstem
          28 131 124 131 vstem
          28 582 rmoveto
          -4 callsubr
          255 hmoveto
          -4 callsubr
          endchar
        </CharString>
        <CharString name="divide">
          -30 117 125 34 154 30 125 hstem
          165 142 vstem
          28 276 rmoveto
          -77 callsubr
          137 -290 rmoveto
          24 callsubr
          266 vmoveto
          24 callsubr
          endchar
        </CharString>
        <CharString name="dollar">
          53 -8 174 101 194 hstem
          233 108 vstem
          31 479 rmoveto
          -47 8 -165 190 vhcurveto
          60 hlineto
          44 9 -15 -29 hvcurveto
          -16 vlineto
          -30 -16 -11 -43 vhcurveto
          -93 0 -96 7 -40 4 rrcurveto
          -151 vlineto
          78 -26 13 -7 88 -1 rrcurveto
          -82 108 82 vlineto
          97 2 98 41 0 181 rrcurveto
          33 vlineto
          80 -35 132 -152 vhcurveto
          -64 hlineto
          -54 -6 17 31 hvcurveto
          11 vlineto
          42 20 2 54 vhcurveto
          66 0 80 -3 64 -7 rrcurveto
          151 vlineto
          -53 19 -42 11 -73 3 rrcurveto
          86 -108 -86 vlineto
          -111 -4 -91 -50 0 -144 rrcurveto
          endchar
        </CharString>
        <CharString name="dollar.smcp">
          22 198 164 58 236 hstem
          191 108 vstem
          28 364 rmoveto
          -96 33 -70 125 vhcurveto
          100 hlineto
          16 10 -3 -17 hvcurveto
          -14 vlineto
          0 -1 -20 -25 -104 -132 7 0 vhcurveto
          -135 vlineto
          20 -13 59 -7 62 -3 rrcurveto
          -83 108 80 vlineto
          129 78 11 157 hvcurveto
          30 vlineto
          90 -22 84 -128 vhcurveto
          -110 hlineto
          -19 -5 8 14 hvcurveto
          12 vlineto
          14 8 10 16 114 119 -9 0 vhcurveto
          137 vlineto
          -52 10 -69 7 -59 4 rrcurveto
          87 -108 -83 vlineto
          -132 -2 -31 -82 0 -88 rrcurveto
          endchar
        </CharString>
        <CharString name="dotaccent">
          -320 513 142 hstem
          28 137 vstem
          28 536 rmoveto
          46 callsubr
          endchar
        </CharString>
        <CharString name="dotlessi">
          -252 21 -21 531 -20 hstem
          34 194 vstem
          34 hmoveto
          -27 callsubr
          endchar
        </CharString>
        <CharString name="e">
          12 -5 143 57 123 83 134 hstem
          28 194 87 194 vstem
          28 268 rmoveto
          -33 callsubr
          194 50 rmoveto
          -32 callsubr
          endchar
        </CharString>
        <CharString name="e.smcp">
          -3 -2 164 -146 146 44 156 -149 141 54 163 -163 146 hstemhm
          hintmask 10000000
          45 123 rmoveto
          73 callsubr
          hintmask 01000000
          74 callsubr
          hintmask 10100000
          75 callsubr
          hintmask 00010000
          76 callsubr
          hintmask 00101000
          77 callsubr
          hintmask 00000100
          78 callsubr
          hintmask 10001000
          79 callsubr
          endchar
        </CharString>
        <CharString name="e.superior">
          -127 375 107 22 92 37 101 hstem
          17 556 rmoveto
          -122 30 -59 99 vhcurveto
          61 0 100 -3 52 24 rrcurveto
          90 vlineto
          -54 -4 -31 0 -52 0 rrcurveto
          -54 -5 -1 23 hvcurveto
          90 hlineto
          70 44 22 74 119 -49 15 -130 -127 -44 -31 -147 hvcurveto
          146 40 rmoveto
          -2 34 9 3 28 0 rrcurveto
          23 0 -7 -16 -8 -8 -6 -11 hvcurveto
          endchar
        </CharString>
        <CharString name="eacute">
          12 -5 143 57 123 83 134 61 143 hstemhm
          28 194 -9.5 222 -125.5 194 hintmask 00010100
          212.5 596 rmoveto
          2 callsubr
          hintmask 11101010
          -261.5 -471 rmoveto
          -33 callsubr
          194 50 rmoveto
          -32 callsubr
          endchar
        </CharString>
        <CharString name="eacute.smcp">
          -3 -2 164 -146 146 44 156 -149 141 54 146 -146 163 60 143 hstemhm
          225.5 222 hintmask 00000011
          225.5 631 rmoveto
          2 callsubr
          hintmask 10000000
          -257.5 -651 rmoveto
          73 callsubr
          hintmask 01000000
          74 callsubr
          hintmask 10100000
          75 callsubr
          hintmask 00010000
          76 callsubr
          hintmask 00100100
          77 callsubr
          hintmask 00001000
          78 callsubr
          hintmask 10000100
          79 callsubr
          endchar
        </CharString>
        <CharString name="ecaron">
          12 -5 143 57 123 83 134 61 140 hstemhm
          28 194 -108 322 -127 194 hintmask 00010100
          114 736 rmoveto
          45 callsubr
          -20 -140 rmoveto
          131 hmoveto
          hintmask 11101010
          -308 -328 rmoveto
          -33 callsubr
          194 50 rmoveto
          -32 callsubr
          endchar
        </CharString>
        <CharString name="ecaron.smcp">
          -3 -2 164 -146 146 44 156 -149 141 54 146 -146 163 60 140 hstemhm
          117 322 hintmask 00000011
          117 771 rmoveto
          45 callsubr
          -20 -140 rmoveto
          131 hmoveto
          hintmask 10000000
          -294 -508 rmoveto
          73 callsubr
          hintmask 01000000
          74 callsubr
          hintmask 10100000
          75 callsubr
          hintmask 00010000
          76 callsubr
          hintmask 00100100
          77 callsubr
          hintmask 00001000
          78 callsubr
          hintmask 10000100
          79 callsubr
          endchar
        </CharString>
        <CharString name="ecircumflex">
          12 -5 143 57 123 83 134 61 140 hstemhm
          28 194 -123 322 -112 194 hintmask 00010100
          99 596 rmoveto
          -42 callsubr
          0 vmoveto
          131 hmoveto
          hintmask 11101010
          -302 -468 rmoveto
          -33 callsubr
          194 50 rmoveto
          -32 callsubr
          endchar
        </CharString>
        <CharString name="ecircumflex.smcp">
          -3 -2 164 -146 146 44 156 -149 141 54 146 -146 163 60 140 hstemhm
          112 322 hintmask 00000011
          112 631 rmoveto
          -42 callsubr
          0 vmoveto
          131 hmoveto
          hintmask 10000000
          -298 -648 rmoveto
          73 callsubr
          hintmask 01000000
          74 callsubr
          hintmask 10100000
          75 callsubr
          hintmask 00010000
          76 callsubr
          hintmask 00100100
          77 callsubr
          hintmask 00001000
          78 callsubr
          hintmask 10000100
          79 callsubr
          endchar
        </CharString>
        <CharString name="edieresis">
          12 -5 143 57 123 83 134 61 131 hstemhm
          28 194 -155 131 111 194 -181 131 hintmask 00010101
          67 662 rmoveto
          -4 callsubr
          255 hmoveto
          -4 callsubr
          hintmask 11101010
          -294 -394 rmoveto
          -33 callsubr
          194 50 rmoveto
          -32 callsubr
          endchar
        </CharString>
        <CharString name="edieresis.smcp">
          -3 -2 164 -146 146 44 156 -149 141 54 146 -146 163 60 131 hstemhm
          71 131 124 131 hintmask 0000001110000000
          71 697 rmoveto
          -4 callsubr
          255 hmoveto
          -4 callsubr
          hintmask 1000000000000000
          -281 -574 rmoveto
          73 callsubr
          hintmask 0100000000000000
          74 callsubr
          hintmask 1010000000000000
          75 callsubr
          hintmask 0001000000000000
          76 callsubr
          hintmask 0010010000000000
          77 callsubr
          hintmask 0000100000000000
          78 callsubr
          hintmask 1000010000000000
          79 callsubr
          endchar
        </CharString>
        <CharString name="edotaccent">
          12 -5 143 57 123 83 134 61 142 hstemhm
          28 194 -20.5 137 -29.5 194 hintmask 00010100
          201.5 619 rmoveto
          46 callsubr
          hintmask 11101010
          -173.5 -445 rmoveto
          -33 callsubr
          194 50 rmoveto
          -32 callsubr
          endchar
        </CharString>
        <CharString name="edotaccent.smcp">
          -3 -2 164 -146 146 44 156 -149 141 54 146 -146 163 60 142 hstemhm
          210.5 137 hintmask 00000011
          210.5 654 rmoveto
          46 callsubr
          hintmask 10000000
          -165.5 -625 rmoveto
          73 callsubr
          hintmask 01000000
          74 callsubr
          hintmask 10100000
          75 callsubr
          hintmask 00010000
          76 callsubr
          hintmask 00100100
          77 callsubr
          hintmask 00001000
          78 callsubr
          hintmask 10000100
          79 callsubr
          endchar
        </CharString>
        <CharString name="egrave">
          12 -5 143 57 123 83 134 61 143 hstemhm
          28 194 -122.5 222 -12.5 194 hintmask 00010100
          99.5 739 rmoveto
          -41 callsubr
          hintmask 11101010
          -216.5 -471 rmoveto
          -33 callsubr
          194 50 rmoveto
          -32 callsubr
          endchar
        </CharString>
        <CharString name="egrave.smcp">
          -3 -2 164 -146 146 44 156 -149 141 54 146 -146 163 60 143 hstemhm
          121 222 hintmask 00000011
          121 774 rmoveto
          -41 callsubr
          hintmask 10000000
          -221 -651 rmoveto
          73 callsubr
          hintmask 01000000
          74 callsubr
          hintmask 10100000
          75 callsubr
          hintmask 00010000
          76 callsubr
          hintmask 00100100
          77 callsubr
          hintmask 00001000
          78 callsubr
          hintmask 10000100
          79 callsubr
          endchar
        </CharString>
        <CharString name="eight">
          104 0 164 133 153 123 164 hstem
          42 194 146 194 vstem
          42 179 rmoveto
          -82 callsubr
          194 -22 rmoveto
          -81 callsubr
          284 vmoveto
          -80 callsubr
          endchar
        </CharString>
        <CharString name="eight.denominator">
          -51 0 123 69 115 61 123 hstem
          37 146 97 146 vstem
          37 119 rmoveto
          -42 4 -77 139 vhcurveto
          113 hlineto
          70 63 15 110 hvcurveto
          52 vlineto
          0 29 -5 58 -51 9 48 6 8 51 0 18 rrcurveto
          29 vlineto
          84 -47 30 -86 vhcurveto
          -113 hlineto
          -75 -68 -22 -94 hvcurveto
          -43 vlineto
          0 -41 0 -34 56 -25 -43 -6 -13 -39 0 -33 rrcurveto
          146 -7 rmoveto
          34 callsubr
          182 vmoveto
          35 callsubr
          endchar
        </CharString>
        <CharString name="eight.numerator">
          -51 255 123 69 115 61 123 hstem
          37 146 97 146 vstem
          37 374 rmoveto
          -42 4 -77 139 vhcurveto
          113 hlineto
          70 63 15 110 hvcurveto
          51 vlineto
          0 29 -5 58 -51 9 48 6 8 52 0 18 rrcurveto
          29 vlineto
          84 -47 30 -86 vhcurveto
          -113 hlineto
          -75 -68 -22 -94 hvcurveto
          -43 vlineto
          0 -41 0 -35 56 -25 -43 -6 -13 -38 0 -33 rrcurveto
          146 -7 rmoveto
          34 callsubr
          182 vmoveto
          35 callsubr
          endchar
        </CharString>
        <CharString name="eight.oldstyle">
          104 0 164 133 153 123 164 hstem
          42 194 146 194 vstem
          42 179 rmoveto
          -82 callsubr
          194 -22 rmoveto
          -81 callsubr
          284 vmoveto
          -80 callsubr
          endchar
        </CharString>
        <CharString name="eight.smcp">
          38 0 155 66 133 66 155 hstem
          42 194 80 194 vstem
          cntrmask 11100000
          42 130 rmoveto
          -60 14 -70 128 vhcurveto
          183 hlineto
          54 89 15 115 hvcurveto
          70 vlineto
          0 34 -16 55 -42 8 56 12 2 64 0 17 rrcurveto
          43 vlineto
          125 -64 17 -86 vhcurveto
          -166 hlineto
          -90 -62 -15 -127 hvcurveto
          -43 vlineto
          0 -41 18 -54 50 -17 -31 -10 -37 -10 0 -58 rrcurveto
          194 -16 rmoveto
          15 vlineto
          20 9 2 16 vhcurveto
          30 hlineto
          23 2 -5 -20 hvcurveto
          -15 vlineto
          -23 -1 -3 -26 vhcurveto
          -23 hlineto
          -23 -7 0 29 hvcurveto
          195 vmoveto
          22 vlineto
          15 9 4 15 vhcurveto
          32 hlineto
          16 7 -4 -15 hvcurveto
          -25 vlineto
          -10 2 -12 -23 vhcurveto
          -34 hlineto
          -25 1 13 12 hvcurveto
          endchar
        </CharString>
        <CharString name="eight.tnum">
          96 0 164 133 153 123 164 hstem
          38 194 146 194 vstem
          38 179 rmoveto
          -82 callsubr
          194 -22 rmoveto
          -81 callsubr
          284 vmoveto
          -80 callsubr
          endchar
        </CharString>
        <CharString name="eight.tosf">
          96 0 164 133 153 123 164 hstem
          38 194 146 194 vstem
          38 179 rmoveto
          -82 callsubr
          194 -22 rmoveto
          -81 callsubr
          284 vmoveto
          -80 callsubr
          endchar
        </CharString>
        <CharString name="eightinferior">
          -51 -200 123 69 115 61 123 hstem
          37 146 97 146 vstem
          37 -46 rmoveto
          -35 vlineto
          -42 4 -77 139 vhcurveto
          113 hlineto
          70 63 15 110 hvcurveto
          51 vlineto
          0 29 -5 58 -51 9 48 6 8 52 0 18 rrcurveto
          29 vlineto
          84 -47 30 -86 vhcurveto
          -113 hlineto
          -75 -68 -22 -94 hvcurveto
          -43 vlineto
          0 -41 0 -35 56 -25 -43 -6 -13 -38 0 -33 rrcurveto
          146 14 rmoveto
          14 3 10 28 vhcurveto
          36 hlineto
          26 4 -10 -14 hvcurveto
          -21 vlineto
          -14 -2 -10 -29 vhcurveto
          -35 hlineto
          -23 -8 6 18 hvcurveto
          182 vmoveto
          35 callsubr
          endchar
        </CharString>
        <CharString name="eightsuperior">
          -51 355 123 69 115 61 123 hstem
          37 146 97 146 vstem
          37 474 rmoveto
          -42 4 -77 139 vhcurveto
          113 hlineto
          70 63 15 110 hvcurveto
          51 vlineto
          0 29 -4 58 -52 9 49 6 7 52 0 18 rrcurveto
          29 vlineto
          84 -47 30 -86 vhcurveto
          -113 hlineto
          -75 -68 -22 -94 hvcurveto
          -43 vlineto
          0 -41 0 -35 56 -25 -42 -6 -14 -38 0 -33 rrcurveto
          146 -7 rmoveto
          34 callsubr
          182 vmoveto
          35 callsubr
          endchar
        </CharString>
        <CharString name="ellipsis">
          288 0 165 hstem
          24 162 110 162 110 162 vstem
          cntrmask 01110000
          24 23 rmoveto
          -94 callsubr
          272 -117 rmoveto
          -94 callsubr
          272 -117 rmoveto
          -94 callsubr
          endchar
        </CharString>
        <CharString name="emacron">
          12 -5 143 57 123 83 134 61 93 hstemhm
          28 194 -98 292 -107 194 hintmask 00010100
          124 596 rmoveto
          0 callsubr
          hintmask 11101010
          -96 -421 rmoveto
          -33 callsubr
          194 50 rmoveto
          -32 callsubr
          endchar
        </CharString>
        <CharString name="emacron.smcp">
          -3 -2 164 -146 146 44 156 -149 141 54 146 -146 163 60 93 hstemhm
          123 292 hintmask 00000011
          123 631 rmoveto
          0 callsubr
          hintmask 10000000
          -78 -601 rmoveto
          73 callsubr
          hintmask 01000000
          74 callsubr
          hintmask 10100000
          75 callsubr
          hintmask 00010000
          76 callsubr
          hintmask 00100100
          77 callsubr
          hintmask 00001000
          78 callsubr
          hintmask 10000100
          79 callsubr
          endchar
        </CharString>
        <CharString name="emdash">
          223 212 155 hstem
          20 212 rmoveto
          42 callsubr
          endchar
        </CharString>
        <CharString name="emdash.alt">
          223 282 155 hstem
          20 282 rmoveto
          42 callsubr
          endchar
        </CharString>
        <CharString name="emdash.smcp">
          223 199 155 hstem
          20 199 rmoveto
          42 callsubr
          endchar
        </CharString>
        <CharString name="endash">
          0 210 155 hstem
          20 210 rmoveto
          41 callsubr
          endchar
        </CharString>
        <CharString name="endash.alt">
          0 280 155 hstem
          20 280 rmoveto
          41 callsubr
          endchar
        </CharString>
        <CharString name="endash.smcp">
          0 195 155 hstem
          20 195 rmoveto
          41 callsubr
          endchar
        </CharString>
        <CharString name="eng">
          48 21 -21 396 144 -9 -20 hstemhm
          34 194 106 194 hintmask 11011000
          34 hmoveto
          194 359 hlineto
          12 27 24 10 37 0 rrcurveto
          22 11 -10 -42 hvcurveto
          0 -344 0 -54 rlineto
          -2 -84 -13 -7 -55 -15 rrcurveto
          40 -108 rlineto
          65 -2 158 43 0 177 rrcurveto
          1 50 0 340 rlineto
          112 -16 88 -138 vhcurveto
          -81 0 -19 -32 -46 -29 rrcurveto
          hintmask 10111000
          -22 callsubr
          endchar
        </CharString>
        <CharString name="eng.smcp">
          88 21 -21 hstem
          39 194 136 193 vstem
          39 hmoveto
          194 225 hlineto
          137 -222 0 -27 rlineto
          -59 -18 -2 -47 vhcurveto
          -127 vlineto
          174 -8 83 30 0 148 rrcurveto
          0 42 0 571 -193 0 0 -220 -139 220 -191 0 rlineto
          endchar
        </CharString>
        <CharString name="eogonek">
          12 -5 143 -135 20 172 123 83 134 hstemhm
          28 194 87 194 hintmask 01000000
          424 23 rmoveto
          44 callsubr
          hintmask 10111100
          -465 245 rmoveto
          -33 callsubr
          194 50 rmoveto
          -32 callsubr
          endchar
        </CharString>
        <CharString name="eogonek.smcp">
          -3 -4 20 -18 164 -146 146 44 156 -149 141 54 146 -146 163 hstemhm
          hintmask 10000000
          417 16 rmoveto
          44 callsubr
          hintmask 01000000
          -441 107 rmoveto
          73 callsubr
          hintmask 00100000
          74 callsubr
          hintmask 01010000
          75 callsubr
          hintmask 00001000
          76 callsubr
          hintmask 00010010
          77 callsubr
          hintmask 00000100
          78 callsubr
          hintmask 01000010
          79 callsubr
          endchar
        </CharString>
        <CharString name="equal">
          -46 162 154 65 154 hstem
          20 427 vstem
          20 162 rmoveto
          -77 callsubr
          65 vmoveto
          -77 callsubr
          endchar
        </CharString>
        <CharString name="estimated">
          156 0 21 237 17 239 19 hstem
          34 111 379 112 vstem
          34 266 rmoveto
          0 -78 28 -63 55 -51 55 -51 67 -23 96 0 62 0 30 6 42 16 40 16 35 27 38 40 rrcurveto
          -56 hlineto
          -43 -48 -72 -36 -76 0 rrcurveto
          -114 -76 66 27 hvcurveto
          133 vlineto
          13 5 -2 7 vhcurveto
          479 hlineto
          -4 89 -31 75 -58 45 -58 45 -61 21 -89 0 -97 0 -64 -25 -56 -50 -55 -52 -29 -62 0 -78 rrcurveto
          111 18 rmoveto
          137 vlineto
          23 81 70 108 86 104 -57 -42 vhcurveto
          -133 vlineto
          -10 -1 3 -12 vhcurveto
          -357 hlineto
          -5 -4 0 9 hvcurveto
          endchar
        </CharString>
        <CharString name="eth">
          30 0 176 181 174 97 155 hstem
          22 194 110 194 vstem
          22 264 rmoveto
          -179 57 -85 137 vhcurveto
          110 hlineto
          107 87 65 199 hvcurveto
          0 191 -16 139 -82 85 rrcurveto
          48 27 -32 56 -72 -40 rlineto
          -67 40 -93 21 -134 0 rrcurveto
          -155 vlineto
          48 1 41 0 33 -5 rrcurveto
          -42 -24 32 -56 88 50 rlineto
          20 -16 15 -21 9 -31 -20 5 -54 0 -6 0 rrcurveto
          -20 hlineto
          -135 -59 -97 -170 hvcurveto
          194 hmoveto
          78 8 15 34 vhcurveto
          28 hlineto
          40 0 -5 -88 -80 0 -8 -40 hvcurveto
          -28 hlineto
          -42 0 16 72 hvcurveto
          endchar
        </CharString>
        <CharString name="eth.smcp">
          93 0 164 89 74 81 164 hstem
          66 194 118 194 vstem
          11 253 rmoveto
          103 callsubr
          249 -163 rmoveto
          104 callsubr
          endchar
        </CharString>
        <CharString name="exclam">
          -236 0 165 566 -20 hstemhm
          46 184 -176 162 -153 146 hintmask 11010000
          54 23 rmoveto
          -107 callsubr
          hintmask 11100000
          -8 591 rmoveto
          hintmask 11001000
          17 -535 146 0 rlineto
          hintmask 11100000
          21 535 rlineto
          endchar
        </CharString>
        <CharString name="exclam.smcp">
          -237 0 165 hstem
          53 162 vstem
          53 23 rmoveto
          -107 callsubr
          -7 430 rmoveto
          16 -373 145 0 22 373 rlineto
          endchar
        </CharString>
        <CharString name="exclamdown">
          -231 296 165 hstemhm
          47 186 -174 162 -154 147 hintmask 10100000
          59 323 rmoveto
          -19 11 -8 13 vhcurveto
          116 hlineto
          17 5 14 13 hvcurveto
          112 vlineto
          0 14 -12 11 -12 1 rrcurveto
          -114 hlineto
          -14 -1 -10 -8 0 -14 rrcurveto
          hintmask 11000000
          -12 -708 rmoveto
          186 0 rlineto
          hintmask 10010000
          -19 535 -147 0 rlineto
          endchar
        </CharString>
        <CharString name="exclamdown.alt">
          -236 21 -21 566 165 hstemhm
          46 184 -170 162 -155 146 hintmask 11010000
          60 591 rmoveto
          -14 8 -11 15 vhcurveto
          115 hlineto
          16 8 10 15 hvcurveto
          117 vlineto
          14 -10 9 -14 vhcurveto
          -115 hlineto
          -14 -9 -8 -15 hvcurveto
          hintmask 11100000
          -14 -708 rmoveto
          184 0 rlineto
          hintmask 11001000
          -17 535 -146 0 rlineto
          endchar
        </CharString>
        <CharString name="exclamdown.smcp">
          -237 21 -21 405 165 hstemhm
          58 161 -154 145 hintmask 11100000
          58 430 rmoveto
          -14 8 -11 15 vhcurveto
          114 hlineto
          16 8 10 15 hvcurveto
          117 vlineto
          14 -10 9 -14 vhcurveto
          -114 hlineto
          -14 -9 -8 -15 hvcurveto
          -12 -547 rmoveto
          183 0 rlineto
          hintmask 11010000
          -19 373 -145 0 rlineto
          endchar
        </CharString>
        <CharString name="f">
          -106 21 -21 397 134 121 134 hstem
          83 194 vstem
          11 397 rmoveto
          -31 callsubr
          endchar
        </CharString>
        <CharString name="f.salt">
          -134 21 -21 397 134 123 132 hstem
          34 194 vstem
          34 hmoveto
          121 callsubr
          endchar
        </CharString>
        <CharString name="f.smcp">
          -3 21 -21 186 156 -149 141 74 163 -163 146 hstemhm
          45 194 hintmask 11000100
          45 hmoveto
          194 186 hlineto
          hintmask 10100100
          76 callsubr
          hintmask 11010100
          80 callsubr
          hintmask 10001100
          78 callsubr
          hintmask 11010100
          81 callsubr
          endchar
        </CharString>
        <CharString name="f.superior">
          -211 633 101 -101 88 80 101 hstemhm
          63 146 hintmask 01110000
          15 633 rmoveto
          48 -255 146 hlineto
          hintmask 10110000
          255 63 101 -63 22 vlineto
          0 34 0 12 31 -1 rrcurveto
          0 47 -1 1 vhcurveto
          84 vlineto
          -28 15 -29 3 -35 0 rrcurveto
          -86 -47 -25 -86 hvcurveto
          hintmask 01110000
          -70 -48 vlineto
          endchar
        </CharString>
        <CharString name="f_f">
          294 21 -21 397 134 110 135 -124 134 hstemhm
          108 194 181 194 hintmask 11011100
          11 397 rmoveto
          97 -397 194 397 181 -397 194 397 98 134 -98 39 hlineto
          0 62 -4 21 50 -1 rrcurveto
          0 72 -1 1 vhcurveto
          111 vlineto
          -39 20 -41 4 -49 0 rrcurveto
          -120 -64 -35 -121 hvcurveto
          -99 -179 36 vlineto
          hintmask 11101100
          0 48 1 27 45 -1 rrcurveto
          0 62 -1 1 vhcurveto
          112 vlineto
          -38 18 -53 6 -49 0 rrcurveto
          -120 -43 -84 -72 hvcurveto
          0 -89 -99 -17 rlineto
          endchar
        </CharString>
        <CharString name="f_f_i">
          524 21 -21 397 134 110 135 -124 134 hstemhm
          108 195 171 194 142 194 hintmask 11011110
          11 397 rmoveto
          97 -397 195 397 171 -397 194 397 142 -397 194 521 hlineto
          -336 10 0 19 rlineto
          92 66 10 50 vhcurveto
          0 192 -1 1 vhcurveto
          111 vlineto
          -39 20 -181 5 -49 -1 -146 -4 -88 -101 0 -121 rrcurveto
          -29 -171 36 vlineto
          hintmask 11101110
          3 48 -1 27 45 -1 rrcurveto
          0 62 -1 1 vhcurveto
          112 vlineto
          -38 18 -53 6 -49 0 rrcurveto
          -120 -43 -84 -72 hvcurveto
          0 -89 -99 -17 rlineto
          endchar
        </CharString>
        <CharString name="f_t">
          243 -1 113 286 134 120 134 hstem
          83 194 186 194 vstem
          11 397 rmoveto
          72 -397 194 398 186 -208 hlineto
          -141 49 -50 80 vhcurveto
          150 113 hlineto
          -7 -42 21 0 hvcurveto
          -22 12 -14 14 0 71 rrcurveto
          168 89 134 -89 148 -166 vlineto
          -28 -148 -186 0 0 38 rlineto
          0 62 -4 21 50 -1 rrcurveto
          0 72 -1 1 vhcurveto
          111 vlineto
          -39 20 -41 4 -49 0 rrcurveto
          -120 -64 -35 -121 hvcurveto
          0 -99 -72 -17 rlineto
          endchar
        </CharString>
        <CharString name="f_y">
          476 21 -21 397 134 121 134 hstem
          83 194 vstem
          11 397 rmoveto
          72 -397 194 397 78 hlineto
          61 1 24 -15 15 -68 rrcurveto
          35 -159 rlineto
          20 -90 54 -66 116 0 rrcurveto
          -59 -270 144 0 71 102 143 699 -197 0 -70 -375 rlineto
          -16 1 -21 7 -6 31 rrcurveto
          -36 196 rlineto
          -16 87 -66 54 -125 -1 rrcurveto
          -149 39 hlineto
          0 62 -4 21 50 -1 rrcurveto
          0 72 -1 1 vhcurveto
          111 vlineto
          -39 20 -41 4 -49 0 rrcurveto
          -120 -64 -35 -121 hvcurveto
          0 -99 -72 -17 rlineto
          endchar
        </CharString>
        <CharString name="ffl">
          608 0 113 284 134 110 135 -124 134 hstemhm
          108 195 176 194 158 194 hintmask 11011110
          11 397 rmoveto
          97 -397 195 397 176 -397 194 397 98 134 -98 39 hlineto
          62 16 20 50 vhcurveto
          0 47 -1 45 vhcurveto
          -462 vlineto
          -141 47 -48 95 vhcurveto
          138 113 hlineto
          -7 -42 21 0 hvcurveto
          -22 12 -15 14 0 69 rrcurveto
          0 554 -322 3 rlineto
          -120 -104 -31 -185 hvcurveto
          -39 -176 36 vlineto
          hintmask 11101110
          1 48 1 27 45 -1 rrcurveto
          0 62 -1 1 vhcurveto
          112 vlineto
          -38 18 -53 6 -49 0 rrcurveto
          -120 -43 -84 -72 hvcurveto
          0 -89 -99 -17 rlineto
          endchar
        </CharString>
        <CharString name="fi">
          131 21 -21 397 134 121 134 hstem
          83 194 142 194 vstem
          11 397 rmoveto
          72 -397 194 397 142 -397 194 521 hlineto
          -336 10 0 19 rlineto
          92 66 10 50 vhcurveto
          0 192 -1 1 vhcurveto
          111 vlineto
          -39 20 -181 5 -49 -1 -146 -4 -88 -101 0 -121 rrcurveto
          0 -29 -72 -17 rlineto
          endchar
        </CharString>
        <CharString name="five">
          79 -4 179 -155 155 137 164 82 174 hstemhm
          366 194 hintmask 01111000
          43 20 rmoveto
          hintmask 10111000
          -86 callsubr
          hintmask 01111000
          -264 hlineto
          endchar
        </CharString>
        <CharString name="five.denominator">
          -95 -3 134 -116 116 64 123 38 131 hstemhm
          hintmask 01110000
          31 15 rmoveto
          hintmask 10110000
          95 -17 39 -1 88 0 rrcurveto
          69 74 35 92 hvcurveto
          63 vlineto
          0 71 -37 54 -85 6 -36 4 -38 1 -29 -20 rrcurveto
          3 53 199 0 0 131 -326 0 -15 -308 126 0 rlineto
          11 9 5 21 vhcurveto
          30 hlineto
          26 6 -9 -16 hvcurveto
          -14 vlineto
          -9 6 -16 -46 vhcurveto
          hintmask 01110000
          -179 hlineto
          endchar
        </CharString>
        <CharString name="five.numerator">
          -95 252 134 -116 116 69 123 33 131 hstemhm
          hintmask 01110000
          31 270 rmoveto
          hintmask 10110000
          95 -17 39 -1 88 0 rrcurveto
          69 74 36 93 hvcurveto
          64 vlineto
          0 72 -37 54 -85 7 -37 4 -36 0 -30 -19 rrcurveto
          3 48 199 0 0 131 -326 0 -15 -320 126 0 rlineto
          23 9 10 21 vhcurveto
          30 hlineto
          26 6 -10 -17 hvcurveto
          -15 vlineto
          -10 6 -17 -46 vhcurveto
          hintmask 01110000
          -179 hlineto
          endchar
        </CharString>
        <CharString name="five.oldstyle">
          89 -104 179 -155 155 137 164 82 174 hstemhm
          366 194 hintmask 01111000
          43 75 rmoveto
          -155 vlineto
          hintmask 10111000
          -86 callsubr
          endchar
        </CharString>
        <CharString name="five.smcp">
          9 -1 169 -145 145 56 143 29 174 hstemhm
          hintmask 01110000
          43 23 rmoveto
          hintmask 10110000
          83 -23 97 -2 99 1 85 1 83 30 0 122 rrcurveto
          43 vlineto
          116 -50 56 -118 vhcurveto
          -32 hlineto
          -23 0 -30 -3 -21 -21 rrcurveto
          6 53 242 0 0 174 -403 0 -17 -371 160 0 rlineto
          24 22 1 13 vhcurveto
          33 hlineto
          20 4 0 -26 hvcurveto
          -7 vlineto
          -23 -10 0 -19 vhcurveto
          hintmask 01110000
          -224 hlineto
          endchar
        </CharString>
        <CharString name="five.tnum">
          96 -4 179 -155 155 137 164 82 174 hstemhm
          366 194 hintmask 01111000
          43 20 rmoveto
          hintmask 10111000
          -86 callsubr
          hintmask 01111000
          -264 hlineto
          endchar
        </CharString>
        <CharString name="five.tosf">
          96 -104 179 -155 155 137 164 82 174 hstemhm
          366 194 hintmask 01111000
          43 75 rmoveto
          -155 vlineto
          hintmask 10111000
          -86 callsubr
          endchar
        </CharString>
        <CharString name="fiveinferior">
          -95 -203 134 -116 116 69 123 33 131 hstemhm
          250 146 hintmask 10111000
          32 -11 rmoveto
          126 hlineto
          8 9 3 21 vhcurveto
          30 hlineto
          26 6 -10 -17 hvcurveto
          -15 vlineto
          -10 6 -17 -46 vhcurveto
          hintmask 01111000
          -179 -116 hlineto
          hintmask 10111000
          95 -17 39 -1 88 0 rrcurveto
          69 74 36 93 hvcurveto
          64 vlineto
          0 72 -37 54 -85 7 -37 4 -36 0 -30 -19 rrcurveto
          3 48 199 0 0 131 -326 0 rlineto
          endchar
        </CharString>
        <CharString name="fivesuperior">
          -99 352 134 -116 116 67 -21 23 123 33 131 hstemhm
          hintmask 01111000
          31 370 rmoveto
          hintmask 10111000
          94 -17 39 -1 87 0 rrcurveto
          68 73 36 93 hvcurveto
          64 vlineto
          0 72 -37 54 -84 7 -36 4 -35 0 -30 -19 rrcurveto
          2 48 197 0 0 131 -322 0 -15 -310 124 0 rlineto
          16 8 7 21 vhcurveto
          29 hlineto
          26 6 -10 -17 hvcurveto
          -15 vlineto
          -10 7 -17 -46 vhcurveto
          hintmask 01111000
          -176 hlineto
          endchar
        </CharString>
        <CharString name="fl">
          213 0 113 284 134 121 134 hstem
          83 194 158 194 vstem
          11 397 rmoveto
          72 -397 194 397 98 134 -98 39 hlineto
          62 16 20 50 vhcurveto
          0 47 -1 45 vhcurveto
          -462 vlineto
          -141 47 -48 95 vhcurveto
          138 113 hlineto
          -7 -42 21 0 hvcurveto
          -22 12 -15 14 0 69 rrcurveto
          0 554 -322 3 rlineto
          -120 -104 -31 -185 hvcurveto
          0 -39 -72 -17 rlineto
          endchar
        </CharString>
        <CharString name="florin">
          81 -204 144 417 134 165 144 -144 119 hstemhm
          hintmask 11100000
          11 -179 rmoveto
          19 -14 45 -11 73 0 120 0 64 106 29 186 rrcurveto
          42 269 95 0 21 134 -95 0 3 15 rlineto
          14 87 17 63 69 0 rrcurveto
          38 0 rlineto
          hintmask 11010000
          18 119 rlineto
          hintmask 11100000
          -17 7 -26 18 -92 0 -117 0 -71 -126 -27 -168 rrcurveto
          -3 -15 -74 0 -21 -134 74 0 -42 -269 rlineto
          -11 -70 -16 -78 -70 0 rrcurveto
          -40 hlineto
          endchar
        </CharString>
        <CharString name="four">
          122 23 -21 135 178 417 -20 hstem
          370 194 vstem
          11 224 rmoveto
          -87 callsubr
          endchar
        </CharString>
        <CharString name="four.denominator">
          -65 23 -21 78 134 hstem
          254 146 vstem
          9 146 rmoveto
          9 callsubr
          endchar
        </CharString>
        <CharString name="four.numerator">
          -65 335 134 hstem
          254 146 vstem
          9 400 rmoveto
          23 -65 222 0 0 -78 146 0 0 96 40 4 0 112 -40 0 0 139 -125 0 -21 -51 0 -88 -60 0 105 273 -149 0 rlineto
          endchar
        </CharString>
        <CharString name="four.oldstyle">
          122 37 178 hstem
          370 194 vstem
          11 124 rmoveto
          -87 callsubr
          endchar
        </CharString>
        <CharString name="four.smcp">
          55 23 -21 hstem
          313 194 vstem
          11 205 rmoveto
          47 -97 255 0 0 -106 194 0 0 106 50 19 0 149 -50 0 0 180 -157 0 -37 -95 0 -85 -64 0 121 294 -201 0 rlineto
          endchar
        </CharString>
        <CharString name="four.tnum">
          96 23 -21 135 178 417 -20 hstem
          375 194 vstem
          16 224 rmoveto
          -87 callsubr
          endchar
        </CharString>
        <CharString name="four.tosf">
          96 37 178 hstem
          358 194 vstem
          -1 124 rmoveto
          -87 callsubr
          endchar
        </CharString>
        <CharString name="fourinferior">
          -65 -120 134 hstem
          254 146 vstem
          9 -55 rmoveto
          23 -65 222 0 0 -78 146 0 0 96 40 4 0 112 -40 0 0 138 -125 0 -21 -51 0 -87 -60 0 105 273 -149 0 rlineto
          endchar
        </CharString>
        <CharString name="foursuperior">
          -71 435 134 hstem
          248 146 vstem
          9 500 rmoveto
          23 -65 216 0 0 -78 146 0 0 96 40 4 0 112 -40 0 0 138 -125 0 -21 -51 0 -87 -64 0 109 273 -143 0 rlineto
          endchar
        </CharString>
        <CharString name="fraction">
          -118 21 -21 hstem
          -51 hmoveto
          131 0 366 770 -131 0 rlineto
          endchar
        </CharString>
        <CharString name="g">
          53 -270 144 91 145 39 144 96 144 hstemhm
          25 169 -164 194 107 194 -182 193 hintmask 11111001
          25 92 rmoveto
          0 -70 35 -38 28 -12 rrcurveto
          -52 -35 0 -53 rlineto
          -106 76 -48 94 vhcurveto
          150 hlineto
          131 49 64 90 hvcurveto
          53 vlineto
          127 -73 46 -107 vhcurveto
          -122 hlineto
          -22.091003418 -17.908996582 0 21 21 24 -3 16 hvcurveto
          96 hlineto
          hintmask 11110110
          -30 callsubr
          206 -177 rmoveto
          50 40 vlineto
          33 hlineto
          hintmask 11110001
          25.0679931641 -0.759796142578 13.9320068359 -15.2402038574 0 -16 rrcurveto
          -23 vlineto
          -18 3 -18 -43 vhcurveto
          -28 hlineto
          -35 -9 5 36 hvcurveto
          hintmask 11110110
          -7 429 rmoveto
          27 3 18 36 vhcurveto
          24 hlineto
          25 19 -1.95399475098 -43.046005249 -49 -12 -2 -31 hvcurveto
          -22 hlineto
          -27 -15 2 49 hvcurveto
          endchar
        </CharString>
        <CharString name="g.salt">
          -248 129 125 140 263 134 hstem
          28 194 106 194 vstem
          28 284 rmoveto
          52 callsubr
          194 7 rmoveto
          53 callsubr
          endchar
        </CharString>
        <CharString name="g.smcp">
          46 -7 173 -145 -21 232 99 hstemhm
          31 194 hintmask 10110000
          31 286 rmoveto
          82 callsubr
          hintmask 01110000
          83 callsubr
          hintmask 10110000
          84 callsubr
          endchar
        </CharString>
        <CharString name="g.superior">
          -93 192 108 171 101 66 100 hstem
          24 146 66 143 vstem
          24 296 rmoveto
          -79 65 -25 69 vhcurveto
          104 hlineto
          121 7 69 40 hvcurveto
          8 vlineto
          0 89 -28 29 -87 7 rrcurveto
          -100 8 rlineto
          -15 1 -17 -3 0 18 rrcurveto
          16 20 -3 11 vhcurveto
          77 hlineto
          97 31 47 56 hvcurveto
          0 23 5 31 -12 15 rrcurveto
          31 17 0 78 -248 0 rlineto
          -73 -62 -31 -98 hvcurveto
          0 -36 7 -47 36 -19 -35 -4 -11 -38 0 -22 0 -48 18 -17 39 -11 rrcurveto
          -50 -21 rlineto
          146 -19 rmoveto
          0 23 24 -2 23 -2 rlineto
          22 -2 5 -3 0 -16 rrcurveto
          -5 vlineto
          -21 -11 1 -11 vhcurveto
          -24 hlineto
          -27 -1 11 16 hvcurveto
          -4 281 rmoveto
          28 14 2 12 vhcurveto
          17 hlineto
          10 17 0 -29 -26 -1 -11 -25 hvcurveto
          -15 hlineto
          -17 -12 3 33 hvcurveto
          endchar
        </CharString>
        <CharString name="gbreve">
          53 -270 144 91 145 39 144 96 144 63 67 hstemhm
          25 169 -164 194 -57 67 96 67 -66 194 -182 193 hintmask 0000100110000000
          167 710 rmoveto
          43 callsubr
          hintmask 1111010000100000
          -209 -618 rmoveto
          56 callsubr
          hintmask 1111001001000000
          -30 callsubr
          206 -177 rmoveto
          50 40 vlineto
          33 hlineto
          hintmask 1111000000100000
          57 callsubr
          hintmask 1111001001000000
          -7 429 rmoveto
          58 callsubr
          endchar
        </CharString>
        <CharString name="gbreve.salt">
          -248 129 125 140 263 134 60 67 hstemhm
          28 194 -50 67 89 194 -187 67 hintmask 00010101
          172 717 rmoveto
          43 callsubr
          hintmask 11101010
          -211 -433 rmoveto
          52 callsubr
          194 7 rmoveto
          53 callsubr
          endchar
        </CharString>
        <CharString name="gbreve.smcp">
          46 -7 173 -166 21 211 99 310.281997681 67 hstemhm
          31 194 -39.6719970703 67 96 67 hintmask 00010110
          185.328125 755.282226562 rmoveto
          43 callsubr
          hintmask 10101000
          -221.328125 -469.282226562 rmoveto
          82 callsubr
          hintmask 01101000
          83 callsubr
          hintmask 10101000
          84 callsubr
          endchar
        </CharString>
        <CharString name="gcircumflex">
          53 -270 144 91 145 39 144 96 144 63 140 hstemhm
          25 169 -164 194 -105 322 -110 194 -182 193 hintmask 0000100100000000
          119 596 rmoveto
          -42 callsubr
          0 vmoveto
          131 hmoveto
          hintmask 1111010001000000
          -325 -644 rmoveto
          56 callsubr
          hintmask 1111001010000000
          -30 callsubr
          206 -177 rmoveto
          50 40 vlineto
          33 hlineto
          hintmask 1111000001000000
          57 callsubr
          hintmask 1111001010000000
          -7 429 rmoveto
          58 callsubr
          endchar
        </CharString>
        <CharString name="gcircumflex.salt">
          -248 129 125 140 263 134 60 140 hstemhm
          28 194 -99 322 -117 194 hintmask 00010100
          123 603 rmoveto
          -42 callsubr
          0 vmoveto
          131 hmoveto
          hintmask 11101010
          -326 -459 rmoveto
          52 callsubr
          194 7 rmoveto
          53 callsubr
          endchar
        </CharString>
        <CharString name="gcircumflex.smcp">
          46 -7 173 -166 21 211 99 310 140 hstemhm
          31 194 -94 322 hintmask 00010100
          131 641 rmoveto
          -42 callsubr
          0 vmoveto
          131 hmoveto
          hintmask 10101000
          -331 -495 rmoveto
          82 callsubr
          hintmask 01101000
          83 callsubr
          hintmask 10101000
          84 callsubr
          endchar
        </CharString>
        <CharString name="gcommaaccent">
          53 -270 144 275 134 116 134 232.800994873 55.8000030518 hstemhm
          25 169 -164 194 -18.1999969482 144 -18.8000030518 194 hintmask 11110010
          205.800003052 617.300994873 rmoveto
          60 callsubr
          hintmask 11111001
          -180.800003052 -660.300994873 rmoveto
          0 -70 45 -29 28 -12 rrcurveto
          -62 -33 0 -64 rlineto
          -106 76 -48 94 vhcurveto
          150 hlineto
          131 49 64 90 hvcurveto
          33 vlineto
          0 149 -67 21 -105 10 rrcurveto
          -130 13 rlineto
          -22 2 -18 -2 0 21 rrcurveto
          22 24 -4 16 vhcurveto
          96 hlineto
          156 39 75 90 hvcurveto
          0 56 -3 16 -8 23 rrcurveto
          41 18 0 106 -332 0 rlineto
          hintmask 11110100
          -130 -63 -62 -127 hvcurveto
          0 -53 15 -67 44 -28 rrcurveto
          -46 -12 -18 -37 0 -55 rrcurveto
          206 -177 rmoveto
          40 vlineto
          0 0 30 -2 10 -1 rrcurveto
          33 -3 rlineto
          25 -2 14 -8 0 -16 rrcurveto
          -13 vlineto
          -18 3 -18 -43 vhcurveto
          -28 hlineto
          -35 -9 5 36 hvcurveto
          -7 429 rmoveto
          27 3 28 36 vhcurveto
          24 hlineto
          hintmask 11110101
          25 19 -2 -53 -47 -12 -14 -31 hvcurveto
          -22 hlineto
          -27 -15 12 49 hvcurveto
          endchar
        </CharString>
        <CharString name="gcommaaccent.salt">
          -248 129 125 140 263 134 222.800994873 55.8000030518 hstemhm
          28 194 -6.19999694824 144 -31.8000030518 194 hintmask 11110100
          215.800003052 617.300994873 rmoveto
          60 callsubr
          hintmask 11111010
          -187.800003052 -468.300994873 rmoveto
          52 callsubr
          194 7 rmoveto
          53 callsubr
          endchar
        </CharString>
        <CharString name="gcommaaccent.smcp">
          45 -304.199996948 55.8000030518 241.399993896 173 -145 -21 232 99 hstemhm
          31 194 -3.80000305176 144 hintmask 11011000
          31 286 rmoveto
          82 callsubr
          hintmask 10111000
          83 callsubr
          hintmask 11011000
          84 callsubr
          hintmask 00000100
          190.200195312 -488.5 rmoveto
          59 callsubr
          endchar
        </CharString>
        <CharString name="gdotaccent">
          53 -270 144 91 145 39 144 96 144 63 142 hstemhm
          25 169 -164 194 -9 137 -21 194 -182 193 hintmask 0000100100000000
          215 619 rmoveto
          46 callsubr
          hintmask 1111010001000000
          -190 -621 rmoveto
          56 callsubr
          hintmask 1111001010000000
          -30 callsubr
          206 -177 rmoveto
          50 40 vlineto
          33 hlineto
          hintmask 1111000001000000
          57 callsubr
          hintmask 1111001010000000
          -7 429 rmoveto
          58 callsubr
          endchar
        </CharString>
        <CharString name="gdotaccent.salt">
          -248 129 125 140 263 134 60 142 hstemhm
          28 194 -4.5 137 -26.5 194 hintmask 00010100
          217.5 626 rmoveto
          46 callsubr
          hintmask 11101010
          -189.5 -436 rmoveto
          52 callsubr
          194 7 rmoveto
          53 callsubr
          endchar
        </CharString>
        <CharString name="gdotaccent.smcp">
          46 -7 173 -166 21 211 99 310 142 hstemhm
          31 194 -7 137 hintmask 00010100
          218 664 rmoveto
          46 callsubr
          hintmask 10101000
          -187 -472 rmoveto
          82 callsubr
          hintmask 01101000
          83 callsubr
          hintmask 10101000
          84 callsubr
          endchar
        </CharString>
        <CharString name="germandbls">
          61 -8 144 -115 -21 613 171 hstemhm
          34 194 33 184 hintmask 01111000
          34 hmoveto
          194 476 hlineto
          101 7 36 62 38 22 -11 -56 vhcurveto
          0 -21 -6 -21 -28 -28 -34 -34 -28 -27 0 -64 0 -98 109 -4 0 -59 rrcurveto
          -6 vlineto
          hintmask 10111000
          -40 -27 -8 -23 vhcurveto
          -13 0 -17 2 -32 4 rrcurveto
          -131 vlineto
          33 -11 27 -8 68 0 rrcurveto
          95 83 30 130 hvcurveto
          17 vlineto
          0 110 -119 26 0 43 0 32 30 14 26 38 96 141 -29 211 -281 0 rrcurveto
          -174 -79 -102 -116 hvcurveto
          endchar
        </CharString>
        <CharString name="germandbls.smcp">
          524 -10 154 54 164 49 137 -128 153 hstemhm
          hintmask 11010000
          21 364 rmoveto
          37 vlineto
          89 32 83 136 vhcurveto
          hintmask 11100000
          52 0 141 -8 90 -17 rrcurveto
          -137 vlineto
          hintmask 11010000
          0 -119 9 -114 -16 -8 -10 -14 vhcurveto
          -12 vlineto
          -14 5 -8 19 vhcurveto
          110 hlineto
          128 22 -84 -90 hvcurveto
          -30 vlineto
          -127 -58 -41 -92 vhcurveto
          -45 0 -219 -2 -42 28 rrcurveto
          135 vlineto
          0 132 -7 104 25 1 7 13 vhcurveto
          14 vlineto
          17 -10 3 -16 vhcurveto
          -100 hlineto
          -125 -33 70 96 hvcurveto
          514 37 rmoveto
          -39 vlineto
          -96 33 -68 125 vhcurveto
          100 hlineto
          16 10 -3 -17 hvcurveto
          -14 vlineto
          -13 -1 -7 -25 -104 -132 7 0 vhcurveto
          -135 vlineto
          42 -28 219 2 45 0 rrcurveto
          92 58 41 127 hvcurveto
          30 vlineto
          90 -22 84 -128 vhcurveto
          -110 hlineto
          -19 -5 8 14 hvcurveto
          12 vlineto
          14 8 10 16 vhcurveto
          hintmask 11100000
          114 119 -9 0 hvcurveto
          137 vlineto
          hintmask 11010000
          -90 17 -141 8 -52 0 rrcurveto
          -136 -32 -83 -89 hvcurveto
          endchar
        </CharString>
        <CharString name="grave">
          -269 531 143 hstem
          11 222 vstem
          11 674 rmoveto
          -41 callsubr
          endchar
        </CharString>
        <CharString name="grave.smcp">
          -269 531 143 hstem
          11 222 vstem
          11 674 rmoveto
          -41 callsubr
          endchar
        </CharString>
        <CharString name="greater">
          -82 28 130 rmoveto
          375 136 0 170 -375 130 0 -170 185 -43 -185 -53 rlineto
          endchar
        </CharString>
        <CharString name="greaterequal">
          -83 63 134 hstem
          28 63 rmoveto
          375 134 -375 hlineto
          33 vmoveto
          375 116 0 170 -375 110 0 -170 185 -23 -185 -33 rlineto
          endchar
        </CharString>
        <CharString name="guillemotleft">
          94 28 354 rmoveto
          -1 callsubr
          41 -203 rmoveto
          -1 callsubr
          endchar
        </CharString>
        <CharString name="guillemotright">
          94 28 244 rmoveto
          7 callsubr
          136 -110 rmoveto
          7 callsubr
          endchar
        </CharString>
        <CharString name="guilsinglleft">
          -157 28 303 vstem
          28 354 rmoveto
          -1 callsubr
          endchar
        </CharString>
        <CharString name="guilsinglright">
          -157 28 304 vstem
          28 244 rmoveto
          7 callsubr
          endchar
        </CharString>
        <CharString name="h">
          21 -21 396 144 242 -20 hstem
          34 194 106 194 vstem
          34 hmoveto
          -29 callsubr
          endchar
        </CharString>
        <CharString name="h.smcp">
          64 20 -21 189 174 hstem
          45 194 111 194 vstem
          45 -1 rmoveto
          85 callsubr
          endchar
        </CharString>
        <CharString name="h.superior">
          -108 634 109 hstem
          21 146 71 146 vstem
          21 378 rmoveto
          146 233 hlineto
          8 17 17 6 24 0 rrcurveto
          15 7 -7 -27 hvcurveto
          -222 146 230 vlineto
          76 -11 59 -100 vhcurveto
          -59 0 -28 -26 -20 -20 rrcurveto
          202 -145 vlineto
          endchar
        </CharString>
        <CharString name="hbar">
          68 21 -21 396 144 60 74 108 -20 hstem
          60 193 107 194 vstem
          600 vmoveto
          60 -600 194 359 hlineto
          12 27 24 10 37 0 rrcurveto
          22 11 -10 -42 hvcurveto
          -344 194 340 vlineto
          112 -16 88 -138 vhcurveto
          -81 0 -20 -32 -46 -29 rrcurveto
          121 95 74 -95 108 -193 -108 -60 vlineto
          endchar
        </CharString>
        <CharString name="hbar.smcp">
          145 20 -21 189 174 47 71 hstem
          83 194 111 194 vstem
          28 409 rmoveto
          55 -410 194 189 111 -189 194 410 48 71 -48 90 -194 -90 -111 hlineto
          90 -194 -90 -55 vlineto
          249 -118 rmoveto
          47 111 -47 vlineto
          endchar
        </CharString>
        <CharString name="hcircumflex">
          0 21 375 144 222 20 60 140 hstemhm
          -101 322 -264 194 106 194 hintmask 00011000
          -101 842 rmoveto
          -42 callsubr
          0 vmoveto
          131 hmoveto
          hintmask 11100110
          -173 -982 rmoveto
          -29 callsubr
          endchar
        </CharString>
        <CharString name="hcircumflex.smcp">
          64 -1 21 168 174 268 140 hstemhm
          45 194 -105.5 322 -105.5 194 hintmask 00101000
          133.5 630 rmoveto
          -42 callsubr
          0 vmoveto
          131 hmoveto
          hintmask 11010100
          -319.5 -771 rmoveto
          85 callsubr
          endchar
        </CharString>
        <CharString name="hungarumlaut">
          -94 531 143 hstem
          11 531 rmoveto
          2 callsubr
          96 -143 rmoveto
          2 callsubr
          endchar
        </CharString>
        <CharString name="hyphen">
          -159 213 154 hstem
          20 314 vstem
          20 213 rmoveto
          -95 callsubr
          endchar
        </CharString>
        <CharString name="hyphen.alt">
          -159 283 154 hstem
          20 314 vstem
          20 283 rmoveto
          -95 callsubr
          endchar
        </CharString>
        <CharString name="hyphen.smcp">
          -159 198 154 hstem
          20 314 vstem
          20 198 rmoveto
          -95 callsubr
          endchar
        </CharString>
        <CharString name="i">
          -261 21 -21 531 -20 70 165 hstem
          29 194 vstem
          28 604 rmoveto
          -28 callsubr
          1 -721 rmoveto
          -27 callsubr
          endchar
        </CharString>
        <CharString name="i.smcp">
          -241 21 -21 hstem
          45 194 vstem
          45 hmoveto
          86 callsubr
          endchar
        </CharString>
        <CharString name="i.superior">
          -326 751 124 hstem
          20 146 vstem
          19 768 rmoveto
          54 callsubr
          1 -478 rmoveto
          146 356 -146 hlineto
          endchar
        </CharString>
        <CharString name="iacute">
          -252 0 21 490 20 65 143 hstemhm
          34 194 -151.5 222 hintmask 00101000
          76.5 596 rmoveto
          2 callsubr
          hintmask 11010000
          -119.5 -739 rmoveto
          -27 callsubr
          endchar
        </CharString>
        <CharString name="iacute.smcp">
          -241 0 21 609 143 hstemhm
          45 194 -167.5 222 hintmask 01010000
          71.5 630 rmoveto
          2 callsubr
          hintmask 10100000
          -103.5 -773 rmoveto
          86 callsubr
          endchar
        </CharString>
        <CharString name="icircumflex">
          -252 0 21 490 20 65 140 hstemhm
          -30 322 -258 194 hintmask 00110000
          -30 596 rmoveto
          -42 callsubr
          0 vmoveto
          131 hmoveto
          hintmask 11001000
          -167 -736 rmoveto
          -27 callsubr
          endchar
        </CharString>
        <CharString name="icircumflex.smcp">
          -241 0 21 609 140 hstemhm
          -35 322 -242 194 hintmask 01100000
          -35 630 rmoveto
          -42 callsubr
          0 vmoveto
          131 hmoveto
          hintmask 10010000
          -151 -770 rmoveto
          86 callsubr
          endchar
        </CharString>
        <CharString name="idieresis">
          -252 0 21 490 20 65 131 hstemhm
          -62 131 -35 194 -35 131 hintmask 00110100
          -62 662 rmoveto
          -4 callsubr
          255 hmoveto
          -4 callsubr
          hintmask 11001000
          -159 -662 rmoveto
          -27 callsubr
          endchar
        </CharString>
        <CharString name="idieresis.smcp">
          -241 0 21 609 131 hstemhm
          -67 131 -19 194 -51 131 hintmask 01101000
          -67 696 rmoveto
          -4 callsubr
          255 hmoveto
          -4 callsubr
          hintmask 10010000
          -143 -696 rmoveto
          86 callsubr
          endchar
        </CharString>
        <CharString name="igrave">
          -252 0 21 490 20 65 143 hstemhm
          -36.5 222 -151.5 194 hintmask 00110000
          -36.5 739 rmoveto
          -41 callsubr
          hintmask 11001000
          -74.5 -739 rmoveto
          -27 callsubr
          endchar
        </CharString>
        <CharString name="igrave.smcp">
          -241 0 21 609 143 hstemhm
          -41.5 222 -135.5 194 hintmask 01100000
          -41.5 773 rmoveto
          -41 callsubr
          hintmask 10010000
          -58.5 -773 rmoveto
          86 callsubr
          endchar
        </CharString>
        <CharString name="imacron">
          -252 0 21 490 20 65 93 hstemhm
          -15 292 -243 194 hintmask 00110000
          -15 596 rmoveto
          0 callsubr
          hintmask 11001000
          49 -689 rmoveto
          -27 callsubr
          endchar
        </CharString>
        <CharString name="imacron.smcp">
          -241 0 21 609 93 hstemhm
          -10 292 -237 194 hintmask 01100000
          -10 630 rmoveto
          0 callsubr
          hintmask 10010000
          55 -723 rmoveto
          86 callsubr
          endchar
        </CharString>
        <CharString name="infinity">
          229 169 123 99 123 hstem
          28 133 420 133 vstem
          28 341 rmoveto
          -92 39 -80 127 vhcurveto
          74 0 49 10 48 76 58 -76 62 -10 63 0 rrcurveto
          127 39 80 92 87 -28 86 -138 hvcurveto
          -76 0 -67 -21 -38 -66 -47 60 -50 27 -76 0 rrcurveto
          -138 -28 -86 -87 hvcurveto
          133 hmoveto
          28 2 22 44 vhcurveto
          28 0 29 -25 16 -25 -16 -24 -23 -25 -34 0 rrcurveto
          -38 -8 21 28 hvcurveto
          297 -1 rmoveto
          16 25 21 26 38 0 rrcurveto
          43 5 -22 -28 -28 -12 -21 -36 hvcurveto
          -34 0 -25 24 -16 24 rrcurveto
          endchar
        </CharString>
        <CharString name="integral">
          -70 -204 144 716 144 -144 119 hstemhm
          124 194 hintmask 11010000
          11 -60 rmoveto
          -119 vlineto
          21 -14 47 -11 73 0 rrcurveto
          120 46 106 186 hvcurveto
          418 vlineto
          87 7 63 69 vhcurveto
          hintmask 10110000
          38 119 hlineto
          hintmask 11010000
          -18 7 -29 18 -92 0 rrcurveto
          -117 -52 -126 -168 hvcurveto
          -418 vlineto
          -70 -3 -78 -70 vhcurveto
          endchar
        </CharString>
        <CharString name="iogonek">
          -261 -19.466003418 20 -0.533996582031 21 490 20 50 165 hstemhm
          29 194 hintmask 00000000
          96.5 0.5341796875 rmoveto
          44 callsubr
          hintmask 01111000
          -137.5 603.465820312 rmoveto
          -28 callsubr
          1 -721 rmoveto
          -27 callsubr
          endchar
        </CharString>
        <CharString name="iogonek.smcp">
          -241 -17.466003418 20 -2.53399658203 21 hstemhm
          45 194 hintmask 00000000
          117.5 2.5341796875 rmoveto
          44 callsubr
          hintmask 01100000
          -141.5 -2.5341796875 rmoveto
          86 callsubr
          endchar
        </CharString>
        <CharString name="itilde">
          -252 0 21 490 20 65 106 -71 106 hstemhm
          34 194 hintmask 00100000
          -43 663 rmoveto
          27 -67 rlineto
          hintmask 00010000
          -7 callsubr
          hintmask 00100000
          -6 callsubr
          hintmask 00010000
          -5 callsubr
          hintmask 11001000
          77 -663 rmoveto
          -27 callsubr
          endchar
        </CharString>
        <CharString name="itilde.smcp">
          -241 0 21 609 106 -71 106 hstemhm
          45 194 hintmask 01000000
          -44 697 rmoveto
          27 -67 rlineto
          hintmask 00100000
          -7 callsubr
          hintmask 01000000
          -6 callsubr
          hintmask 00100000
          -5 callsubr
          hintmask 10010000
          89 -697 rmoveto
          86 callsubr
          endchar
        </CharString>
        <CharString name="j">
          -249 531 -20 70 165 hstem
          36 194 vstem
          34 604 rmoveto
          -14 10 -9 14 vhcurveto
          150 hlineto
          14 9 8 15 hvcurveto
          117 vlineto
          14 -8 11 -15 vhcurveto
          -150 hlineto
          -16 -8 -10 -15 hvcurveto
          2 -991 rmoveto
          -26 callsubr
          endchar
        </CharString>
        <CharString name="j.smcp">
          -174 112 194 vstem
          20 21 rmoveto
          87 callsubr
          endchar
        </CharString>
        <CharString name="j.superior">
          -325 732 -20 41 124 hstem
          22 146 vstem
          20 770 rmoveto
          54 callsubr
          2 -663 rmoveto
          112 hlineto
          34 52 1 69 -1 58 rrcurveto
          358 -146 vlineto
          endchar
        </CharString>
</ttFont>
